<svg width="664" height="787" viewBox="0 0 664 787" fill="none" xmlns="http://www.w3.org/2000/svg">
<path opacity="0.35" d="M663.46 503.905V333.441H664V331.559H663.46V161.095C663.45 119.291 647.206 79.1285 618.164 49.1017V46.0088H663.46V44.1142H619.476L661.71 1.58518L660.423 0.296418L618.202 42.8255V1.21144H616.324V44.1142H613.132C583.582 15.8241 544.284 0.0249325 503.405 0H160.042C119.18 0.0381855 79.9033 15.8363 50.3662 44.1142H47.1621V1.21144H45.2962V42.7868L3.0755 0.25775L1.78868 1.54651L44.0093 44.0756H2.67659V45.9572H45.2962V49.1017C16.25 79.1262 0.00579512 119.29 0 161.095V503.905C0.00579512 545.71 16.25 585.874 45.2962 615.898V619.043H2.67659V620.925H43.9707L1.75008 663.454L3.0369 664.743L45.2576 622.214V663.789H47.1235V620.886H50.3276C79.8743 649.173 119.167 664.972 160.042 665H503.405C544.271 664.965 583.553 649.167 613.094 620.886H616.285V663.789H618.164V622.214L660.384 664.743L661.671 663.454L619.438 620.925H664V619.043H618.164V615.898C647.199 585.867 663.442 545.708 663.46 503.905ZM661.581 503.905C661.578 544.544 646.042 583.639 618.164 613.166V451.646H660.912V449.777H618.164V333.441H661.581V503.905ZM449.526 449.777L448.239 448.488C450.375 446.315 452.447 444.08 454.454 441.787V449.777H449.526ZM454.454 451.659V454.74L451.392 451.659H454.454ZM210.073 449.777V443.011C211.746 444.88 213.471 446.697 215.221 448.488L213.934 449.777H210.073ZM212.068 451.659L210.073 453.644V451.646L212.068 451.659ZM213.934 215.223L215.221 216.512C213.471 218.303 211.746 220.133 210.073 221.989V215.223H213.934ZM210.073 213.341V211.357L212.068 213.354L210.073 213.341ZM454.454 215.223V223.213C452.447 220.92 450.375 218.685 448.239 216.512L449.526 215.223H454.454ZM451.392 213.341L454.454 210.261V213.341H451.392ZM454.454 331.546H450.053C449.858 300.626 437.667 270.994 416.056 248.911L446.939 217.852C449.513 220.49 452.027 223.226 454.48 226.061L454.454 331.546ZM456.32 228.291C480.322 257.343 493.512 293.838 493.638 331.546H456.32V228.291ZM414.73 250.2C436.002 271.918 448.001 301.073 448.188 331.495H333.982L414.73 250.2ZM332.669 330.103V215.223C362.942 215.434 391.926 227.519 413.405 248.886L332.669 330.103ZM330.79 330.103L250.042 248.795C271.545 227.468 300.528 215.418 330.79 215.223V330.103ZM329.503 331.392H215.272C215.466 300.971 227.464 271.819 248.729 250.096L329.503 331.392ZM329.503 333.274L248.755 414.568C227.49 392.846 215.492 363.693 215.298 333.274H329.503ZM330.79 334.563V449.777C300.512 449.565 271.523 437.474 250.042 416.102L330.79 334.563ZM332.669 334.563L413.405 415.857C391.97 437.321 362.98 449.502 332.669 449.777V334.563ZM333.957 333.274H448.149C447.962 363.695 435.963 392.85 414.692 414.568L333.957 333.274ZM445.588 216.512L414.705 247.584C397.753 230.741 376.091 219.455 352.59 215.223H444.276L445.588 216.512ZM332.669 213.341V169.433C373.452 169.633 412.637 185.331 442.307 213.354L332.669 213.341ZM330.79 213.341H221.153C250.817 185.31 290.006 169.611 330.79 169.42V213.341ZM310.857 215.223C287.349 219.456 265.678 230.741 248.717 247.584L217.833 216.512L219.12 215.223H310.857ZM216.546 217.801L247.43 248.86C225.809 270.936 213.615 300.572 213.432 331.495H210.099V224.837C212.171 222.453 214.32 220.12 216.546 217.865V217.801ZM208.208 331.495H169.77C169.914 293.209 183.523 256.199 208.208 226.964V331.495ZM208.208 333.377V437.908C183.523 408.673 169.914 371.662 169.77 333.377H208.208ZM210.073 333.377H213.406C213.587 364.295 225.781 393.929 247.404 415.999L216.52 447.071C214.294 444.816 212.145 442.483 210.086 440.098L210.073 333.377ZM217.872 448.488L248.755 417.416C265.707 434.253 287.362 445.537 310.857 449.777H219.184L217.872 448.488ZM330.79 451.659V495.58C290.006 495.389 250.817 479.69 221.153 451.659H330.79ZM332.669 451.659H442.307C412.637 479.682 373.452 495.38 332.669 495.58V451.659ZM352.59 449.777C376.1 445.55 397.772 434.264 414.73 417.416L445.614 448.488L444.327 449.777H352.59ZM446.914 447.2L416.03 416.127C437.644 394.052 449.836 364.423 450.028 333.505H454.429V438.991C452.027 441.774 449.522 444.51 446.914 447.2ZM456.32 333.505H493.638C493.512 371.213 480.322 407.708 456.32 436.76V333.505ZM495.555 331.624C495.412 292.704 481.512 255.091 456.32 225.455V215.223H555.277C573.904 251.165 583.669 291.051 583.754 331.546L495.555 331.624ZM456.32 213.418V208.444L510.598 153.814C527.981 171.446 542.699 191.526 554.286 213.418H456.32ZM456.32 205.789V111.89C475.678 122.999 493.483 136.623 509.273 152.408L456.32 205.789ZM454.454 207.671L448.754 213.418H445.035C414.882 184.196 374.628 167.761 332.669 167.539V78.769C375.333 78.8628 417.261 89.9019 454.454 110.834V207.671ZM330.79 167.539C288.842 167.737 248.589 184.145 218.425 213.341H214.706L210.073 208.676V110.215C247.008 89.672 288.542 78.8483 330.79 78.7562V167.539ZM208.208 206.807L154.161 152.408C170.252 136.334 188.431 122.501 208.208 111.285V206.807ZM208.208 209.475V213.341H109.122C120.705 191.446 135.424 171.365 152.81 153.736L208.208 209.475ZM208.208 215.236V224.128C182.35 253.944 168.043 292.068 167.891 331.559H79.7057C79.7891 291.06 89.5538 251.169 108.183 215.223L208.208 215.236ZM167.891 333.441C168.043 372.932 182.35 411.057 208.208 440.872V449.777H108.183C89.5558 413.835 79.7912 373.949 79.7057 333.454L167.891 333.441ZM208.208 451.646V455.513L152.874 511.226C135.488 493.596 120.77 473.516 109.187 451.62L208.208 451.646ZM208.208 458.193V553.715C188.431 542.499 170.252 528.666 154.161 512.592L208.208 458.193ZM210.073 456.311L214.706 451.646H218.425C248.587 480.847 288.84 497.259 330.79 497.462V586.257C288.542 586.154 247.009 575.326 210.073 554.785V456.311ZM332.669 497.462C374.618 497.26 414.87 480.853 445.035 451.659H448.754L454.454 457.406V554.167C417.26 575.097 375.333 586.139 332.669 586.244V497.462ZM456.32 459.288L509.273 512.605C493.477 528.383 475.673 542.007 456.32 553.123V459.288ZM456.32 456.633V451.659H554.286C542.699 473.552 527.981 493.632 510.598 511.264L456.32 456.633ZM456.32 449.777V439.622C481.512 409.986 495.412 372.375 495.555 333.454H583.754C583.669 373.949 573.904 413.835 555.277 449.777H456.32ZM585.62 333.454H616.285V449.777H557.387C575.863 413.785 585.54 373.912 585.62 333.441V333.454ZM585.62 331.572C585.542 291.097 575.865 251.22 557.387 215.223H616.285V331.546L585.62 331.572ZM556.396 213.367C544.652 190.968 529.665 170.432 511.924 152.421L615.101 48.5862L615.191 48.6636C615.577 49.0631 615.963 49.4884 616.349 49.9523V213.354L556.396 213.367ZM613.686 47.2846L510.598 151.081C494.436 134.925 476.18 121.015 456.32 109.725V45.9958H612.347L613.686 47.2846ZM454.454 108.682C417.203 87.9241 375.299 76.98 332.669 76.8745V45.9443H454.454V108.682ZM332.669 44.1142V1.88158H454.454V44.1142H332.669ZM330.79 44.1142H210.073V1.88158H330.79V44.1142ZM330.79 45.9958V76.9261C288.576 77.025 247.064 87.7544 210.073 108.127V45.9958H330.79ZM208.208 109.145C187.938 120.533 169.32 134.648 152.874 151.094L49.7872 47.2975L51.074 46.0088H208.208V109.145ZM48.3331 48.6636L48.4103 48.5862L151.536 152.408C133.787 170.415 118.796 190.952 107.051 213.354H47.1621V49.9008C47.6125 49.4884 47.9342 49.0631 48.3331 48.6636ZM106.073 215.223C87.5988 251.212 77.9224 291.08 77.8399 331.546H47.1621V215.223H106.073ZM77.8399 333.428C77.9184 373.903 87.5949 413.781 106.073 449.777H47.1621V333.441L77.8399 333.428ZM107.051 451.633C118.796 474.035 133.787 494.572 151.536 512.579L48.4103 616.414L48.3331 616.337C47.9342 615.937 47.561 615.511 47.1621 615.048V451.646L107.051 451.633ZM49.7743 617.716L152.861 513.919C169.311 530.366 187.927 544.484 208.195 555.881V619.03H51.1126L49.7743 617.716ZM210.073 556.925C247.064 577.297 288.576 588.027 330.79 588.125V619.056H210.073V556.925ZM330.79 620.886V663.118H210.073V620.886H330.79ZM332.669 620.886H454.454V663.118H332.669V620.886ZM332.669 619.005V588.074C375.299 587.969 417.203 577.025 454.454 556.267V618.953L332.669 619.005ZM456.32 555.275C476.18 543.985 494.436 530.076 510.598 513.919L613.686 617.716L612.399 619.005H456.32V555.275ZM615.101 616.337L615.011 616.414L511.898 512.592C529.64 494.581 544.626 474.045 556.371 451.646H616.259V615.1L615.101 616.337ZM661.581 161.095V331.559H618.164V215.223H660.912V213.341H618.164V51.8726C646.033 81.3906 661.568 120.47 661.581 161.095ZM610.391 44.0756H456.32V1.88158H503.405C543.115 1.91096 581.341 17.0005 610.391 44.1142V44.0756ZM160.003 1.84293H208.208V44.0756H53.0686C82.1212 16.9778 120.341 1.90243 160.042 1.88158L160.003 1.84293ZM1.86589 503.905V161.095C1.87391 120.455 17.4138 81.3604 45.2962 51.8339V213.315H2.57364V215.223H45.2962V331.546H2.41922V333.428H45.2962V449.777H2.57364V451.659H45.2962V613.141C17.4199 583.62 1.88049 544.536 1.86589 503.905ZM53.0686 620.925H208.208V663.157H160.042C120.331 663.115 82.1093 648.012 53.0686 620.886V620.925ZM503.457 663.157H456.32V620.886H610.391C581.339 647.997 543.115 663.087 503.405 663.118L503.457 663.157Z" fill="url(#paint0_radial_556_30)"/>
<path d="M377.582 96.5059L377.582 171.305H452.242" stroke="url(#paint1_linear_556_30)" stroke-width="15" stroke-miterlimit="10" stroke-linecap="round" stroke-linejoin="round"/>
<path d="M381.714 148.197C379.023 151.346 379.393 156.08 382.542 158.772C385.691 161.463 390.425 161.092 393.116 157.943L381.714 148.197ZM405.469 131.949L399.788 127.052C399.781 127.06 399.774 127.068 399.768 127.076L405.469 131.949ZM416.993 131.515L411.653 136.781C411.664 136.792 411.674 136.803 411.685 136.813L416.993 131.515ZM432.255 134.825L437.935 139.722C437.942 139.715 437.948 139.707 437.955 139.699L432.255 134.825ZM457.825 113.08C457.502 108.95 453.893 105.864 449.763 106.187L382.469 111.447C378.339 111.769 375.253 115.379 375.576 119.508C375.898 123.638 379.508 126.724 383.637 126.401L443.455 121.726L448.13 181.543C448.453 185.673 452.062 188.759 456.192 188.436C460.321 188.113 463.407 184.504 463.085 180.374L457.825 113.08ZM393.116 157.943L411.17 136.822L399.768 127.076L381.714 148.197L393.116 157.943ZM411.15 136.846C411.201 136.785 411.247 136.755 411.287 136.736C411.333 136.715 411.386 136.701 411.441 136.699C411.495 136.697 411.536 136.706 411.562 136.716C411.58 136.723 411.609 136.737 411.653 136.781L422.334 126.249C415.967 119.793 405.577 120.336 399.788 127.052L411.15 136.846ZM411.685 136.813L415.422 140.557L426.038 129.96L422.302 126.217L411.685 136.813ZM415.422 140.557C421.739 146.886 432.106 146.485 437.935 139.722L426.574 129.928C426.527 129.982 426.488 130.008 426.454 130.024C426.413 130.043 426.361 130.057 426.3 130.059C426.24 130.062 426.188 130.051 426.15 130.037C426.119 130.025 426.083 130.006 426.038 129.96L415.422 140.557ZM437.955 139.699L456.048 118.538L444.647 108.79L426.554 129.951L437.955 139.699Z" fill="url(#paint2_linear_556_30)"/>
<rect x="394.408" y="150.506" width="8.74065" height="17.8788" rx="4.37032" fill="url(#paint3_linear_556_30)"/>
<rect x="408.611" y="136.422" width="8.74065" height="31.9629" rx="4.37032" fill="url(#paint4_linear_556_30)"/>
<rect x="436.873" y="136.861" width="8.74065" height="31.671" rx="4.37032" fill="url(#paint5_linear_556_30)"/>
<rect x="422.815" y="142.771" width="8.66781" height="25.6141" rx="4.3339" fill="url(#paint6_linear_556_30)"/>
<path d="M401.98 104.019C401.98 105.79 400.546 107.227 398.776 107.227C397.007 107.227 395.572 105.79 395.572 104.019C395.572 102.247 397.007 100.811 398.776 100.811C400.546 100.811 401.98 102.247 401.98 104.019Z" fill="url(#paint7_linear_556_30)"/>
<path d="M405.115 114.584C405.115 112.892 404.443 111.269 403.248 110.072C402.053 108.875 400.432 108.203 398.742 108.203C397.051 108.203 395.43 108.875 394.235 110.072C393.04 111.269 392.368 112.892 392.368 114.584C395.572 119.016 401.98 119.153 405.115 114.584Z" fill="url(#paint8_linear_556_30)"/>
<path d="M407.055 108.035C407.055 112.632 403.339 116.339 398.778 116.339C394.218 116.339 390.502 112.632 390.502 108.035C390.502 103.439 394.218 99.7324 398.778 99.7324C403.339 99.7324 407.055 103.439 407.055 108.035Z" stroke="url(#paint9_linear_556_30)" stroke-width="12"/>
<path d="M387.421 129.382C386.523 131.403 385.837 132.946 385.837 132.946L390.119 134.856C390.119 134.856 390.818 133.284 391.742 131.205M387.421 129.382C388.423 127.127 389.689 124.278 390.562 122.314C391.738 123.092 393.184 123.754 394.844 124.225C393.925 126.292 392.71 129.026 391.742 131.205M387.421 129.382L391.742 131.205" stroke="url(#paint10_linear_556_30)" stroke-width="6"/>
<path d="M447.96 101.724C447.418 101.724 444.052 101.724 444.052 101.724V97.9708M451.076 101.724C451.076 105.49 448.042 108.547 444.302 108.547C440.563 108.547 437.528 105.49 437.528 101.724C437.528 97.9572 440.563 94.9004 444.302 94.9004C448.042 94.9004 451.076 97.9572 451.076 101.724Z" stroke="url(#paint11_linear_556_30)" stroke-width="8" stroke-linejoin="round"/>
<path d="M575.487 251.944V251.799C577.906 251.463 580.111 250.357 581.699 248.682C583.288 247.007 584.154 244.874 584.141 242.672V240.164H582.521C579.936 240.167 577.452 241.065 575.585 242.672C575.463 241.205 575.258 239.746 574.969 238.298H575.196V238.152C577.387 236.84 579.037 234.916 579.893 232.676C580.748 230.437 580.76 228.006 579.928 225.76L579.377 224.273L577.756 224.885C575.302 225.833 573.35 227.599 572.311 229.813C571.684 228.427 570.969 227.073 570.172 225.76C571.801 223.871 572.709 221.56 572.762 219.17C572.814 216.78 572.008 214.438 570.464 212.493L569.362 211.151L567.936 212.055C566.02 213.836 564.871 216.172 564.694 218.645C563.621 217.617 562.485 216.643 561.291 215.729C562.334 213.461 562.489 210.94 561.729 208.582C560.969 206.224 559.34 204.169 557.11 202.754L555.587 201.85L554.776 203.308C553.937 204.82 553.494 206.486 553.48 208.177C551.328 207.412 548.95 207.33 546.738 207.944H544.988L545.377 209.693C545.619 210.79 546.102 211.832 546.798 212.758C547.494 213.684 548.388 214.476 549.429 215.088C548.06 215.987 546.949 217.166 546.187 218.528L545.539 219.695L546.738 220.395C548.278 221.307 550.081 221.794 551.924 221.794C552.722 221.794 553.517 221.706 554.29 221.532C556.417 220.974 558.283 219.807 559.606 218.208C560.624 219.061 561.587 219.967 562.49 220.919C561.15 220.81 559.799 220.961 558.529 221.364C557.259 221.767 556.101 222.411 555.133 223.252L553.934 224.156L554.841 225.264C555.665 226.299 556.724 227.164 557.948 227.802C559.172 228.441 560.532 228.838 561.939 228.967H562.75C564.481 228.952 566.174 228.508 567.644 227.684C568.292 228.792 568.875 229.93 569.426 231.125H569.167C567.98 230.581 566.677 230.273 565.346 230.222C564.014 230.172 562.687 230.38 561.453 230.833L560.06 231.358L560.513 232.641C560.954 233.942 561.688 235.146 562.669 236.18C563.651 237.213 564.859 238.053 566.218 238.648C567.445 239.166 568.784 239.435 570.14 239.435C570.674 239.42 571.205 239.362 571.728 239.26C571.955 240.427 572.117 241.593 572.246 242.789C570.355 241.152 567.837 240.233 565.213 240.223H563.592V242.672C563.6 244.812 564.44 246.882 565.968 248.523C567.495 250.164 569.614 251.271 571.955 251.653C571.76 252.907 571.501 254.161 571.177 255.356C570.141 253.12 568.193 251.325 565.732 250.341L564.046 249.583L563.463 251.215C562.631 253.421 562.617 255.811 563.423 258.025C564.23 260.238 565.813 262.157 567.936 263.491C567.358 264.585 566.709 265.646 565.991 266.67C565.774 264.22 564.603 261.917 562.685 260.167L561.453 258.826L560.351 260.196C558.818 262.095 557.992 264.381 557.992 266.728C557.992 269.075 558.818 271.361 560.351 273.26C559.411 274.076 558.439 274.863 557.434 275.592C558.153 273.081 557.842 270.421 556.559 268.098L555.846 266.378L554.128 267.369C552.023 268.749 550.469 270.703 549.698 272.942C548.927 275.18 548.981 277.582 549.85 279.791C546.834 280.98 539.945 283.56 536.669 283.859C534.106 284.101 531.713 285.131 529.895 286.775L528.566 287.97L527.237 286.775C525.419 285.131 523.027 284.101 520.463 283.859C517.187 283.56 510.298 280.98 507.282 279.791C508.152 277.582 508.205 275.18 507.434 272.942C506.663 270.703 505.109 268.749 503.004 267.369L501.351 266.203L500.638 267.953C499.335 270.32 499.002 273.026 499.698 275.592C498.693 274.863 497.721 274.076 496.781 273.26C498.305 271.358 499.125 269.073 499.125 266.728C499.125 264.383 498.305 262.098 496.781 260.196L495.744 258.884L494.512 260.167C492.511 261.937 491.291 264.299 491.076 266.815C490.397 265.742 489.791 264.632 489.261 263.491C491.32 262.157 492.853 260.268 493.64 258.098C494.426 255.928 494.425 253.589 493.637 251.42L493.086 249.903L491.465 250.516C489.02 251.476 487.074 253.238 486.02 255.443C485.696 254.219 485.437 252.965 485.242 251.711C487.576 251.31 489.68 250.186 491.19 248.535C492.7 246.884 493.519 244.81 493.507 242.672V240.164H491.887C489.272 240.159 486.754 241.057 484.853 242.672C484.853 241.476 485.145 240.31 485.372 239.144C485.894 239.245 486.426 239.304 486.96 239.319C488.316 239.318 489.655 239.05 490.882 238.531C492.241 237.937 493.449 237.097 494.43 236.063C495.412 235.03 496.146 233.825 496.586 232.525L497.008 231.242L495.744 230.833C494.537 230.38 493.238 230.161 491.931 230.191C490.624 230.221 489.338 230.5 488.159 231.008H487.9C488.451 229.813 489.035 228.676 489.683 227.568C491.152 228.391 492.846 228.835 494.577 228.851H495.387C496.792 228.725 498.151 228.332 499.374 227.699C500.598 227.065 501.658 226.206 502.485 225.177L503.296 224.127L502.226 223.31C501.25 222.448 500.079 221.785 498.793 221.367C497.506 220.95 496.134 220.787 494.771 220.89C495.679 219.928 496.619 219.053 497.591 218.208C498.915 219.805 500.781 220.972 502.907 221.532C503.68 221.706 504.475 221.794 505.273 221.794C507.116 221.794 508.919 221.307 510.459 220.395L511.658 219.666L511.01 218.499C510.242 217.132 509.133 215.945 507.768 215.029C508.852 214.368 509.766 213.505 510.448 212.499C511.13 211.493 511.564 210.367 511.723 209.198L511.949 208.031L510.491 207.681C509.531 207.437 508.539 207.309 507.541 207.302C506.219 207.296 504.909 207.524 503.685 207.973C503.626 206.334 503.185 204.724 502.388 203.249L501.545 201.85L500.087 202.724C497.898 204.136 496.3 206.168 495.548 208.494C494.795 210.821 494.933 213.307 495.938 215.554C494.719 216.526 493.571 217.568 492.503 218.674C492.242 216.119 490.978 213.731 488.937 211.939L487.641 211.005L486.636 212.23C485.088 214.181 484.284 216.53 484.342 218.927C484.401 221.323 485.319 223.638 486.96 225.527C486.182 226.81 485.502 228.151 484.853 229.521C483.776 227.44 481.883 225.79 479.538 224.885L477.917 224.127L477.334 225.731C476.502 227.977 476.514 230.408 477.369 232.647C478.224 234.887 479.875 236.811 482.066 238.123V238.269H482.261C481.96 239.725 481.743 241.195 481.612 242.672C479.735 241.086 477.252 240.209 474.676 240.223H473.056V242.672C473.063 244.85 473.931 246.955 475.505 248.611C477.078 250.267 479.254 251.365 481.645 251.711V251.857H481.904C482.163 253.432 482.455 254.977 482.876 256.493H482.779C481.628 256.004 480.377 255.736 479.105 255.706C477.832 255.676 476.567 255.885 475.389 256.318L473.866 256.756L474.352 258.126C474.793 259.426 475.527 260.631 476.508 261.664C477.49 262.698 478.698 263.538 480.057 264.133C481.282 264.655 482.622 264.924 483.978 264.92C484.665 264.942 485.351 264.883 486.02 264.745V264.891H486.312C487.057 266.269 487.879 267.612 488.775 268.915C487.422 268.812 486.06 268.976 484.784 269.393C483.508 269.811 482.349 270.474 481.385 271.335L480.316 272.21L481.159 273.289C481.973 274.329 483.031 275.196 484.257 275.831C485.483 276.465 486.848 276.852 488.257 276.963H489.067C490.93 276.959 492.748 276.451 494.285 275.505L494.544 275.301C495.718 276.342 496.963 277.316 498.272 278.217C496.919 278.592 495.667 279.213 494.591 280.04C493.515 280.867 492.639 281.884 492.016 283.028L491.303 284.194L492.535 284.923C494.065 285.857 495.872 286.355 497.721 286.352C498.521 286.355 499.317 286.257 500.087 286.06C502.35 285.497 504.323 284.238 505.662 282.503V282.27C508.991 283.603 516.221 286.272 519.847 286.6C521.657 286.763 523.345 287.496 524.612 288.67L525.941 289.865L520.431 294.822L522.732 296.893L528.598 292.082L534.108 296.98L536.41 294.91L530.9 289.953L532.229 288.757C533.496 287.584 535.183 286.85 536.993 286.687C540.631 286.363 547.872 283.694 551.211 282.357V282.59C552.544 284.319 554.503 285.576 556.754 286.148C557.523 286.345 558.32 286.443 559.12 286.439C560.969 286.442 562.776 285.945 564.305 285.011L565.505 284.282L564.856 283.115C564.222 281.974 563.339 280.959 562.258 280.132C561.178 279.306 559.923 278.684 558.569 278.304C559.876 277.412 561.111 276.438 562.264 275.388L562.523 275.621C564.07 276.546 565.884 277.043 567.741 277.05H568.551C569.963 276.936 571.33 276.545 572.556 275.905C573.782 275.265 574.838 274.392 575.649 273.347L576.46 272.326L575.423 271.423C574.512 270.591 573.42 269.939 572.215 269.507C571.01 269.076 569.718 268.874 568.422 268.915C569.341 267.604 570.185 266.251 570.95 264.862H571.242V264.716C571.871 264.833 572.511 264.892 573.154 264.891C574.499 264.891 575.828 264.622 577.043 264.104C578.402 263.509 579.61 262.669 580.591 261.635C581.573 260.602 582.307 259.397 582.748 258.097L583.169 256.814L581.808 256.318C580.617 255.873 579.336 255.656 578.047 255.681C576.758 255.706 575.489 255.973 574.321 256.464C574.742 254.948 575.034 253.402 575.293 251.828L575.487 251.944ZM575.487 248.591C575.682 247.322 576.306 246.138 577.274 245.199C578.242 244.26 579.508 243.612 580.9 243.343C580.753 244.622 580.175 245.831 579.242 246.805C578.309 247.78 577.067 248.475 575.682 248.795L575.487 248.591ZM549.072 210.597C549.97 210.486 550.884 210.545 551.755 210.771C552.626 210.997 553.434 211.385 554.128 211.909C554.307 212.441 554.535 212.958 554.809 213.455C554.43 213.444 554.05 213.464 553.675 213.513C552.702 213.398 551.776 213.073 550.974 212.565C550.173 212.057 549.52 211.382 549.072 210.597ZM553.48 218.82C552.329 219.141 551.098 219.141 549.947 218.82C550.793 217.664 552.068 216.817 553.545 216.429C554.682 216.093 555.908 216.093 557.045 216.429C556.185 217.536 554.925 218.339 553.48 218.703V218.82ZM558.666 213.513C557.799 212.545 557.191 211.41 556.887 210.197C556.584 208.984 556.593 207.724 556.916 206.515C557.789 207.48 558.402 208.615 558.705 209.829C559.009 211.043 558.996 212.304 558.666 213.513ZM562.069 226.081C560.702 225.973 559.414 225.46 558.407 224.623C559.5 224.011 560.789 223.745 562.069 223.865C563.446 223.97 564.745 224.483 565.764 225.322C564.643 225.894 563.352 226.139 562.069 226.022V226.081ZM568.357 222.844C567.846 221.681 567.633 220.43 567.734 219.183C567.835 217.936 568.247 216.725 568.94 215.642C569.449 216.805 569.661 218.056 569.56 219.303C569.459 220.549 569.048 221.76 568.357 222.844ZM567.676 235.995C566.292 235.341 565.162 234.324 564.435 233.079C565.543 232.965 566.664 233.126 567.676 233.545C569.07 234.187 570.204 235.207 570.917 236.461C569.81 236.578 568.688 236.417 567.676 235.995ZM503.069 211.793C503.736 211.24 504.526 210.819 505.385 210.558C506.245 210.297 507.156 210.201 508.06 210.277C507.671 211.097 507.067 211.819 506.299 212.383C505.531 212.947 504.623 213.335 503.652 213.513C503.235 213.436 502.813 213.387 502.388 213.367C502.678 212.866 502.906 212.338 503.069 211.793ZM502.226 216.254V216.721L503.749 216.429C505.134 216.794 506.357 217.538 507.25 218.558C506.099 218.879 504.868 218.879 503.717 218.558C502.298 218.208 501.039 217.462 500.119 216.429C500.805 216.26 501.518 216.201 502.226 216.254ZM500.249 206.457C500.594 207.672 500.618 208.943 500.319 210.168C500.021 211.393 499.409 212.539 498.531 213.513C498.194 212.297 498.174 211.028 498.472 209.804C498.77 208.58 499.378 207.434 500.249 206.457ZM495.128 223.952C496.408 223.839 497.694 224.105 498.79 224.71C497.78 225.544 496.493 226.056 495.128 226.168C493.81 226.204 492.514 225.856 491.433 225.177C492.465 224.369 493.763 223.887 495.128 223.806V223.952ZM488.224 215.671C488.913 216.75 489.326 217.954 489.433 219.195C489.539 220.436 489.337 221.682 488.84 222.844C488.151 221.765 487.738 220.561 487.632 219.32C487.525 218.079 487.728 216.832 488.224 215.671ZM489.521 233.633C490.528 233.197 491.654 233.034 492.762 233.166C492.049 234.42 490.915 235.44 489.521 236.082C488.509 236.504 487.387 236.666 486.28 236.549C486.993 235.295 488.127 234.274 489.521 233.633ZM476.297 243.343C477.645 243.632 478.866 244.279 479.802 245.199C480.738 246.119 481.346 247.27 481.547 248.504V248.737C480.166 248.425 478.924 247.741 477.986 246.778C477.047 245.814 476.458 244.615 476.297 243.343ZM479.992 228.501C481.013 229.321 481.8 230.351 482.285 231.504C482.77 232.656 482.94 233.896 482.779 235.12C481.768 234.292 480.989 233.261 480.505 232.11C480.02 230.96 479.845 229.724 479.992 228.501ZM481.418 261.509C480.017 260.875 478.881 259.853 478.177 258.593C479.284 258.481 480.404 258.643 481.418 259.059C482.816 259.696 483.951 260.717 484.659 261.975C483.552 262.083 482.432 261.922 481.418 261.509ZM490.234 243.343C490.087 244.639 489.497 245.862 488.545 246.844C487.593 247.826 486.326 248.518 484.918 248.824C485.061 247.527 485.649 246.302 486.602 245.319C487.555 244.336 488.824 243.646 490.234 243.343ZM488.095 260.663C487.951 259.432 488.138 258.189 488.64 257.037C489.142 255.885 489.945 254.859 490.979 254.044C491.109 255.273 490.916 256.513 490.415 257.663C489.914 258.813 489.119 259.841 488.095 260.663ZM488.548 273.989C487.172 273.883 485.872 273.37 484.853 272.531C486 271.919 487.336 271.657 488.661 271.783C489.987 271.909 491.232 272.417 492.211 273.23C491.115 273.836 489.828 274.102 488.548 273.989ZM494.836 270.81C494.326 269.657 494.113 268.415 494.214 267.178C494.315 265.94 494.727 264.74 495.42 263.666C495.921 264.821 496.128 266.062 496.027 267.298C495.926 268.534 495.519 269.734 494.836 270.81ZM499.374 283.494C498.221 283.8 496.994 283.8 495.841 283.494C496.748 282.436 498.009 281.669 499.439 281.307C500.578 280.987 501.799 280.987 502.939 281.307C502.042 282.362 500.792 283.129 499.374 283.494ZM504.56 278.246C503.709 277.269 503.113 276.134 502.816 274.922C502.518 273.711 502.527 272.455 502.842 271.248C503.677 272.203 504.265 273.314 504.562 274.499C504.859 275.685 504.858 276.915 504.56 278.1V278.246ZM554.355 271.248C554.679 272.455 554.693 273.713 554.395 274.925C554.098 276.138 553.496 277.274 552.637 278.246C552.282 277.017 552.252 275.731 552.55 274.49C552.849 273.249 553.467 272.088 554.355 271.102V271.248ZM561.453 283.232C560.311 283.538 559.095 283.538 557.953 283.232C556.534 282.866 555.284 282.099 554.388 281.045C555.527 280.724 556.748 280.724 557.888 281.045C559.319 281.386 560.577 282.158 561.453 283.232ZM562.49 270.81C562.465 270.77 562.44 270.73 562.415 270.69C561.768 269.643 561.382 268.48 561.284 267.284C561.183 266.042 561.396 264.795 561.907 263.637C562.577 264.725 562.965 265.935 563.044 267.177C563.119 268.376 562.905 269.574 562.415 270.69C562.397 270.73 562.379 270.77 562.361 270.81H562.49ZM568.811 271.772C570.09 271.674 571.371 271.939 572.473 272.531C571.454 273.37 570.155 273.883 568.778 273.989C567.499 274.091 566.216 273.826 565.116 273.23C566.109 272.435 567.357 271.945 568.681 271.831L568.811 271.772ZM566.347 254.015C567.385 254.834 568.188 255.866 568.69 257.023C569.192 258.18 569.378 259.428 569.232 260.663C568.182 259.848 567.361 258.82 566.837 257.665C566.313 256.509 566.101 255.258 566.218 254.015H566.347ZM567.093 243.343C568.502 243.646 569.772 244.336 570.725 245.319C571.678 246.302 572.266 247.527 572.408 248.824C570.977 248.539 569.681 247.856 568.704 246.872C567.728 245.889 567.118 244.654 566.963 243.343H567.093ZM575.876 259.147C576.892 258.737 578.013 258.586 579.118 258.709C578.408 259.966 577.273 260.987 575.876 261.625C574.865 262.049 573.745 262.22 572.635 262.121C573.298 260.859 574.387 259.818 575.747 259.147H575.876ZM574.418 235.149C574.275 233.914 574.462 232.666 574.964 231.51C575.465 230.353 576.267 229.322 577.302 228.501C577.435 229.735 577.243 230.98 576.742 232.135C576.241 233.289 575.445 234.322 574.418 235.149Z" fill="url(#paint12_linear_556_30)"/>
<path d="M500.249 206.457C500.594 207.672 500.618 208.943 500.319 210.168C500.021 211.393 499.409 212.539 498.531 213.513C498.194 212.297 498.174 211.028 498.472 209.804C498.77 208.58 499.378 207.434 500.249 206.457Z" fill="url(#paint13_linear_556_30)"/>
<path d="M503.069 211.793C503.736 211.24 504.526 210.819 505.385 210.558C506.245 210.297 507.156 210.201 508.06 210.277C507.671 211.097 507.067 211.819 506.299 212.383C505.531 212.947 504.623 213.335 503.652 213.513C503.235 213.436 502.813 213.387 502.388 213.367C502.678 212.866 502.906 212.338 503.069 211.793Z" fill="url(#paint14_linear_556_30)"/>
<path d="M502.226 216.254V216.721L503.749 216.429C505.134 216.794 506.357 217.538 507.25 218.558C506.099 218.879 504.868 218.879 503.717 218.558C502.298 218.208 501.039 217.462 500.119 216.429C500.805 216.26 501.518 216.201 502.226 216.254Z" fill="url(#paint15_linear_556_30)"/>
<path d="M488.224 215.671C488.913 216.75 489.326 217.954 489.433 219.195C489.539 220.436 489.337 221.682 488.84 222.844C488.151 221.765 487.738 220.561 487.632 219.32C487.525 218.079 487.728 216.832 488.224 215.671Z" fill="url(#paint16_linear_556_30)"/>
<path d="M495.128 223.952C496.408 223.839 497.694 224.105 498.79 224.71C497.78 225.544 496.493 226.056 495.128 226.168C493.81 226.204 492.514 225.856 491.433 225.177C492.465 224.369 493.763 223.887 495.128 223.806V223.952Z" fill="url(#paint17_linear_556_30)"/>
<path d="M479.992 228.501C481.013 229.321 481.8 230.351 482.285 231.504C482.77 232.656 482.94 233.896 482.779 235.12C481.768 234.292 480.989 233.261 480.505 232.11C480.02 230.96 479.845 229.724 479.992 228.501Z" fill="url(#paint18_linear_556_30)"/>
<path d="M489.521 233.633C490.528 233.197 491.654 233.034 492.762 233.166C492.049 234.42 490.915 235.44 489.521 236.082C488.509 236.504 487.387 236.666 486.28 236.549C486.993 235.295 488.127 234.274 489.521 233.633Z" fill="url(#paint19_linear_556_30)"/>
<path d="M490.234 243.343C490.087 244.639 489.497 245.862 488.545 246.844C487.593 247.826 486.326 248.518 484.918 248.824C485.061 247.527 485.649 246.302 486.602 245.319C487.555 244.336 488.824 243.646 490.234 243.343Z" fill="url(#paint20_linear_556_30)"/>
<path d="M476.297 243.343C477.645 243.632 478.866 244.279 479.802 245.199C480.738 246.119 481.346 247.27 481.547 248.504V248.737C480.166 248.425 478.924 247.741 477.986 246.778C477.047 245.814 476.458 244.615 476.297 243.343Z" fill="url(#paint21_linear_556_30)"/>
<path d="M481.418 261.509C480.017 260.875 478.881 259.853 478.177 258.593C479.284 258.481 480.404 258.643 481.418 259.059C482.816 259.696 483.951 260.717 484.659 261.975C483.552 262.083 482.432 261.922 481.418 261.509Z" fill="url(#paint22_linear_556_30)"/>
<path d="M488.095 260.663C487.951 259.432 488.138 258.189 488.64 257.037C489.142 255.885 489.945 254.859 490.979 254.044C491.109 255.273 490.916 256.513 490.415 257.663C489.914 258.813 489.119 259.841 488.095 260.663Z" fill="url(#paint23_linear_556_30)"/>
<path d="M488.548 273.989C487.172 273.883 485.872 273.37 484.853 272.531C486 271.919 487.336 271.657 488.661 271.783C489.987 271.909 491.232 272.417 492.211 273.23C491.115 273.836 489.828 274.102 488.548 273.989Z" fill="url(#paint24_linear_556_30)"/>
<path d="M494.836 270.81C494.326 269.657 494.113 268.415 494.214 267.178C494.315 265.94 494.727 264.74 495.42 263.666C495.921 264.821 496.128 266.062 496.027 267.298C495.926 268.534 495.519 269.734 494.836 270.81Z" fill="url(#paint25_linear_556_30)"/>
<path d="M504.56 278.246C503.709 277.269 503.113 276.134 502.816 274.922C502.518 273.711 502.527 272.455 502.842 271.248C503.677 272.203 504.265 273.314 504.562 274.499C504.859 275.685 504.858 276.915 504.56 278.1V278.246Z" fill="url(#paint26_linear_556_30)"/>
<path d="M499.374 283.494C498.221 283.8 496.994 283.8 495.841 283.494C496.748 282.436 498.009 281.669 499.439 281.307C500.578 280.987 501.799 280.987 502.939 281.307C502.042 282.362 500.792 283.129 499.374 283.494Z" fill="url(#paint27_linear_556_30)"/>
<path d="M561.453 283.232C560.311 283.538 559.095 283.538 557.953 283.232C556.534 282.866 555.284 282.099 554.388 281.045C555.527 280.724 556.748 280.724 557.888 281.045C559.319 281.386 560.577 282.158 561.453 283.232Z" fill="url(#paint28_linear_556_30)"/>
<path d="M554.355 271.248C554.679 272.455 554.693 273.713 554.395 274.925C554.098 276.138 553.496 277.274 552.637 278.246C552.282 277.017 552.252 275.731 552.55 274.49C552.849 273.249 553.467 272.088 554.355 271.102V271.248Z" fill="url(#paint29_linear_556_30)"/>
<path d="M568.811 271.772C570.09 271.674 571.371 271.939 572.473 272.531C571.454 273.37 570.155 273.883 568.778 273.989C567.499 274.091 566.216 273.826 565.116 273.23C566.109 272.435 567.357 271.945 568.681 271.831L568.811 271.772Z" fill="url(#paint30_linear_556_30)"/>
<path d="M561.284 267.284C561.382 268.48 561.768 269.643 562.415 270.69C562.905 269.574 563.119 268.376 563.044 267.177C562.965 265.935 562.577 264.725 561.907 263.637C561.396 264.795 561.183 266.042 561.284 267.284Z" fill="url(#paint31_linear_556_30)"/>
<path d="M575.876 259.147C576.892 258.737 578.013 258.586 579.118 258.709C578.408 259.966 577.273 260.987 575.876 261.625C574.865 262.049 573.745 262.22 572.635 262.121C573.298 260.859 574.387 259.818 575.747 259.147H575.876Z" fill="url(#paint32_linear_556_30)"/>
<path d="M566.347 254.015C567.385 254.834 568.188 255.866 568.69 257.023C569.192 258.18 569.378 259.428 569.232 260.663C568.182 259.848 567.361 258.82 566.837 257.665C566.313 256.509 566.101 255.258 566.218 254.015H566.347Z" fill="url(#paint33_linear_556_30)"/>
<path d="M575.487 248.591C575.682 247.322 576.306 246.138 577.274 245.199C578.242 244.26 579.508 243.612 580.9 243.343C580.753 244.622 580.175 245.831 579.242 246.805C578.309 247.78 577.067 248.475 575.682 248.795L575.487 248.591Z" fill="url(#paint34_linear_556_30)"/>
<path d="M567.093 243.343C568.502 243.646 569.772 244.336 570.725 245.319C571.678 246.302 572.266 247.527 572.408 248.824C570.977 248.539 569.681 247.856 568.704 246.872C567.728 245.889 567.118 244.654 566.963 243.343H567.093Z" fill="url(#paint35_linear_556_30)"/>
<path d="M574.418 235.149C574.275 233.914 574.462 232.666 574.964 231.51C575.465 230.353 576.267 229.322 577.302 228.501C577.435 229.735 577.243 230.98 576.742 232.135C576.241 233.289 575.445 234.322 574.418 235.149Z" fill="url(#paint36_linear_556_30)"/>
<path d="M567.676 235.995C566.292 235.341 565.162 234.324 564.435 233.079C565.543 232.965 566.664 233.126 567.676 233.545C569.07 234.187 570.204 235.207 570.917 236.461C569.81 236.578 568.688 236.417 567.676 235.995Z" fill="url(#paint37_linear_556_30)"/>
<path d="M568.357 222.844C567.846 221.681 567.633 220.43 567.734 219.183C567.835 217.936 568.247 216.725 568.94 215.642C569.449 216.805 569.661 218.056 569.56 219.303C569.459 220.549 569.048 221.76 568.357 222.844Z" fill="url(#paint38_linear_556_30)"/>
<path d="M562.069 226.081C560.702 225.973 559.414 225.46 558.407 224.623C559.5 224.011 560.789 223.745 562.069 223.865C563.446 223.97 564.745 224.483 565.764 225.322C564.643 225.894 563.352 226.139 562.069 226.022V226.081Z" fill="url(#paint39_linear_556_30)"/>
<path d="M553.48 218.82C552.329 219.141 551.098 219.141 549.947 218.82C550.793 217.664 552.068 216.817 553.545 216.429C554.682 216.093 555.908 216.093 557.045 216.429C556.185 217.536 554.925 218.339 553.48 218.703V218.82Z" fill="url(#paint40_linear_556_30)"/>
<path d="M549.072 210.597C549.97 210.486 550.884 210.545 551.755 210.771C552.626 210.997 553.434 211.385 554.128 211.909C554.307 212.441 554.535 212.958 554.809 213.455C554.43 213.444 554.05 213.464 553.675 213.513C552.702 213.398 551.776 213.073 550.974 212.565C550.173 212.057 549.52 211.382 549.072 210.597Z" fill="url(#paint41_linear_556_30)"/>
<path d="M558.666 213.513C557.799 212.545 557.191 211.41 556.887 210.197C556.584 208.984 556.593 207.724 556.916 206.515C557.789 207.48 558.402 208.615 558.705 209.829C559.009 211.043 558.996 212.304 558.666 213.513Z" fill="url(#paint42_linear_556_30)"/>
<path d="M535.951 209.807L536.162 213.359C536.193 213.876 535.874 214.356 535.204 214.798C534.535 215.24 533.621 215.59 532.461 215.849C531.301 216.107 530.045 216.237 528.69 216.237C527.336 216.237 526.079 216.107 524.92 215.849C523.76 215.59 522.846 215.24 522.176 214.798C521.507 214.356 521.188 213.876 521.219 213.359L521.429 209.807L528.13 211.842C528.301 211.894 528.488 211.921 528.69 211.921C528.893 211.921 529.08 211.894 529.251 211.842L535.951 209.807ZM542.139 206.166C542.139 206.338 542.053 206.454 541.882 206.514L528.807 210.471C528.776 210.478 528.737 210.482 528.69 210.482C528.644 210.482 528.605 210.478 528.574 210.471L520.962 208.155C520.628 208.41 520.351 208.828 520.134 209.408C519.916 209.989 519.783 210.658 519.737 211.415C520.227 211.685 520.472 212.093 520.472 212.64C520.472 213.157 520.246 213.558 519.795 213.843L520.472 218.709C520.488 218.814 520.456 218.908 520.379 218.99C520.309 219.073 520.215 219.114 520.098 219.114H517.857C517.74 219.114 517.647 219.073 517.577 218.99C517.499 218.908 517.468 218.814 517.484 218.709L518.161 213.843C517.709 213.558 517.484 213.157 517.484 212.64C517.484 212.093 517.736 211.677 518.242 211.392C518.328 209.841 518.709 208.605 519.386 207.683L515.499 206.514C515.328 206.454 515.242 206.338 515.242 206.166C515.242 205.993 515.328 205.877 515.499 205.817L528.574 201.861C528.605 201.853 528.644 201.85 528.69 201.85C528.737 201.85 528.776 201.853 528.807 201.861L541.882 205.817C542.053 205.877 542.139 205.993 542.139 206.166Z" fill="url(#paint43_linear_556_30)"/>
<path d="M521.918 236.475V262.099H515.454V242.255H515.297L509.305 245.759V240.404L515.912 236.475H521.918Z" fill="url(#paint44_linear_556_30)"/>
<path d="M538.884 240.266L534.946 240.554C534.894 240.278 534.702 240.003 534.37 239.728C534.039 239.453 533.568 239.315 532.957 239.315C532.521 239.315 532.124 239.394 531.767 239.553C531.409 239.711 531.23 239.932 531.23 240.216C531.23 240.458 531.339 240.645 531.557 240.779C531.784 240.912 532.177 241.037 532.735 241.154L535.208 241.605C536.446 241.838 537.432 242.23 538.165 242.781C538.906 243.323 539.277 244.12 539.277 245.171C539.277 246.038 539.002 246.801 538.452 247.46C537.903 248.111 537.153 248.62 536.202 248.987C535.251 249.354 534.174 249.537 532.97 249.537C531.112 249.537 529.625 249.174 528.509 248.449C527.392 247.715 526.751 246.722 526.585 245.471L530.864 245.196C530.951 245.638 531.186 245.967 531.57 246.184C531.954 246.393 532.421 246.497 532.97 246.497C533.502 246.497 533.943 246.413 534.292 246.247C534.641 246.071 534.815 245.85 534.815 245.583C534.815 245.35 534.689 245.158 534.436 245.008C534.183 244.858 533.812 244.741 533.324 244.658L530.955 244.207C529.577 243.957 528.561 243.519 527.907 242.893C527.253 242.268 526.925 241.455 526.925 240.454C526.925 239.177 527.471 238.172 528.561 237.438C529.66 236.696 531.108 236.325 532.905 236.325C534.771 236.325 536.202 236.696 537.196 237.438C538.199 238.181 538.762 239.123 538.884 240.266Z" fill="url(#paint45_linear_556_30)"/>
<path d="M549.06 236.475V239.603H540.359V236.475H549.06ZM542.204 233.422H546.574V245.008C546.574 245.442 546.653 245.721 546.81 245.846C546.967 245.971 547.202 246.034 547.516 246.034C547.7 246.034 547.883 246.021 548.066 245.996C548.258 245.963 548.389 245.942 548.458 245.934L549.139 249.062C548.903 249.137 548.607 249.208 548.249 249.274C547.9 249.333 547.464 249.375 546.941 249.4C545.536 249.441 544.394 249.17 543.513 248.586C542.64 247.994 542.204 247.01 542.204 245.634V233.422Z" fill="url(#paint46_linear_556_30)"/>
<path d="M55.5523 413.426H46.8994V496.625H116.123V490.452" stroke="url(#paint47_linear_556_30)" stroke-width="20"/>
<path d="M64.3499 406.447H55.5527V489.647H124.776V480.522" stroke="url(#paint48_linear_556_30)" stroke-width="20"/>
<path d="M72.6191 408.664H115.877L121.843 416.077V471.863H72.6191V408.664Z" stroke="url(#paint49_linear_556_30)" stroke-width="20"/>
<line x1="78.3389" y1="408.525" x2="116.123" y2="408.525" stroke="url(#paint50_linear_556_30)" stroke-width="20"/>
<line x1="78.3389" y1="419.26" x2="116.123" y2="419.26" stroke="url(#paint51_linear_556_30)" stroke-width="20"/>
<line x1="78.3389" y1="429.996" x2="116.123" y2="429.996" stroke="url(#paint52_linear_556_30)" stroke-width="20"/>
<line x1="78.3389" y1="441" x2="116.123" y2="441" stroke="url(#paint53_linear_556_30)" stroke-width="20"/>
<line x1="78.3389" y1="452.004" x2="116.123" y2="452.004" stroke="url(#paint54_linear_556_30)" stroke-width="20"/>
<path fill-rule="evenodd" clip-rule="evenodd" d="M140.105 402.142C139.978 402.254 139.876 402.388 139.807 402.537C139.737 402.686 139.7 402.847 139.699 403.009C139.7 403.083 139.731 403.147 139.745 403.217L139.745 407.9L138.454 407.9C138.378 407.887 138.309 407.858 138.23 407.858C138.056 407.859 137.884 407.893 137.724 407.957C137.564 408.022 137.419 408.116 137.3 408.235C137.172 408.346 137.071 408.48 137.001 408.629C136.931 408.778 136.895 408.939 136.894 409.102C136.894 409.175 136.925 409.239 136.939 409.31L136.937 464.524C136.834 464.81 136.848 465.122 136.977 465.398L142.548 477.275C142.575 477.351 142.609 477.425 142.651 477.495L142.658 477.509C142.662 477.519 142.673 477.525 142.676 477.534C142.793 477.747 142.977 477.921 143.205 478.033C143.229 478.045 143.243 478.065 143.27 478.077C143.28 478.081 143.291 478.08 143.301 478.084C143.415 478.129 143.535 478.158 143.658 478.17C143.72 478.18 143.782 478.194 143.844 478.194C143.906 478.194 143.967 478.18 144.03 478.17C144.153 478.158 144.273 478.129 144.386 478.084C144.398 478.08 144.408 478.081 144.418 478.077C144.444 478.066 144.459 478.045 144.484 478.032C144.595 477.976 144.696 477.906 144.785 477.823C144.879 477.736 144.947 477.637 145.011 477.534C145.015 477.523 145.025 477.519 145.029 477.51L145.036 477.494C145.076 477.421 145.114 477.353 145.14 477.275L150.711 465.398C150.84 465.121 150.853 464.81 150.75 464.524L150.748 416.191C151.261 415.941 151.845 415.849 152.417 415.93C152.989 416.01 153.519 416.258 153.929 416.638C154.499 417.168 154.754 417.874 154.714 418.568L154.719 418.569L154.719 424.227H154.713L154.713 436.13C154.723 436.442 154.864 436.739 155.105 436.956C155.346 437.173 155.669 437.295 156.005 437.295C156.341 437.295 156.663 437.173 156.904 436.956C157.145 436.739 157.286 436.442 157.297 436.13L157.296 418.636C157.296 418.606 157.281 418.584 157.278 418.555C157.299 417.888 157.174 417.225 156.909 416.605C156.645 415.985 156.248 415.422 155.741 414.95C154.385 413.688 152.483 413.283 150.747 413.685L150.747 409.309C150.76 409.239 150.791 409.175 150.791 409.102C150.791 408.939 150.755 408.778 150.685 408.629C150.615 408.48 150.513 408.346 150.385 408.235C150.266 408.116 150.122 408.021 149.962 407.956C149.801 407.891 149.628 407.857 149.454 407.857C149.375 407.857 149.306 407.886 149.231 407.899L147.94 407.899L147.94 403.215C147.953 403.146 147.985 403.081 147.985 403.008C147.985 402.846 147.948 402.685 147.878 402.536C147.809 402.387 147.707 402.252 147.579 402.141C147.46 402.022 147.315 401.928 147.155 401.863C146.995 401.798 146.822 401.764 146.647 401.763C146.569 401.763 146.499 401.793 146.425 401.805L141.257 401.805C141.181 401.792 141.113 401.763 141.033 401.763C140.859 401.765 140.687 401.8 140.528 401.865C140.368 401.93 140.225 402.024 140.105 402.142ZM143.842 473.744L140.218 466.016L147.468 466.016L143.842 473.744ZM148.165 410.305L148.164 463.611L139.522 463.611L139.522 410.305L148.165 410.305ZM145.358 404.211L145.358 407.9L142.329 407.9L142.329 404.211L145.358 404.211Z" fill="url(#paint55_linear_556_30)"/>
<path d="M281.711 526.412L289.939 541.352L284.615 544.296L259.494 498.688L258.195 496.33L258.192 496.325L263.521 493.381L271.751 508.325L281.711 526.412Z" fill="url(#paint56_linear_556_30)"/>
<path d="M281.713 526.412H281.711L276.47 516.895L271.75 508.325H271.752C276.562 505.664 282.568 507.263 285.454 511.863C285.561 512.031 285.664 512.204 285.759 512.378C288.511 517.374 286.699 523.655 281.713 526.412Z" fill="url(#paint57_linear_556_30)"/>
<path d="M233.881 566.328L249.044 585.073L237.154 591.645L221.993 572.903L233.881 566.328Z" fill="url(#paint58_linear_556_30)"/>
<path d="M235.663 562.089C236.422 563.467 235.922 565.202 234.547 565.962L233.882 566.329L221.994 572.903L220.749 573.591C219.371 574.351 217.642 573.849 216.883 572.473L215.442 569.856L219.179 567.792L230.487 561.539L234.224 559.475L235.663 562.089Z" fill="url(#paint59_linear_556_30)"/>
<path d="M206.902 565.827L199.983 569.653L195.819 562.092L191.661 554.543L198.581 550.719L202.717 558.226L206.902 565.827Z" fill="url(#paint60_linear_556_30)"/>
<path d="M224.2 546.188L224.557 545.991L224.2 546.188ZM224.2 546.188L223.75 545.37L224.2 546.188Z" fill="url(#paint61_linear_556_30)" stroke="url(#paint62_linear_556_30)" stroke-width="15"/>
<path d="M237.301 532.858L256.031 513.132L262.4 524.697L262.4 524.697L269.276 537.183L242.634 542.541L239.857 537.499L239.856 537.497L237.301 532.858Z" stroke="url(#paint63_linear_556_30)" stroke-width="20"/>
<path d="M291.784 479.955V480.851L293.543 479.955H295.943H295.992H296.04H296.089H296.138H296.187H296.236H296.285H296.334H296.383H296.432H296.481H296.53H296.579H296.628H296.677H296.726H296.775H296.824H296.873H296.922H296.971H297.021H297.07H297.119H297.168H297.217H297.267H297.316H297.365H297.415H297.464H297.513H297.563H297.612H297.662H297.711H297.76H297.81H297.859H297.909H297.958H298.008H298.057H298.107H298.156H298.206H298.256H298.305H298.355H298.405H298.454H298.504H298.554H298.603H298.653H298.703H298.752H298.802H298.852H298.902H298.951H299.001H299.051H299.101H299.151H299.201H299.251H299.3H299.35H299.4H299.45H299.5H299.55H299.6H299.65H299.7H299.75H299.8H299.85H299.9H299.95H300H300.05H300.1H300.15H300.2H300.251H300.301H300.351H300.401H300.451H300.501H300.551H300.602H300.652H300.702H300.752H300.802H300.853H300.903H300.953H301.003H301.054H301.104H301.154H301.205H301.255H301.305H301.356H301.406H301.456H301.507H301.557H301.607H301.658H301.708H301.758H301.809H301.859H301.91H301.96H302.01H302.061H302.111H302.162H302.212H302.263H302.313H302.364H302.414H302.465H302.515H302.566H302.616H302.667H302.717H302.768H302.818H302.869H302.919H302.97H303.02H303.071H303.121H303.172H303.222H303.273H303.324H303.374H303.425H303.475H303.526H303.576H303.627H303.678H303.728H303.779H303.829H303.88H303.931H303.981H304.032H304.083H304.133H304.184H304.234H304.285H304.336H304.386H304.437H304.488H304.538H304.589H304.64H304.69H304.741H304.791H304.842H304.893H304.943H304.994H305.045H305.095H305.146H305.197H305.247H305.298H305.349H305.399H305.45H305.501H305.551H305.602H305.653H305.703H305.754H305.805H305.855H305.906H305.956H306.007H306.058H306.108H306.159H306.21H306.26H306.311H306.362H306.412H306.463H306.513H306.564H306.615H306.665H306.716H306.767H306.817H306.868H306.918H306.969H307.02H307.07H307.121H307.171H307.222H307.273H307.323H307.374H307.424H307.475H307.525H307.576H307.626H307.677H307.728H307.778H307.829H307.879H307.93H307.98H308.031H308.081H308.132H308.182H308.233H308.283H308.334H308.384H308.434H308.485H308.535H308.586H308.636H308.687H308.737H308.787H308.838H308.888H308.939H308.989H309.039H309.09H309.14H309.191H309.241H309.291H309.341H309.392H309.442H309.492H309.543H309.593H309.643H309.694H309.744H309.794H309.844H309.894H309.945H309.995H310.045H310.095H310.145H310.196H310.246H310.296H310.346H310.396H310.446H310.496H310.546H310.597H310.647H310.697H310.747H310.797H310.847H310.897H310.947H310.997H311.047H311.097H311.147H311.197H311.247H311.296H311.346H311.396H311.446H311.496H311.546H311.596H311.645H311.695H311.745H311.795H311.845H311.894H311.944H311.994H312.044H312.093H312.143H312.193H312.242H312.292H312.342H312.391H312.441H312.49H312.54H312.589H312.639H312.689H312.738H312.788H312.837H312.886H312.936H312.985H313.035H313.084H313.134H313.183H313.232H313.282H313.331H313.38H313.429H313.479H313.528H313.577H313.626H313.676H313.725H313.774H313.823H313.872H313.921H313.97H314.019H314.068H314.117H314.166H314.215H314.264H314.313H314.362H314.411H314.46H314.509H314.558H314.607H314.655H314.704H314.753H314.802H314.851H314.899H314.948H314.997H315.045H315.094H315.143H315.191H315.24H315.288H315.337H315.385H315.434H315.482H315.531H315.579H315.627H315.676H315.724H315.773H315.821H315.869H315.917H315.966H316.014H316.062H316.11H316.158H316.206H316.255H316.303H316.351H316.399H316.447H316.495H316.543H316.591H316.639H316.686H316.734H316.782H316.83H316.878H316.925H316.973H317.021H317.069H317.116H317.164H317.212H317.259H317.307H317.354H317.402H317.449H317.497H317.544H317.592H317.639H317.686H317.734H317.781H317.828H317.875H317.923H317.97H318.017H318.064H318.111H318.158H318.205H318.252H318.299H318.346H318.393H318.44H318.487H318.534H318.581H318.628H318.674H318.721H318.768H318.815H318.861H318.908H318.955H319.001H319.048H319.094H319.141H319.187H319.233H319.28H319.326H319.373H319.419H319.465H319.511H319.558H319.604H319.65H319.696H319.742H319.788H319.834H319.88H319.926H319.972H320.018H320.064H320.11H320.155H320.201H320.247H320.293H320.338H320.384H320.43H320.475H320.521H320.566H320.612H320.657H320.703H320.748H320.793H320.839H320.884H320.929H320.974H321.019H321.065H321.11L321.152 479.955L321.152 466.678L284.068 466.678V479.955H291.784Z" stroke="url(#paint64_linear_556_30)" stroke-width="20"/>
<path d="M311.633 483.403L310.065 531.846H296.054L294.485 483.403H311.633ZM303.042 554.209C300.61 554.209 298.52 553.346 296.77 551.618C295.042 549.891 294.179 547.8 294.179 545.346C294.179 542.937 295.042 540.88 296.77 539.175C298.52 537.448 300.61 536.584 303.042 536.584C305.383 536.584 307.44 537.448 309.213 539.175C311.008 540.88 311.906 542.937 311.906 545.346C311.906 546.982 311.485 548.471 310.645 549.812C309.826 551.153 308.747 552.221 307.406 553.016C306.088 553.812 304.633 554.209 303.042 554.209ZM311.633 599.403L310.065 647.846H296.054L294.485 599.403H311.633ZM303.042 670.209C300.61 670.209 298.52 669.346 296.77 667.618C295.042 665.891 294.179 663.8 294.179 661.346C294.179 658.937 295.042 656.88 296.77 655.175C298.52 653.448 300.61 652.584 303.042 652.584C305.383 652.584 307.44 653.448 309.213 655.175C311.008 656.88 311.906 658.937 311.906 661.346C311.906 662.982 311.485 664.471 310.645 665.812C309.826 667.153 308.747 668.221 307.406 669.016C306.088 669.812 304.633 670.209 303.042 670.209ZM311.633 715.403L310.065 763.846H296.054L294.485 715.403H311.633ZM303.042 786.209C300.61 786.209 298.52 785.346 296.77 783.618C295.042 781.891 294.179 779.8 294.179 777.346C294.179 774.937 295.042 772.88 296.77 771.175C298.52 769.448 300.61 768.584 303.042 768.584C305.383 768.584 307.44 769.448 309.213 771.175C311.008 772.88 311.906 774.937 311.906 777.346C311.906 778.982 311.485 780.471 310.645 781.812C309.826 783.153 308.747 784.221 307.406 785.016C306.088 785.812 304.633 786.209 303.042 786.209Z" fill="url(#paint65_linear_556_30)"/>
<mask id="path-33-inside-1_556_30" fill="white">
<rect x="301.73" y="285.514" width="135.911" height="78.2993" rx="15"/>
</mask>
<rect x="301.73" y="285.514" width="135.911" height="78.2993" rx="15" stroke="url(#paint66_linear_556_30)" stroke-width="60" mask="url(#path-33-inside-1_556_30)"/>
<path d="M337.718 384.665C337.718 375.132 345.445 367.404 354.978 367.404H384.393C393.926 367.404 401.653 375.132 401.653 384.665H337.718Z" fill="url(#paint67_linear_556_30)"/>
<path d="M370.068 326.94C374.826 326.94 378.682 323.076 378.682 318.31C378.682 313.543 374.826 309.68 370.068 309.68C365.311 309.68 361.454 313.543 361.454 318.31C361.454 323.076 365.311 326.94 370.068 326.94Z" stroke="url(#paint68_linear_556_30)" stroke-width="10" stroke-linecap="round" stroke-linejoin="round"/>
<path d="M366.623 310.543H367.484C365.805 315.584 365.805 321.036 367.484 326.077H366.623M372.653 310.543C374.333 315.584 374.333 321.036 372.653 326.077" stroke="url(#paint69_linear_556_30)" stroke-width="5" stroke-linecap="round" stroke-linejoin="round"/>
<path d="M362.315 321.762V320.899C367.347 322.582 372.789 322.582 377.821 320.899V321.762M362.315 315.721C367.347 314.038 372.789 314.038 377.821 315.721" stroke="url(#paint70_linear_556_30)" stroke-width="5" stroke-linecap="round" stroke-linejoin="round"/>
<path d="M329.008 326.94H334.177C338.484 326.94 340.207 325.214 340.207 320.899V315.721C340.207 311.406 338.484 309.68 334.177 309.68H329.008C324.701 309.68 322.979 311.406 322.979 315.721V320.899C322.979 325.214 324.701 326.94 329.008 326.94Z" stroke="url(#paint71_linear_556_30)" stroke-width="15" stroke-linecap="round" stroke-linejoin="round"/>
<path d="M331.592 321.33C331.988 321.33 332.38 321.252 332.746 321.1C333.112 320.948 333.444 320.726 333.724 320.445C334.004 320.165 334.226 319.832 334.377 319.466C334.529 319.099 334.607 318.706 334.607 318.31C334.607 317.913 334.529 317.52 334.377 317.154C334.226 316.787 334.004 316.454 333.724 316.174C333.444 315.893 333.112 315.671 332.746 315.519C332.38 315.367 331.988 315.289 331.592 315.289C330.792 315.289 330.026 315.607 329.46 316.174C328.895 316.74 328.577 317.509 328.577 318.31C328.577 319.111 328.895 319.879 329.46 320.445C330.026 321.012 330.792 321.33 331.592 321.33V321.33Z" stroke="url(#paint72_linear_556_30)" stroke-width="5" stroke-linecap="round" stroke-linejoin="round"/>
<path d="M336.447 313.994H336.458" stroke="url(#paint73_linear_556_30)" stroke-width="10" stroke-linecap="round" stroke-linejoin="round"/>
<path d="M408.241 319.405L408.033 319.358L407.822 319.329C405.538 319.012 404.93 317.593 404.93 317.03C404.93 316.671 405.089 316.16 405.701 315.639C406.322 315.109 407.314 314.68 408.544 314.68C409.774 314.68 410.765 315.109 411.386 315.638C411.998 316.16 412.158 316.671 412.158 317.03C412.158 317.241 412.142 317.576 411.535 318.275L411.27 318.581C410.918 318.962 410.399 319.433 409.775 319.941C409.139 319.628 408.557 319.477 408.241 319.405Z" stroke="url(#paint74_linear_556_30)" stroke-width="10"/>
<path d="M406.794 314.817H406.189C406.097 314.817 406.021 314.893 406.021 314.986V318.746C406.021 318.768 406.026 318.79 406.034 318.81C406.043 318.83 406.055 318.849 406.071 318.864C406.086 318.88 406.105 318.892 406.125 318.901C406.145 318.909 406.167 318.913 406.189 318.913H406.794C406.816 318.913 406.837 318.909 406.858 318.901C406.878 318.892 406.896 318.88 406.912 318.864C406.928 318.849 406.94 318.83 406.948 318.81C406.957 318.79 406.961 318.768 406.961 318.746V314.988C406.961 314.895 406.886 314.82 406.794 314.82M410.952 314.817H410.348C410.256 314.817 410.18 314.893 410.18 314.985V317.219L408.458 314.892C408.454 314.886 408.45 314.88 408.445 314.875L408.444 314.874C408.44 314.87 408.437 314.867 408.433 314.864L408.422 314.853C408.42 314.852 408.419 314.851 408.417 314.85L408.409 314.844L408.403 314.84L408.394 314.835C408.393 314.834 408.391 314.833 408.389 314.832C408.386 314.831 408.383 314.829 408.379 314.828C408.376 314.827 408.376 314.826 408.374 314.826C408.371 314.825 408.367 314.824 408.364 314.823L408.358 314.822C408.355 314.821 408.352 314.82 408.349 314.819L408.342 314.818C408.339 314.818 408.336 314.817 408.333 314.817L408.324 314.817C408.322 314.817 408.32 314.816 408.318 314.816H407.714C407.622 314.816 407.546 314.892 407.546 314.984V318.745C407.546 318.767 407.551 318.789 407.559 318.809C407.568 318.829 407.58 318.848 407.596 318.863C407.611 318.879 407.63 318.891 407.65 318.899C407.67 318.908 407.692 318.912 407.714 318.912H408.318C408.411 318.912 408.486 318.837 408.486 318.745V316.512L410.208 318.842C410.22 318.858 410.234 318.872 410.251 318.883C410.256 318.887 410.259 318.889 410.263 318.891C410.264 318.893 410.266 318.894 410.268 318.894C410.269 318.895 410.273 318.897 410.276 318.898C410.278 318.899 410.281 318.9 410.284 318.902L410.3 318.908C410.315 318.912 410.33 318.914 410.345 318.914H410.949C410.971 318.914 410.993 318.909 411.013 318.901C411.034 318.893 411.052 318.88 411.068 318.865C411.083 318.849 411.096 318.831 411.104 318.811C411.113 318.79 411.117 318.768 411.117 318.746V314.988C411.117 314.895 411.042 314.82 410.949 314.82" fill="url(#paint75_linear_556_30)"/>
<path d="M405.337 317.972H403.695V314.988C403.695 314.896 403.62 314.82 403.528 314.82H402.924C402.831 314.82 402.756 314.896 402.756 314.988V318.748C402.756 318.792 402.773 318.833 402.803 318.865C402.806 318.868 402.806 318.869 402.807 318.869C402.837 318.898 402.878 318.916 402.923 318.916H405.337C405.429 318.916 405.505 318.841 405.505 318.748V318.143C405.505 318.05 405.43 317.975 405.337 317.975M414.29 315.76C414.382 315.76 414.457 315.684 414.457 315.592V314.988C414.457 314.896 414.382 314.82 414.29 314.82H411.875C411.83 314.82 411.789 314.838 411.759 314.868C411.756 314.87 411.755 314.872 411.754 314.873C411.726 314.9 411.708 314.943 411.708 314.989V318.749C411.708 318.792 411.725 318.834 411.755 318.865L411.759 318.869C411.79 318.9 411.832 318.916 411.875 318.916H414.289C414.382 318.916 414.457 318.841 414.457 318.748V318.143C414.457 318.05 414.382 317.975 414.289 317.975H412.647V317.339H414.289C414.311 317.339 414.333 317.335 414.353 317.326C414.374 317.318 414.392 317.306 414.408 317.29C414.423 317.274 414.436 317.256 414.444 317.235C414.453 317.215 414.457 317.193 414.457 317.171V316.563C414.457 316.471 414.382 316.395 414.289 316.395H412.647V315.76H414.289H414.29Z" fill="url(#paint76_linear_556_30)"/>
<path d="M331.497 331.445V345.829H370.021M408.545 331.445V345.829H370.021M370.021 345.829V331.445" stroke="url(#paint77_linear_556_30)" stroke-width="8" stroke-dasharray="10 10"/>
<mask id="path-45-inside-2_556_30" fill="white">
<ellipse cx="493.698" cy="451.875" rx="13.9429" ry="13.9689"/>
</mask>
<path d="M492.641 451.875C492.641 451.332 493.088 450.844 493.698 450.844V480.844C509.709 480.844 522.641 467.848 522.641 451.875H492.641ZM493.698 450.844C494.308 450.844 494.755 451.332 494.755 451.875H464.755C464.755 467.848 477.687 480.844 493.698 480.844V450.844ZM494.755 451.875C494.755 452.418 494.308 452.906 493.698 452.906V422.906C477.687 422.906 464.755 435.902 464.755 451.875H494.755ZM493.698 452.906C493.088 452.906 492.641 452.418 492.641 451.875H522.641C522.641 435.902 509.709 422.906 493.698 422.906V452.906Z" fill="url(#paint78_linear_556_30)" mask="url(#path-45-inside-2_556_30)"/>
<mask id="path-47-inside-3_556_30" fill="white">
<ellipse cx="531.918" cy="481.785" rx="20.5043" ry="20.5426"/>
</mask>
<path d="M517.423 481.785C517.423 473.862 523.851 467.327 531.918 467.327V537.327C562.634 537.327 587.423 512.398 587.423 481.785H517.423ZM531.918 467.327C539.986 467.327 546.414 473.862 546.414 481.785H476.414C476.414 512.398 501.203 537.327 531.918 537.327V467.327ZM546.414 481.785C546.414 489.708 539.986 496.242 531.918 496.242V426.242C501.203 426.242 476.414 451.171 476.414 481.785H546.414ZM531.918 496.242C523.851 496.242 517.423 489.708 517.423 481.785H587.423C587.423 451.171 562.634 426.242 531.918 426.242V496.242Z" fill="url(#paint79_linear_556_30)" mask="url(#path-47-inside-3_556_30)"/>
<mask id="path-49-inside-4_556_30" fill="white">
<path d="M572.926 549.657C572.926 538.761 568.606 528.31 560.915 520.606C553.225 512.901 542.794 508.572 531.918 508.572C521.042 508.572 510.611 512.901 502.92 520.606C495.23 528.31 490.909 538.761 490.909 549.657L531.918 549.657H572.926Z"/>
</mask>
<path d="M572.926 549.657C572.926 538.761 568.606 528.31 560.915 520.606C553.225 512.901 542.794 508.572 531.918 508.572C521.042 508.572 510.611 512.901 502.92 520.606C495.23 528.31 490.909 538.761 490.909 549.657L531.918 549.657H572.926Z" stroke="url(#paint80_linear_556_30)" stroke-width="70" mask="url(#path-49-inside-4_556_30)"/>
<g clip-path="url(#clip0_556_30)">
<path d="M517.976 441.108V438.649C517.976 437.196 519.161 435.995 520.625 435.995C523.148 435.995 524.18 434.207 522.911 432.014C522.186 430.757 522.619 429.122 523.887 428.396L526.3 427.013C527.401 426.357 528.823 426.748 529.478 427.851L529.632 428.117C530.887 430.31 532.95 430.31 534.219 428.117L534.372 427.851C535.028 426.748 536.45 426.357 537.551 427.013L539.964 428.396C541.232 429.122 541.665 430.757 540.94 432.014C539.671 434.207 540.703 435.995 543.226 435.995C544.676 435.995 545.875 437.182 545.875 438.649V441.108C545.875 442.561 544.69 443.762 543.226 443.762C540.703 443.762 539.671 445.55 540.94 447.743C541.665 449.014 541.232 450.635 539.964 451.361L537.551 452.744C536.45 453.4 535.028 453.009 534.372 451.906L534.219 451.64C532.964 449.447 530.901 449.447 529.632 451.64L529.478 451.906C528.823 453.009 527.401 453.4 526.3 452.744L523.887 451.361C523.28 451.01 522.835 450.433 522.653 449.754C522.47 449.076 522.563 448.353 522.911 447.743C524.18 445.55 523.148 443.762 520.625 443.762C519.161 443.762 517.976 442.561 517.976 441.108V441.108Z" stroke="url(#paint81_linear_556_30)" stroke-width="15" stroke-miterlimit="10" stroke-linecap="round" stroke-linejoin="round"/>
<path d="M531.918 447.212C533.859 447.212 535.721 446.44 537.094 445.064C538.466 443.689 539.238 441.824 539.238 439.879C539.238 437.934 538.466 436.068 537.094 434.693C535.721 433.318 533.859 432.545 531.918 432.545C529.976 432.545 528.114 433.318 526.742 434.693C525.369 436.068 524.598 437.934 524.598 439.879C524.598 441.824 525.369 443.689 526.742 445.064C528.114 446.44 529.976 447.212 531.918 447.212V447.212Z" stroke="url(#paint82_linear_556_30)" stroke-width="5" stroke-miterlimit="10" stroke-linecap="round" stroke-linejoin="round"/>
<path d="M532.053 445.137V444.699H533.573V441.627C534.782 440.977 535.527 439.731 535.527 438.344C535.527 436.29 533.871 434.619 531.836 434.619C529.801 434.619 528.146 436.29 528.146 438.344C528.146 439.731 528.891 440.977 530.099 441.627V444.699H531.619V445.137H532.053ZM530.412 441.296C529.282 440.74 528.58 439.609 528.58 438.344C528.58 436.532 530.041 435.057 531.836 435.057C533.632 435.057 535.093 436.532 535.093 438.344C535.093 439.609 534.391 440.74 533.261 441.296L533.139 441.356V443.165H532.053V438.654L533.075 437.623L532.768 437.313L531.836 438.253L530.904 437.313L530.597 437.623L531.619 438.654V443.165H530.534V441.356L530.412 441.296ZM530.534 443.603H533.139V444.26H530.534V443.603Z" fill="url(#paint83_linear_556_30)"/>
</g>
<path d="M565.672 450.628L570.138 447.385L574.604 450.628L572.908 455.866H567.384L565.672 450.628ZM570.138 437.906C572.026 437.906 573.831 438.275 575.554 439.013C577.276 439.751 578.759 440.744 580.004 441.991C581.249 443.238 582.24 444.724 582.976 446.45C583.713 448.175 584.081 449.984 584.081 451.875C584.081 453.767 583.713 455.575 582.976 457.301C582.24 459.026 581.249 460.512 580.004 461.759C578.759 463.007 577.276 463.999 575.554 464.737C573.831 465.475 572.026 465.844 570.138 465.844C568.25 465.844 566.445 465.475 564.723 464.737C563.001 463.999 561.517 463.007 560.272 461.759C559.027 460.512 558.037 459.026 557.3 457.301C556.564 455.575 556.195 453.767 556.195 451.875C556.195 449.984 556.564 448.175 557.3 446.45C558.037 444.724 559.027 443.238 560.272 441.991C561.517 440.744 563.001 439.751 564.723 439.013C566.445 438.275 568.25 437.906 570.138 437.906ZM579.771 458.953C581.316 456.843 582.089 454.484 582.089 451.875V451.828L580.502 453.216L576.767 449.724L577.748 444.688L579.833 444.875C578.277 442.734 576.259 441.269 573.78 440.479L574.604 442.412L570.138 444.891L565.672 442.412L566.497 440.479C564.017 441.269 562 442.734 560.444 444.875L562.544 444.688L563.509 449.724L559.774 453.216L558.187 451.828V451.875C558.187 454.484 558.96 456.843 560.506 458.953L560.973 456.895L566.046 457.519L568.209 462.165L566.404 463.241C567.617 463.646 568.862 463.849 570.138 463.849C571.414 463.849 572.659 463.646 573.873 463.241L572.068 462.165L574.231 457.519L579.304 456.895L579.771 458.953Z" fill="url(#paint84_linear_556_30)"/>
<path d="M495.113 443.92C494.94 443.93 494.777 444.007 494.658 444.133C494.538 444.26 494.472 444.427 494.472 444.601V450.097H493.275C492.711 450.097 492.173 450.555 492.074 451.12C491.974 451.685 492.351 452.143 492.915 452.143H493.936C494.5 452.143 495.038 451.685 495.137 451.12C495.147 451.062 495.149 451.006 495.15 450.95L495.153 450.95V446.32C495.153 446.234 495.186 446.152 495.244 446.089C495.302 446.025 495.382 445.987 495.467 445.98L499.212 445.692C499.259 445.688 499.306 445.694 499.35 445.71C499.394 445.725 499.435 445.749 499.469 445.781C499.504 445.813 499.531 445.852 499.55 445.895C499.569 445.938 499.579 445.985 499.579 446.032V449.074H498.381C497.817 449.074 497.279 449.532 497.18 450.097C497.08 450.662 497.457 451.12 498.021 451.12H499.042C499.606 451.12 500.144 450.662 500.243 450.097C500.254 450.039 500.256 449.983 500.256 449.927L500.259 449.926V444.34C500.259 444.247 500.24 444.156 500.204 444.07C500.167 443.985 500.113 443.908 500.046 443.844C499.978 443.78 499.898 443.731 499.811 443.699C499.724 443.668 499.631 443.654 499.539 443.659L495.113 443.92Z" fill="url(#paint85_linear_556_30)"/>
<path d="M486.579 458.422C486.704 458.422 486.829 458.41 486.952 458.384L487.874 458.197C487.951 458.181 488.029 458.181 488.106 458.196C488.182 458.211 488.255 458.241 488.319 458.285C488.384 458.329 488.44 458.385 488.483 458.451C488.526 458.517 488.556 458.59 488.572 458.668C488.633 458.982 488.777 459.274 488.989 459.511C489.2 459.749 489.471 459.923 489.773 460.016C490.074 460.109 490.395 460.117 490.701 460.039C491.006 459.961 491.285 459.8 491.508 459.573L491.553 459.527C491.973 459.1 492.307 458.593 492.534 458.035C492.762 457.477 492.878 456.879 492.877 456.274V456.045C492.877 454.939 492.445 453.878 491.676 453.096C490.907 452.314 489.864 451.875 488.777 451.875C487.689 451.875 486.646 452.314 485.877 453.096C485.108 453.878 484.676 454.939 484.676 456.045V456.487C484.676 457 484.876 457.492 485.233 457.855C485.59 458.218 486.074 458.422 486.579 458.422ZM490.827 458.005H490.007V457.171H490.827V458.005ZM491.237 455.503V456.337H490.417V455.503H491.237ZM489.597 453.835H490.417V454.669H489.597V453.835ZM487.546 453.418H488.367V454.252H487.546V453.418ZM486.316 455.086H487.136V455.92H486.316V455.086Z" fill="url(#paint86_linear_556_30)"/>
<defs>
<radialGradient id="paint0_radial_556_30" cx="0" cy="0" r="1" gradientUnits="userSpaceOnUse" gradientTransform="translate(332.001 332.5) rotate(43.5506) scale(380.989 381.163)">
<stop stop-color="#626262"/>
<stop offset="1" stop-color="white" stop-opacity="0"/>
</radialGradient>
<linearGradient id="paint1_linear_556_30" x1="414.912" y1="96.5059" x2="414.912" y2="171.305" gradientUnits="userSpaceOnUse">
<stop stop-color="#9E6FFB"/>
<stop offset="1" stop-color="#7446AC" stop-opacity="0.38"/>
</linearGradient>
<linearGradient id="paint2_linear_556_30" x1="418.881" y1="113.664" x2="418.881" y2="153.07" gradientUnits="userSpaceOnUse">
<stop stop-color="#9E6FFB"/>
<stop offset="1" stop-color="#7446AC" stop-opacity="0.38"/>
</linearGradient>
<linearGradient id="paint3_linear_556_30" x1="398.779" y1="150.506" x2="398.779" y2="168.385" gradientUnits="userSpaceOnUse">
<stop stop-color="#9E6FFB"/>
<stop offset="1" stop-color="#4D455D" stop-opacity="0.27"/>
</linearGradient>
<linearGradient id="paint4_linear_556_30" x1="412.982" y1="136.422" x2="412.982" y2="168.385" gradientUnits="userSpaceOnUse">
<stop stop-color="#9E6FFB"/>
<stop offset="1" stop-color="#4D455D" stop-opacity="0.27"/>
</linearGradient>
<linearGradient id="paint5_linear_556_30" x1="441.243" y1="136.861" x2="441.243" y2="168.532" gradientUnits="userSpaceOnUse">
<stop stop-color="#9E6FFB"/>
<stop offset="1" stop-color="#4D455D" stop-opacity="0.27"/>
</linearGradient>
<linearGradient id="paint6_linear_556_30" x1="427.149" y1="142.771" x2="427.149" y2="168.386" gradientUnits="userSpaceOnUse">
<stop stop-color="#9E6FFB"/>
<stop offset="1" stop-color="#4D455D" stop-opacity="0.27"/>
</linearGradient>
<linearGradient id="paint7_linear_556_30" x1="398.742" y1="100.811" x2="398.742" y2="117.96" gradientUnits="userSpaceOnUse">
<stop stop-color="#9E6FFB"/>
<stop offset="1" stop-color="#4D455D" stop-opacity="0.27"/>
</linearGradient>
<linearGradient id="paint8_linear_556_30" x1="398.742" y1="100.811" x2="398.742" y2="117.96" gradientUnits="userSpaceOnUse">
<stop stop-color="#9E6FFB"/>
<stop offset="1" stop-color="#4D455D" stop-opacity="0.27"/>
</linearGradient>
<linearGradient id="paint9_linear_556_30" x1="398.778" y1="93.7324" x2="398.778" y2="122.339" gradientUnits="userSpaceOnUse">
<stop stop-color="#9E6FFB"/>
<stop offset="1" stop-color="#7446AC" stop-opacity="0.38"/>
</linearGradient>
<linearGradient id="paint10_linear_556_30" x1="392.703" y1="123.269" x2="387.963" y2="133.895" gradientUnits="userSpaceOnUse">
<stop stop-color="#9E6FFB"/>
<stop offset="1" stop-color="#7446AC" stop-opacity="0.38"/>
</linearGradient>
<linearGradient id="paint11_linear_556_30" x1="444.302" y1="94.9004" x2="444.302" y2="108.547" gradientUnits="userSpaceOnUse">
<stop stop-color="#9E6FFB"/>
<stop offset="1" stop-color="#7446AC" stop-opacity="0.38"/>
</linearGradient>
<linearGradient id="paint12_linear_556_30" x1="528.599" y1="201.85" x2="528.599" y2="296.98" gradientUnits="userSpaceOnUse">
<stop stop-color="#9E6FFB"/>
<stop offset="1" stop-color="#4D455D" stop-opacity="0.27"/>
</linearGradient>
<linearGradient id="paint13_linear_556_30" x1="528.599" y1="201.85" x2="528.599" y2="296.98" gradientUnits="userSpaceOnUse">
<stop stop-color="#9E6FFB"/>
<stop offset="1" stop-color="#4D455D" stop-opacity="0.27"/>
</linearGradient>
<linearGradient id="paint14_linear_556_30" x1="528.599" y1="201.85" x2="528.599" y2="296.98" gradientUnits="userSpaceOnUse">
<stop stop-color="#9E6FFB"/>
<stop offset="1" stop-color="#4D455D" stop-opacity="0.27"/>
</linearGradient>
<linearGradient id="paint15_linear_556_30" x1="528.599" y1="201.85" x2="528.599" y2="296.98" gradientUnits="userSpaceOnUse">
<stop stop-color="#9E6FFB"/>
<stop offset="1" stop-color="#4D455D" stop-opacity="0.27"/>
</linearGradient>
<linearGradient id="paint16_linear_556_30" x1="528.599" y1="201.85" x2="528.599" y2="296.98" gradientUnits="userSpaceOnUse">
<stop stop-color="#9E6FFB"/>
<stop offset="1" stop-color="#4D455D" stop-opacity="0.27"/>
</linearGradient>
<linearGradient id="paint17_linear_556_30" x1="528.599" y1="201.85" x2="528.599" y2="296.98" gradientUnits="userSpaceOnUse">
<stop stop-color="#9E6FFB"/>
<stop offset="1" stop-color="#4D455D" stop-opacity="0.27"/>
</linearGradient>
<linearGradient id="paint18_linear_556_30" x1="528.599" y1="201.85" x2="528.599" y2="296.98" gradientUnits="userSpaceOnUse">
<stop stop-color="#9E6FFB"/>
<stop offset="1" stop-color="#4D455D" stop-opacity="0.27"/>
</linearGradient>
<linearGradient id="paint19_linear_556_30" x1="528.599" y1="201.85" x2="528.599" y2="296.98" gradientUnits="userSpaceOnUse">
<stop stop-color="#9E6FFB"/>
<stop offset="1" stop-color="#4D455D" stop-opacity="0.27"/>
</linearGradient>
<linearGradient id="paint20_linear_556_30" x1="528.599" y1="201.85" x2="528.599" y2="296.98" gradientUnits="userSpaceOnUse">
<stop stop-color="#9E6FFB"/>
<stop offset="1" stop-color="#4D455D" stop-opacity="0.27"/>
</linearGradient>
<linearGradient id="paint21_linear_556_30" x1="528.599" y1="201.85" x2="528.599" y2="296.98" gradientUnits="userSpaceOnUse">
<stop stop-color="#9E6FFB"/>
<stop offset="1" stop-color="#4D455D" stop-opacity="0.27"/>
</linearGradient>
<linearGradient id="paint22_linear_556_30" x1="528.599" y1="201.85" x2="528.599" y2="296.98" gradientUnits="userSpaceOnUse">
<stop stop-color="#9E6FFB"/>
<stop offset="1" stop-color="#4D455D" stop-opacity="0.27"/>
</linearGradient>
<linearGradient id="paint23_linear_556_30" x1="528.599" y1="201.85" x2="528.599" y2="296.98" gradientUnits="userSpaceOnUse">
<stop stop-color="#9E6FFB"/>
<stop offset="1" stop-color="#4D455D" stop-opacity="0.27"/>
</linearGradient>
<linearGradient id="paint24_linear_556_30" x1="528.599" y1="201.85" x2="528.599" y2="296.98" gradientUnits="userSpaceOnUse">
<stop stop-color="#9E6FFB"/>
<stop offset="1" stop-color="#4D455D" stop-opacity="0.27"/>
</linearGradient>
<linearGradient id="paint25_linear_556_30" x1="528.599" y1="201.85" x2="528.599" y2="296.98" gradientUnits="userSpaceOnUse">
<stop stop-color="#9E6FFB"/>
<stop offset="1" stop-color="#4D455D" stop-opacity="0.27"/>
</linearGradient>
<linearGradient id="paint26_linear_556_30" x1="528.599" y1="201.85" x2="528.599" y2="296.98" gradientUnits="userSpaceOnUse">
<stop stop-color="#9E6FFB"/>
<stop offset="1" stop-color="#4D455D" stop-opacity="0.27"/>
</linearGradient>
<linearGradient id="paint27_linear_556_30" x1="528.599" y1="201.85" x2="528.599" y2="296.98" gradientUnits="userSpaceOnUse">
<stop stop-color="#9E6FFB"/>
<stop offset="1" stop-color="#4D455D" stop-opacity="0.27"/>
</linearGradient>
<linearGradient id="paint28_linear_556_30" x1="528.599" y1="201.85" x2="528.599" y2="296.98" gradientUnits="userSpaceOnUse">
<stop stop-color="#9E6FFB"/>
<stop offset="1" stop-color="#4D455D" stop-opacity="0.27"/>
</linearGradient>
<linearGradient id="paint29_linear_556_30" x1="528.599" y1="201.85" x2="528.599" y2="296.98" gradientUnits="userSpaceOnUse">
<stop stop-color="#9E6FFB"/>
<stop offset="1" stop-color="#4D455D" stop-opacity="0.27"/>
</linearGradient>
<linearGradient id="paint30_linear_556_30" x1="528.599" y1="201.85" x2="528.599" y2="296.98" gradientUnits="userSpaceOnUse">
<stop stop-color="#9E6FFB"/>
<stop offset="1" stop-color="#4D455D" stop-opacity="0.27"/>
</linearGradient>
<linearGradient id="paint31_linear_556_30" x1="528.599" y1="201.85" x2="528.599" y2="296.98" gradientUnits="userSpaceOnUse">
<stop stop-color="#9E6FFB"/>
<stop offset="1" stop-color="#4D455D" stop-opacity="0.27"/>
</linearGradient>
<linearGradient id="paint32_linear_556_30" x1="528.599" y1="201.85" x2="528.599" y2="296.98" gradientUnits="userSpaceOnUse">
<stop stop-color="#9E6FFB"/>
<stop offset="1" stop-color="#4D455D" stop-opacity="0.27"/>
</linearGradient>
<linearGradient id="paint33_linear_556_30" x1="528.599" y1="201.85" x2="528.599" y2="296.98" gradientUnits="userSpaceOnUse">
<stop stop-color="#9E6FFB"/>
<stop offset="1" stop-color="#4D455D" stop-opacity="0.27"/>
</linearGradient>
<linearGradient id="paint34_linear_556_30" x1="528.599" y1="201.85" x2="528.599" y2="296.98" gradientUnits="userSpaceOnUse">
<stop stop-color="#9E6FFB"/>
<stop offset="1" stop-color="#4D455D" stop-opacity="0.27"/>
</linearGradient>
<linearGradient id="paint35_linear_556_30" x1="528.599" y1="201.85" x2="528.599" y2="296.98" gradientUnits="userSpaceOnUse">
<stop stop-color="#9E6FFB"/>
<stop offset="1" stop-color="#4D455D" stop-opacity="0.27"/>
</linearGradient>
<linearGradient id="paint36_linear_556_30" x1="528.599" y1="201.85" x2="528.599" y2="296.98" gradientUnits="userSpaceOnUse">
<stop stop-color="#9E6FFB"/>
<stop offset="1" stop-color="#4D455D" stop-opacity="0.27"/>
</linearGradient>
<linearGradient id="paint37_linear_556_30" x1="528.599" y1="201.85" x2="528.599" y2="296.98" gradientUnits="userSpaceOnUse">
<stop stop-color="#9E6FFB"/>
<stop offset="1" stop-color="#4D455D" stop-opacity="0.27"/>
</linearGradient>
<linearGradient id="paint38_linear_556_30" x1="528.599" y1="201.85" x2="528.599" y2="296.98" gradientUnits="userSpaceOnUse">
<stop stop-color="#9E6FFB"/>
<stop offset="1" stop-color="#4D455D" stop-opacity="0.27"/>
</linearGradient>
<linearGradient id="paint39_linear_556_30" x1="528.599" y1="201.85" x2="528.599" y2="296.98" gradientUnits="userSpaceOnUse">
<stop stop-color="#9E6FFB"/>
<stop offset="1" stop-color="#4D455D" stop-opacity="0.27"/>
</linearGradient>
<linearGradient id="paint40_linear_556_30" x1="528.599" y1="201.85" x2="528.599" y2="296.98" gradientUnits="userSpaceOnUse">
<stop stop-color="#9E6FFB"/>
<stop offset="1" stop-color="#4D455D" stop-opacity="0.27"/>
</linearGradient>
<linearGradient id="paint41_linear_556_30" x1="528.599" y1="201.85" x2="528.599" y2="296.98" gradientUnits="userSpaceOnUse">
<stop stop-color="#9E6FFB"/>
<stop offset="1" stop-color="#4D455D" stop-opacity="0.27"/>
</linearGradient>
<linearGradient id="paint42_linear_556_30" x1="528.599" y1="201.85" x2="528.599" y2="296.98" gradientUnits="userSpaceOnUse">
<stop stop-color="#9E6FFB"/>
<stop offset="1" stop-color="#4D455D" stop-opacity="0.27"/>
</linearGradient>
<linearGradient id="paint43_linear_556_30" x1="528.69" y1="201.85" x2="528.69" y2="219.114" gradientUnits="userSpaceOnUse">
<stop stop-color="#9E6FFB"/>
<stop offset="1" stop-color="#4D455D" stop-opacity="0.27"/>
</linearGradient>
<linearGradient id="paint44_linear_556_30" x1="529.222" y1="233.422" x2="529.222" y2="262.099" gradientUnits="userSpaceOnUse">
<stop stop-color="#9E6FFB"/>
<stop offset="1" stop-color="#4D455D" stop-opacity="0.27"/>
</linearGradient>
<linearGradient id="paint45_linear_556_30" x1="529.222" y1="233.422" x2="529.222" y2="262.099" gradientUnits="userSpaceOnUse">
<stop stop-color="#9E6FFB"/>
<stop offset="1" stop-color="#4D455D" stop-opacity="0.27"/>
</linearGradient>
<linearGradient id="paint46_linear_556_30" x1="529.222" y1="233.422" x2="529.222" y2="262.099" gradientUnits="userSpaceOnUse">
<stop stop-color="#9E6FFB"/>
<stop offset="1" stop-color="#4D455D" stop-opacity="0.27"/>
</linearGradient>
<linearGradient id="paint47_linear_556_30" x1="81.5111" y1="413.426" x2="81.5111" y2="496.625" gradientUnits="userSpaceOnUse">
<stop stop-color="#9E6FFB"/>
<stop offset="1" stop-color="#7446AC" stop-opacity="0.38"/>
</linearGradient>
<linearGradient id="paint48_linear_556_30" x1="90.1644" y1="406.447" x2="90.1644" y2="489.647" gradientUnits="userSpaceOnUse">
<stop stop-color="#9E6FFB"/>
<stop offset="1" stop-color="#7446AC" stop-opacity="0.38"/>
</linearGradient>
<linearGradient id="paint49_linear_556_30" x1="97.2308" y1="398.664" x2="97.2308" y2="481.863" gradientUnits="userSpaceOnUse">
<stop stop-color="#9E6FFB"/>
<stop offset="1" stop-color="#7446AC" stop-opacity="0.38"/>
</linearGradient>
<linearGradient id="paint50_linear_556_30" x1="97.2311" y1="418.525" x2="97.2311" y2="419.525" gradientUnits="userSpaceOnUse">
<stop stop-color="#9E6FFB"/>
<stop offset="1" stop-color="#7446AC" stop-opacity="0.38"/>
</linearGradient>
<linearGradient id="paint51_linear_556_30" x1="97.2311" y1="429.26" x2="97.2311" y2="430.26" gradientUnits="userSpaceOnUse">
<stop stop-color="#9E6FFB"/>
<stop offset="1" stop-color="#7446AC" stop-opacity="0.38"/>
</linearGradient>
<linearGradient id="paint52_linear_556_30" x1="97.2311" y1="439.996" x2="97.2311" y2="440.996" gradientUnits="userSpaceOnUse">
<stop stop-color="#9E6FFB"/>
<stop offset="1" stop-color="#7446AC" stop-opacity="0.38"/>
</linearGradient>
<linearGradient id="paint53_linear_556_30" x1="97.2311" y1="451" x2="97.2311" y2="452" gradientUnits="userSpaceOnUse">
<stop stop-color="#9E6FFB"/>
<stop offset="1" stop-color="#7446AC" stop-opacity="0.38"/>
</linearGradient>
<linearGradient id="paint54_linear_556_30" x1="97.2311" y1="462.004" x2="97.2311" y2="463.004" gradientUnits="userSpaceOnUse">
<stop stop-color="#9E6FFB"/>
<stop offset="1" stop-color="#7446AC" stop-opacity="0.38"/>
</linearGradient>
<linearGradient id="paint55_linear_556_30" x1="165.346" y1="418.673" x2="125.432" y2="461.568" gradientUnits="userSpaceOnUse">
<stop stop-color="#9E6FFB"/>
<stop offset="1" stop-color="#4D455D" stop-opacity="0.27"/>
</linearGradient>
<linearGradient id="paint56_linear_556_30" x1="274.066" y1="493.381" x2="274.066" y2="544.296" gradientUnits="userSpaceOnUse">
<stop stop-color="#9E6FFB"/>
<stop offset="1" stop-color="#4D455D" stop-opacity="0.27"/>
</linearGradient>
<linearGradient id="paint57_linear_556_30" x1="279.397" y1="507.037" x2="279.397" y2="526.412" gradientUnits="userSpaceOnUse">
<stop stop-color="#9E6FFB"/>
<stop offset="1" stop-color="#4D455D" stop-opacity="0.27"/>
</linearGradient>
<linearGradient id="paint58_linear_556_30" x1="235.519" y1="566.328" x2="235.519" y2="591.645" gradientUnits="userSpaceOnUse">
<stop stop-color="#9E6FFB"/>
<stop offset="1" stop-color="#4D455D" stop-opacity="0.27"/>
</linearGradient>
<linearGradient id="paint59_linear_556_30" x1="225.73" y1="559.475" x2="225.73" y2="573.946" gradientUnits="userSpaceOnUse">
<stop stop-color="#9E6FFB"/>
<stop offset="1" stop-color="#4D455D" stop-opacity="0.27"/>
</linearGradient>
<linearGradient id="paint60_linear_556_30" x1="199.282" y1="550.719" x2="199.282" y2="569.653" gradientUnits="userSpaceOnUse">
<stop stop-color="#9E6FFB"/>
<stop offset="1" stop-color="#4D455D" stop-opacity="0.27"/>
</linearGradient>
<linearGradient id="paint61_linear_556_30" x1="216.978" y1="529.293" x2="216.978" y2="571.512" gradientUnits="userSpaceOnUse">
<stop stop-color="#9E6FFB"/>
<stop offset="1" stop-color="#4D455D" stop-opacity="0.27"/>
</linearGradient>
<linearGradient id="paint62_linear_556_30" x1="216.978" y1="529.293" x2="216.978" y2="571.512" gradientUnits="userSpaceOnUse">
<stop stop-color="#9E6FFB"/>
<stop offset="1" stop-color="#7446AC" stop-opacity="0.38"/>
</linearGradient>
<linearGradient id="paint63_linear_556_30" x1="254.812" y1="496.33" x2="254.812" y2="553.792" gradientUnits="userSpaceOnUse">
<stop stop-color="#9E6FFB"/>
<stop offset="1" stop-color="#7446AC" stop-opacity="0.38"/>
</linearGradient>
<linearGradient id="paint64_linear_556_30" x1="302.61" y1="456.678" x2="302.61" y2="499.308" gradientUnits="userSpaceOnUse">
<stop stop-color="#9E6FFB"/>
<stop offset="1" stop-color="#7446AC" stop-opacity="0.38"/>
</linearGradient>
<linearGradient id="paint65_linear_556_30" x1="303.059" y1="460.221" x2="303.059" y2="500.149" gradientUnits="userSpaceOnUse">
<stop stop-color="#9E6FFB"/>
<stop offset="1" stop-color="#4D455D" stop-opacity="0.27"/>
</linearGradient>
<linearGradient id="paint66_linear_556_30" x1="369.686" y1="285.514" x2="369.686" y2="363.813" gradientUnits="userSpaceOnUse">
<stop stop-color="#9E6FFB"/>
<stop offset="1" stop-color="#7446AC" stop-opacity="0.38"/>
</linearGradient>
<linearGradient id="paint67_linear_556_30" x1="369.685" y1="367.404" x2="369.685" y2="384.665" gradientUnits="userSpaceOnUse">
<stop stop-color="#9E6FFB"/>
<stop offset="1" stop-color="#4D455D" stop-opacity="0.27"/>
</linearGradient>
<linearGradient id="paint68_linear_556_30" x1="370.068" y1="309.68" x2="370.068" y2="326.94" gradientUnits="userSpaceOnUse">
<stop stop-color="#9E6FFB"/>
<stop offset="1" stop-color="#7446AC" stop-opacity="0.38"/>
</linearGradient>
<linearGradient id="paint69_linear_556_30" x1="370.069" y1="310.543" x2="370.069" y2="326.077" gradientUnits="userSpaceOnUse">
<stop stop-color="#9E6FFB"/>
<stop offset="1" stop-color="#7446AC" stop-opacity="0.38"/>
</linearGradient>
<linearGradient id="paint70_linear_556_30" x1="370.068" y1="314.459" x2="370.068" y2="322.161" gradientUnits="userSpaceOnUse">
<stop stop-color="#9E6FFB"/>
<stop offset="1" stop-color="#7446AC" stop-opacity="0.38"/>
</linearGradient>
<linearGradient id="paint71_linear_556_30" x1="331.593" y1="309.68" x2="331.593" y2="326.94" gradientUnits="userSpaceOnUse">
<stop stop-color="#9E6FFB"/>
<stop offset="1" stop-color="#7446AC" stop-opacity="0.38"/>
</linearGradient>
<linearGradient id="paint72_linear_556_30" x1="331.592" y1="315.289" x2="331.592" y2="321.33" gradientUnits="userSpaceOnUse">
<stop stop-color="#9E6FFB"/>
<stop offset="1" stop-color="#7446AC" stop-opacity="0.38"/>
</linearGradient>
<linearGradient id="paint73_linear_556_30" x1="336.452" y1="313.994" x2="336.452" y2="314.994" gradientUnits="userSpaceOnUse">
<stop stop-color="#9E6FFB"/>
<stop offset="1" stop-color="#7446AC" stop-opacity="0.38"/>
</linearGradient>
<linearGradient id="paint74_linear_556_30" x1="408.544" y1="309.68" x2="408.544" y2="326.94" gradientUnits="userSpaceOnUse">
<stop stop-color="#9E6FFB"/>
<stop offset="1" stop-color="#7446AC" stop-opacity="0.38"/>
</linearGradient>
<linearGradient id="paint75_linear_556_30" x1="408.569" y1="314.816" x2="408.569" y2="318.914" gradientUnits="userSpaceOnUse">
<stop stop-color="#9E6FFB"/>
<stop offset="1" stop-color="#4D455D" stop-opacity="0.27"/>
</linearGradient>
<linearGradient id="paint76_linear_556_30" x1="408.607" y1="314.82" x2="408.607" y2="318.916" gradientUnits="userSpaceOnUse">
<stop stop-color="#9E6FFB"/>
<stop offset="1" stop-color="#4D455D" stop-opacity="0.27"/>
</linearGradient>
<linearGradient id="paint77_linear_556_30" x1="370.021" y1="331.445" x2="370.021" y2="345.829" gradientUnits="userSpaceOnUse">
<stop stop-color="#9E6FFB"/>
<stop offset="1" stop-color="#7446AC" stop-opacity="0.38"/>
</linearGradient>
<linearGradient id="paint78_linear_556_30" x1="493.698" y1="437.906" x2="493.698" y2="465.844" gradientUnits="userSpaceOnUse">
<stop stop-color="#9E6FFB"/>
<stop offset="1" stop-color="#7446AC" stop-opacity="0.38"/>
</linearGradient>
<linearGradient id="paint79_linear_556_30" x1="531.918" y1="461.242" x2="531.918" y2="502.327" gradientUnits="userSpaceOnUse">
<stop stop-color="#9E6FFB"/>
<stop offset="1" stop-color="#7446AC" stop-opacity="0.38"/>
</linearGradient>
<linearGradient id="paint80_linear_556_30" x1="531.918" y1="590.742" x2="531.918" y2="508.572" gradientUnits="userSpaceOnUse">
<stop stop-color="#9E6FFB"/>
<stop offset="1" stop-color="#7446AC" stop-opacity="0.38"/>
</linearGradient>
<linearGradient id="paint81_linear_556_30" x1="531.925" y1="426.693" x2="531.925" y2="453.064" gradientUnits="userSpaceOnUse">
<stop stop-color="#9E6FFB"/>
<stop offset="1" stop-color="#4D455D" stop-opacity="0.27"/>
</linearGradient>
<linearGradient id="paint82_linear_556_30" x1="531.918" y1="432.545" x2="531.918" y2="447.212" gradientUnits="userSpaceOnUse">
<stop stop-color="#9E6FFB"/>
<stop offset="1" stop-color="#4D455D" stop-opacity="0.27"/>
</linearGradient>
<linearGradient id="paint83_linear_556_30" x1="531.836" y1="434.619" x2="531.836" y2="445.137" gradientUnits="userSpaceOnUse">
<stop stop-color="#9E6FFB"/>
<stop offset="1" stop-color="#4D455D" stop-opacity="0.27"/>
</linearGradient>
<linearGradient id="paint84_linear_556_30" x1="570.138" y1="437.906" x2="570.138" y2="465.844" gradientUnits="userSpaceOnUse">
<stop stop-color="#9E6FFB"/>
<stop offset="1" stop-color="#4D455D" stop-opacity="0.27"/>
</linearGradient>
<linearGradient id="paint85_linear_556_30" x1="496.158" y1="443.658" x2="496.158" y2="452.143" gradientUnits="userSpaceOnUse">
<stop stop-color="#9E6FFB"/>
<stop offset="1" stop-color="#4D455D" stop-opacity="0.27"/>
</linearGradient>
<linearGradient id="paint86_linear_556_30" x1="488.777" y1="451.875" x2="488.777" y2="460.092" gradientUnits="userSpaceOnUse">
<stop stop-color="#9E6FFB"/>
<stop offset="1" stop-color="#4D455D" stop-opacity="0.27"/>
</linearGradient>
<clipPath id="clip0_556_30">
<rect width="33.463" height="33.5255" fill="white" transform="translate(515.187 423.115)"/>
</clipPath>
</defs>
</svg>
