<svg width="2775" height="2774" viewBox="0 0 2775 2774" fill="none" xmlns="http://www.w3.org/2000/svg">
<path opacity="0.35" d="M2772.74 2102.01V1390.93H2775V1383.08H2772.74V671.998C2772.7 497.612 2704.81 330.079 2583.44 204.824V191.922H2772.74V184.019H2588.92L2765.43 6.61246L2760.05 1.23649L2583.6 178.643V5.05342H2575.75V184.019H2562.41C2438.92 66.0092 2274.68 0.104004 2103.84 0H668.851C498.08 0.159288 333.933 66.0602 210.491 184.019H197.101V5.05342H189.303V178.482L12.8532 1.07519L7.47529 6.45116L183.924 183.858H11.1861V191.707H189.303V204.824C67.9124 330.069 0.0242191 497.608 0 671.998V2102.01C0.0242191 2276.39 67.9124 2443.93 189.303 2569.17V2582.29H11.1861V2590.14H183.763L7.31398 2767.55L12.6919 2772.93L189.141 2595.52V2768.95H196.939V2589.98H210.33C333.812 2707.98 498.025 2773.88 668.851 2774H2103.84C2274.63 2773.85 2438.79 2707.95 2562.25 2589.98H2575.59V2768.95H2583.44V2595.52L2759.89 2772.93L2765.27 2767.55L2588.77 2590.14H2775V2582.29H2583.44V2569.17C2704.79 2443.9 2772.67 2276.38 2772.74 2102.01ZM2764.89 2102.01C2764.88 2271.53 2699.95 2434.61 2583.44 2557.78V1884.01H2762.09V1876.21H2583.44V1390.93H2764.89V2102.01ZM1878.67 1876.21L1873.29 1870.84C1882.21 1861.77 1890.87 1852.45 1899.26 1842.88V1876.21H1878.67ZM1899.26 1884.06V1896.91L1886.46 1884.06H1899.26ZM877.942 1876.21V1847.99C884.934 1855.78 892.143 1863.37 899.457 1870.84L894.078 1876.21H877.942ZM886.28 1884.06L877.942 1892.34V1884.01L886.28 1884.06ZM894.078 897.787L899.457 903.164C892.143 910.634 884.934 918.271 877.942 926.012V897.787H894.078ZM877.942 889.937V881.661L886.28 889.992L877.942 889.937ZM1899.26 897.787V931.117C1890.87 921.55 1882.21 912.23 1873.29 903.164L1878.67 897.787H1899.26ZM1886.46 889.937L1899.26 877.091V889.937H1886.46ZM1899.26 1383.02H1880.87C1880.05 1254.04 1829.1 1130.43 1738.79 1038.31L1867.85 908.754C1878.61 919.758 1889.12 931.171 1899.37 942.999L1899.26 1383.02ZM1907.06 952.298C2007.37 1073.49 2062.49 1225.73 2063.02 1383.02H1907.06V952.298ZM1733.25 1043.69C1822.15 1134.29 1872.29 1255.91 1873.07 1382.81H1395.78L1733.25 1043.69ZM1390.3 1377V897.787C1516.81 898.669 1637.94 949.081 1727.71 1038.21L1390.3 1377ZM1382.45 1377L1044.98 1037.83C1134.85 948.868 1255.97 898.602 1382.45 897.787V1377ZM1377.07 1382.38H899.67C900.481 1255.48 950.623 1133.87 1039.49 1043.26L1377.07 1382.38ZM1377.07 1390.23L1039.6 1729.34C950.732 1638.73 900.589 1517.12 899.778 1390.23H1377.07ZM1382.45 1395.6V1876.21C1255.91 1875.33 1134.76 1824.89 1044.98 1735.74L1382.45 1395.6ZM1390.3 1395.6L1727.71 1734.72C1638.13 1824.25 1516.97 1875.06 1390.3 1876.21V1395.6ZM1395.68 1390.23H1872.91C1872.13 1517.13 1821.98 1638.75 1733.09 1729.34L1395.68 1390.23ZM1862.21 903.164L1733.14 1032.78C1662.29 962.521 1571.76 915.442 1473.55 897.787H1856.72L1862.21 903.164ZM1390.3 889.937V706.778C1560.74 707.613 1724.5 773.095 1848.5 889.992L1390.3 889.937ZM1382.45 889.937H924.248C1048.22 773.007 1212 707.522 1382.45 706.724V889.937ZM1299.14 897.787C1200.9 915.446 1110.33 962.521 1039.44 1032.78L910.373 903.164L915.751 897.787H1299.14ZM904.994 908.541L1034.07 1038.1C943.706 1130.19 892.745 1253.82 891.98 1382.81H878.051V937.893C886.71 927.946 895.691 918.216 904.994 908.808V908.541ZM870.148 1382.81H709.507C710.109 1223.1 766.984 1068.71 870.148 946.763V1382.81ZM870.148 1390.66V1826.7C766.984 1704.75 710.109 1550.36 709.507 1390.66H870.148ZM877.942 1390.66H891.871C892.628 1519.63 943.589 1643.25 1033.96 1735.31L904.885 1864.92C895.582 1855.52 886.601 1845.79 877.996 1835.84L877.942 1390.66ZM910.536 1870.84L1039.6 1741.22C1110.45 1811.45 1200.95 1858.52 1299.14 1876.21H916.019L910.536 1870.84ZM1382.45 1884.06V2067.28C1212 2066.48 1048.22 2000.99 924.248 1884.06H1382.45ZM1390.3 1884.06H1848.5C1724.5 2000.96 1560.74 2066.44 1390.3 2067.28V1884.06ZM1473.55 1876.21C1571.8 1858.58 1662.37 1811.5 1733.25 1741.22L1862.32 1870.84L1856.94 1876.21H1473.55ZM1867.75 1865.46L1738.68 1735.85C1829.01 1643.76 1879.96 1520.16 1880.76 1391.19H1899.16V1831.22C1889.12 1842.83 1878.65 1854.24 1867.75 1865.46ZM1907.06 1391.19H2063.02C2062.49 1548.49 2007.37 1700.72 1907.06 1821.92V1391.19ZM2071.03 1383.35C2070.43 1220.99 2012.34 1064.09 1907.06 940.471V897.787H2320.62C2398.47 1047.72 2439.28 1214.1 2439.63 1383.02L2071.03 1383.35ZM1907.06 890.259V869.508L2133.9 641.622C2206.55 715.175 2268.06 798.938 2316.48 890.259H1907.06ZM1907.06 858.433V466.743C1987.96 513.082 2062.37 569.912 2128.36 635.761L1907.06 858.433ZM1899.26 866.283L1875.44 890.259H1859.9C1733.88 768.362 1565.65 699.801 1390.3 698.878V328.579C1568.6 328.971 1743.82 375.02 1899.26 462.335V866.283ZM1382.45 698.878C1207.14 699.705 1038.91 768.148 912.847 889.937H897.304L877.942 870.478V459.754C1032.3 374.06 1205.88 328.91 1382.45 328.526V698.878ZM870.148 862.682L644.273 635.761C711.521 568.709 787.495 511.006 870.148 464.215V862.682ZM870.148 873.811V889.937H456.045C504.453 798.604 565.967 714.837 638.627 641.3L870.148 873.811ZM870.148 897.842V934.936C762.081 1059.31 702.289 1218.34 701.654 1383.08H333.107C333.456 1214.14 374.265 1047.73 452.121 897.787L870.148 897.842ZM701.654 1390.93C702.289 1555.66 762.081 1714.69 870.148 1839.06V1876.21H452.121C374.273 1726.28 333.465 1559.9 333.107 1390.98L701.654 1390.93ZM870.148 1884.01V1900.14L638.895 2132.54C566.235 2059 504.725 1975.24 456.317 1883.9L870.148 1884.01ZM870.148 1911.32V2309.78C787.495 2262.99 711.521 2205.29 644.273 2138.24L870.148 1911.32ZM877.942 1903.47L897.304 1884.01H912.847C1038.9 2005.82 1207.13 2074.28 1382.45 2075.13V2445.53C1205.88 2445.1 1032.31 2399.93 877.942 2314.25V1903.47ZM1390.3 2075.13C1565.61 2074.29 1733.83 2005.84 1859.9 1884.06H1875.44L1899.26 1908.04V2311.67C1743.82 2398.97 1568.6 2445.04 1390.3 2445.48V2075.13ZM1907.06 1915.89L2128.36 2138.29C2062.35 2204.11 1987.94 2260.94 1907.06 2307.31V1915.89ZM1907.06 1904.81V1884.06H2316.48C2268.06 1975.39 2206.55 2059.15 2133.9 2132.7L1907.06 1904.81ZM1907.06 1876.21V1833.85C2012.34 1710.23 2070.43 1553.33 2071.03 1390.98H2439.63C2439.28 1559.9 2398.47 1726.28 2320.62 1876.21H1907.06ZM2447.43 1390.98H2575.59V1876.21H2329.44C2406.66 1726.07 2447.1 1559.75 2447.43 1390.93V1390.98ZM2447.43 1383.13C2447.11 1214.29 2406.66 1047.95 2329.44 897.787H2575.59V1383.02L2447.43 1383.13ZM2325.3 890.046C2276.22 796.611 2213.58 710.943 2139.44 635.815L2570.64 202.674L2571.02 202.997C2572.63 204.663 2574.24 206.437 2575.86 208.372V889.992L2325.3 890.046ZM2564.73 197.244L2133.9 630.225C2066.35 562.831 1990.06 504.806 1907.06 457.711V191.868H2559.13L2564.73 197.244ZM1899.26 453.358C1743.58 366.769 1568.45 321.117 1390.3 320.677V191.653H1899.26V453.358ZM1390.3 184.019V7.84889H1899.26V184.019H1390.3ZM1382.45 184.019H877.942V7.84889H1382.45V184.019ZM1382.45 191.868V320.892C1206.02 321.305 1032.54 366.061 877.942 451.043V191.868H1382.45ZM870.148 455.292C785.435 502.797 707.626 561.673 638.895 630.28L208.071 197.298L213.449 191.922H870.148V455.292ZM201.994 202.997L202.317 202.674L633.303 635.761C559.126 710.872 496.475 796.544 447.39 889.992H197.101V208.158C198.983 206.437 200.327 204.663 201.994 202.997ZM443.303 897.787C366.095 1047.91 325.655 1214.22 325.31 1383.02H197.101V897.787H443.303ZM325.31 1390.87C325.638 1559.71 366.078 1726.06 443.303 1876.21H197.101V1390.93L325.31 1390.87ZM447.39 1883.95C496.475 1977.4 559.126 2063.07 633.303 2138.18L202.317 2571.33L201.994 2571C200.327 2569.34 198.768 2567.56 197.101 2565.63V1884.01L447.39 1883.95ZM208.018 2576.76L638.84 2143.77C707.588 2212.39 785.389 2271.27 870.093 2318.82V2582.24H213.611L208.018 2576.76ZM877.942 2323.17C1032.54 2408.15 1206.02 2452.91 1382.45 2453.32V2582.35H877.942V2323.17ZM1382.45 2589.98V2766.15H877.942V2589.98H1382.45ZM1390.3 2589.98H1899.26V2766.15H1390.3V2589.98ZM1390.3 2582.13V2453.11C1568.45 2452.67 1743.58 2407.02 1899.26 2320.43V2581.92L1390.3 2582.13ZM1907.06 2316.29C1990.06 2269.19 2066.35 2211.17 2133.9 2143.77L2564.73 2576.76L2559.35 2582.13H1907.06V2316.29ZM2570.64 2571L2570.26 2571.33L2139.33 2138.24C2213.48 2063.11 2276.11 1977.44 2325.19 1884.01H2575.48V2565.85L2570.64 2571ZM2764.89 671.998V1383.08H2583.44V897.787H2762.09V889.937H2583.44V216.383C2699.91 339.515 2764.84 502.533 2764.89 671.998ZM2550.96 183.858H1907.06V7.84889H2103.84C2269.79 7.97143 2429.55 70.9164 2550.96 184.019V183.858ZM668.688 7.68763H870.148V183.858H221.785C343.202 70.8216 502.932 7.93583 668.851 7.84889L668.688 7.68763ZM7.79797 2102.01V671.998C7.83149 502.471 72.7762 339.389 189.303 216.222V889.829H10.7558V897.787H189.303V1383.02H10.1105V1390.87H189.303V1876.21H10.7558V1884.06H189.303V2557.67C72.8017 2434.53 7.85899 2271.49 7.79797 2102.01ZM221.785 2590.14H870.148V2766.31H668.851C502.89 2766.14 343.153 2703.14 221.785 2589.98V2590.14ZM2104.05 2766.31H1907.06V2589.98H2550.96C2429.54 2703.07 2269.79 2766.02 2103.84 2766.15L2104.05 2766.31Z" fill="url(#paint0_radial_597_30)"/>
<path d="M1578 402.567L1578 714.586H1890.02" stroke="url(#paint1_linear_597_30)" stroke-width="15" stroke-miterlimit="10" stroke-linecap="round" stroke-linejoin="round"/>
<path d="M1613.4 633.647C1610.7 636.793 1611.07 641.528 1614.22 644.222C1617.36 646.916 1622.1 646.55 1624.79 643.404L1613.4 633.647ZM1694.55 550.417L1688.87 545.515C1688.86 545.523 1688.86 545.531 1688.85 545.539L1694.55 550.417ZM1742.71 548.609L1737.37 553.88C1737.39 553.891 1737.4 553.902 1737.41 553.912L1742.71 548.609ZM1806.49 562.417L1812.17 567.319C1812.17 567.312 1812.18 567.304 1812.19 567.296L1806.49 562.417ZM1889.58 473.567C1889.26 469.437 1885.66 466.348 1881.53 466.667L1814.23 471.864C1810.1 472.183 1807.01 475.79 1807.33 479.92C1807.65 484.05 1811.25 487.139 1815.38 486.82L1875.2 482.2L1879.82 542.022C1880.14 546.151 1883.75 549.241 1887.88 548.922C1892.01 548.603 1895.1 544.996 1894.78 540.867L1889.58 473.567ZM1624.79 643.404L1700.24 555.296L1688.85 545.539L1613.4 633.647L1624.79 643.404ZM1700.22 555.319C1709.92 544.096 1727.03 543.414 1737.37 553.88L1748.05 543.338C1731.43 526.517 1704.16 527.807 1688.87 545.515L1700.22 555.319ZM1737.41 553.912L1753.02 569.529L1763.63 558.922L1748.01 543.306L1737.41 553.912ZM1753.02 569.529C1769.59 586.098 1796.83 585.073 1812.17 567.319L1800.81 557.515C1791.16 568.692 1774.02 569.311 1763.63 558.922L1753.02 569.529ZM1812.19 567.296L1887.8 479.024L1876.41 469.265L1800.79 557.538L1812.19 567.296Z" fill="url(#paint2_linear_597_30)"/>
<rect x="1648.32" y="627.83" width="36.5291" height="74.5802" rx="10" fill="url(#paint3_linear_597_30)"/>
<rect x="1707.68" y="569.079" width="36.5291" height="133.331" rx="10" fill="url(#paint4_linear_597_30)"/>
<rect x="1825.79" y="570.905" width="36.5291" height="132.113" rx="10" fill="url(#paint5_linear_597_30)"/>
<rect x="1767.04" y="595.562" width="36.2247" height="106.848" rx="10" fill="url(#paint6_linear_597_30)"/>
<path d="M1679.97 433.909C1679.97 441.3 1673.97 447.292 1666.58 447.292C1659.18 447.292 1653.19 441.3 1653.19 433.909C1653.19 426.519 1659.18 420.527 1666.58 420.527C1673.97 420.527 1679.97 426.519 1679.97 433.909Z" fill="url(#paint7_linear_597_30)"/>
<path d="M1693.07 477.983C1693.07 470.923 1690.26 464.153 1685.27 459.161C1680.27 454.169 1673.49 451.364 1666.43 451.364C1659.37 451.364 1652.59 454.169 1647.6 459.161C1642.6 464.153 1639.79 470.923 1639.79 477.983C1653.19 496.471 1679.97 497.04 1693.07 477.983Z" fill="url(#paint8_linear_597_30)"/>
<circle cx="1666.58" cy="450.664" r="53.6641" stroke="url(#paint9_linear_597_30)" stroke-width="12"/>
<path d="M1619.12 539.712C1615.36 548.143 1612.5 554.581 1612.5 554.581L1630.39 562.549C1630.39 562.549 1633.31 555.99 1637.17 547.315M1619.12 539.712C1623.3 530.306 1628.6 518.419 1632.24 510.23C1637.16 513.473 1643.2 516.237 1650.14 518.198C1646.3 526.822 1641.22 538.229 1637.17 547.315M1619.12 539.712L1637.17 547.315" stroke="url(#paint10_linear_597_30)" stroke-width="6"/>
<path d="M1872.13 424.332C1869.86 424.332 1855.79 424.332 1855.79 424.332V408.678M1885.15 424.332C1885.15 440.043 1872.47 452.795 1856.84 452.795C1841.21 452.795 1828.53 440.043 1828.53 424.332C1828.53 408.621 1841.21 395.87 1856.84 395.87C1872.47 395.87 1885.15 408.621 1885.15 424.332Z" stroke="url(#paint11_linear_597_30)" stroke-width="8" stroke-linejoin="round"/>
<path d="M2405.08 1050.97V1050.36C2415.19 1048.96 2424.41 1044.35 2431.05 1037.36C2437.68 1030.37 2441.31 1021.47 2441.25 1012.29V1001.83H2434.48C2423.68 1001.84 2413.3 1005.58 2405.49 1012.29C2404.98 1006.17 2404.12 1000.08 2402.92 994.042H2403.87V993.434C2413.02 987.961 2419.92 979.934 2423.49 970.592C2427.07 961.25 2427.12 951.111 2423.64 941.74L2421.34 935.536L2414.57 938.091C2404.31 942.046 2396.15 949.412 2391.81 958.647C2389.19 952.864 2386.2 947.22 2382.87 941.74C2389.68 933.861 2393.47 924.22 2393.69 914.249C2393.91 904.279 2390.54 894.511 2384.09 886.396L2379.48 880.801L2373.52 884.572C2365.52 892.001 2360.72 901.745 2359.98 912.061C2355.49 907.772 2350.74 903.711 2345.76 899.898C2350.12 890.434 2350.76 879.92 2347.58 870.084C2344.41 860.247 2337.6 851.673 2328.28 845.771L2321.92 842L2318.53 848.082C2315.02 854.393 2313.17 861.341 2313.11 868.395C2304.12 865.203 2294.18 864.86 2284.94 867.421H2277.62L2279.25 874.72C2280.26 879.293 2282.28 883.64 2285.19 887.504C2288.09 891.368 2291.83 894.672 2296.18 897.222C2290.46 900.971 2285.81 905.892 2282.63 911.575L2279.92 916.44L2284.94 919.359C2291.37 923.165 2298.9 925.195 2306.61 925.198C2309.94 925.198 2313.26 924.831 2316.5 924.103C2325.39 921.775 2333.18 916.907 2338.71 910.237C2342.97 913.797 2346.99 917.574 2350.77 921.549C2345.16 921.091 2339.52 921.724 2334.21 923.403C2328.91 925.082 2324.06 927.769 2320.02 931.279L2315.01 935.05L2318.8 939.672C2322.24 943.987 2326.67 947.596 2331.78 950.259C2336.9 952.922 2342.58 954.579 2348.46 955.12H2351.85C2359.09 955.055 2366.16 953.204 2372.3 949.768C2375.01 954.39 2377.45 959.133 2379.75 964.12H2378.67C2373.71 961.849 2368.26 960.565 2362.7 960.355C2357.14 960.145 2351.59 961.014 2346.43 962.904L2340.61 965.093L2342.5 970.445C2344.35 975.869 2347.41 980.894 2351.52 985.205C2355.62 989.517 2360.67 993.022 2366.34 995.502C2371.47 997.663 2377.07 998.785 2382.73 998.786C2384.97 998.723 2387.19 998.479 2389.37 998.056C2390.32 1002.92 2391 1007.79 2391.54 1012.77C2383.64 1005.95 2373.11 1002.11 2362.15 1002.07H2355.37V1012.29C2355.4 1021.22 2358.92 1029.85 2365.3 1036.7C2371.68 1043.54 2380.54 1048.16 2390.32 1049.75C2389.51 1054.98 2388.42 1060.21 2387.07 1065.2C2382.74 1055.87 2374.6 1048.38 2364.31 1044.28L2357.27 1041.11L2354.83 1047.93C2351.35 1057.13 2351.3 1067.1 2354.67 1076.33C2358.04 1085.56 2364.65 1093.57 2373.52 1099.13C2371.11 1103.69 2368.4 1108.12 2365.4 1112.39C2364.49 1102.17 2359.6 1092.57 2351.58 1085.27L2346.43 1079.67L2341.83 1085.39C2335.42 1093.31 2331.97 1102.85 2331.97 1112.64C2331.97 1122.42 2335.42 1131.96 2341.83 1139.88C2337.9 1143.29 2333.84 1146.57 2329.64 1149.61C2332.64 1139.14 2331.34 1128.04 2325.98 1118.35L2323 1111.18L2315.82 1115.31C2307.02 1121.07 2300.53 1129.22 2297.31 1138.56C2294.08 1147.89 2294.31 1157.91 2297.94 1167.13C2285.33 1172.09 2256.55 1182.85 2242.85 1184.1C2232.14 1185.11 2222.14 1189.4 2214.54 1196.26L2208.99 1201.25L2203.44 1196.26C2195.84 1189.4 2185.84 1185.11 2175.13 1184.1C2161.43 1182.85 2132.65 1172.09 2120.04 1167.13C2123.67 1157.91 2123.9 1147.89 2120.67 1138.56C2117.45 1129.22 2110.96 1121.07 2102.16 1115.31L2095.25 1110.45L2092.27 1117.74C2086.83 1127.62 2085.44 1138.91 2088.34 1149.61C2084.14 1146.57 2080.08 1143.29 2076.15 1139.88C2082.52 1131.95 2085.95 1122.42 2085.95 1112.64C2085.95 1102.86 2082.52 1093.32 2076.15 1085.39L2071.82 1079.92L2066.67 1085.27C2058.31 1092.65 2053.21 1102.5 2052.31 1113C2049.47 1108.52 2046.94 1103.89 2044.73 1099.13C2053.33 1093.57 2059.74 1085.69 2063.02 1076.64C2066.31 1067.58 2066.31 1057.83 2063.01 1048.78L2060.71 1042.45L2053.94 1045.01C2043.72 1049.01 2035.58 1056.36 2031.18 1065.56C2029.83 1060.45 2028.74 1055.22 2027.93 1049.99C2037.68 1048.32 2046.48 1043.63 2052.79 1036.74C2059.1 1029.86 2062.52 1021.2 2062.47 1012.29V1001.83H2055.7C2044.77 1001.81 2034.25 1005.55 2026.31 1012.29C2026.31 1007.3 2027.52 1002.44 2028.47 997.57C2030.66 997.993 2032.88 998.237 2035.11 998.3C2040.78 998.298 2046.37 997.177 2051.5 995.015C2057.18 992.535 2062.23 989.03 2066.33 984.719C2070.43 980.408 2073.5 975.383 2075.34 969.959L2077.1 964.607L2071.82 962.904C2066.78 961.011 2061.35 960.098 2055.88 960.224C2050.42 960.35 2045.05 961.512 2040.12 963.634H2039.04C2041.34 958.647 2043.78 953.903 2046.49 949.281C2052.63 952.717 2059.71 954.569 2066.94 954.633H2070.33C2076.2 954.107 2081.88 952.469 2086.99 949.827C2092.1 947.185 2096.54 943.6 2099.99 939.307L2103.38 934.928L2098.91 931.523C2094.83 927.924 2089.94 925.159 2084.56 923.417C2079.18 921.675 2073.45 920.996 2067.75 921.427C2071.55 917.413 2075.48 913.764 2079.54 910.237C2085.07 916.9 2092.87 921.767 2101.75 924.103C2104.99 924.831 2108.31 925.198 2111.64 925.198C2119.35 925.195 2126.88 923.165 2133.31 919.359L2138.33 916.318L2135.62 911.453C2132.41 905.751 2127.77 900.796 2122.07 896.979C2126.6 894.218 2130.42 890.619 2133.27 886.423C2136.12 882.227 2137.94 877.531 2138.6 872.652L2139.55 867.786L2133.45 866.327C2129.44 865.307 2125.29 864.775 2121.12 864.746C2115.6 864.72 2110.12 865.67 2105 867.543C2104.76 860.706 2102.92 853.992 2099.59 847.838L2096.06 842L2089.97 845.649C2080.82 851.538 2074.14 860.013 2071 869.717C2067.85 879.421 2068.43 889.792 2072.63 899.168C2067.53 903.221 2062.74 907.569 2058.27 912.183C2057.19 901.524 2051.9 891.562 2043.37 884.085L2037.95 880.193L2033.76 885.302C2027.29 893.441 2023.92 903.24 2024.17 913.236C2024.41 923.233 2028.25 932.89 2035.11 940.767C2031.86 946.119 2029.01 951.714 2026.31 957.431C2021.8 948.749 2013.89 941.864 2004.09 938.091L1997.32 934.928L1994.88 941.618C1991.4 950.989 1991.45 961.128 1995.03 970.47C1998.6 979.812 2005.5 987.839 2014.66 993.313V993.921H2015.47C2014.21 999.997 2013.31 1006.13 2012.76 1012.29C2004.91 1005.67 1994.54 1002.01 1983.77 1002.07H1977V1012.29C1977.03 1021.37 1980.66 1030.15 1987.23 1037.06C1993.81 1043.97 2002.9 1048.55 2012.9 1049.99V1050.6H2013.98C2015.06 1057.17 2016.28 1063.62 2018.04 1069.94H2017.64C2012.83 1067.9 2007.6 1066.79 2002.28 1066.66C1996.96 1066.53 1991.68 1067.4 1986.75 1069.21L1980.39 1071.04L1982.42 1076.75C1984.26 1082.18 1987.33 1087.2 1991.43 1091.51C1995.53 1095.82 2000.58 1099.33 2006.26 1101.81C2011.38 1103.99 2016.98 1105.11 2022.65 1105.09C2025.52 1105.18 2028.38 1104.94 2031.18 1104.36V1104.97H2032.4C2035.51 1110.72 2038.95 1116.32 2042.7 1121.76C2037.04 1121.33 2031.35 1122.01 2026.02 1123.75C2020.68 1125.5 2015.84 1128.26 2011.81 1131.85L2007.34 1135.5L2010.86 1140C2014.27 1144.34 2018.69 1147.96 2023.81 1150.61C2028.94 1153.25 2034.64 1154.87 2040.53 1155.33H2043.91C2051.7 1155.32 2059.3 1153.2 2065.72 1149.25L2066.81 1148.4C2071.71 1152.74 2076.91 1156.8 2082.38 1160.56C2076.73 1162.13 2071.5 1164.71 2067 1168.17C2062.5 1171.62 2058.84 1175.86 2056.24 1180.63L2053.26 1185.49L2058.41 1188.53C2064.8 1192.43 2072.35 1194.51 2080.08 1194.5C2083.42 1194.51 2086.75 1194.1 2089.97 1193.28C2099.43 1190.93 2107.67 1185.68 2113.27 1178.44V1177.47C2127.18 1183.03 2157.4 1194.16 2172.55 1195.53C2180.12 1196.21 2187.17 1199.27 2192.46 1204.16L2198.02 1209.15L2174.99 1229.83L2184.61 1238.47L2209.13 1218.4L2232.15 1238.83L2241.77 1230.19L2218.74 1209.52L2224.3 1204.53C2229.59 1199.63 2236.64 1196.57 2244.21 1195.89C2259.41 1194.54 2289.67 1183.41 2303.63 1177.83V1178.8C2309.2 1186.01 2317.39 1191.26 2326.79 1193.64C2330.01 1194.47 2333.34 1194.87 2336.68 1194.86C2344.41 1194.87 2351.96 1192.8 2358.35 1188.9L2363.36 1185.86L2360.66 1180.99C2358.01 1176.23 2354.31 1172 2349.8 1168.55C2345.28 1165.1 2340.04 1162.51 2334.38 1160.92C2339.84 1157.2 2345 1153.14 2349.82 1148.76L2350.9 1149.73C2357.37 1153.59 2364.95 1155.66 2372.71 1155.69H2376.1C2382 1155.22 2387.71 1153.59 2392.83 1150.92C2397.96 1148.25 2402.37 1144.61 2405.76 1140.25L2409.15 1135.99L2404.81 1132.22C2401.01 1128.75 2396.44 1126.03 2391.41 1124.23C2386.37 1122.43 2380.97 1121.59 2375.56 1121.76C2379.4 1116.29 2382.92 1110.64 2386.12 1104.85H2387.34V1104.24C2389.97 1104.73 2392.65 1104.98 2395.33 1104.97C2400.95 1104.97 2406.51 1103.85 2411.59 1101.69C2417.27 1099.21 2422.31 1095.7 2426.42 1091.39C2430.52 1087.08 2433.58 1082.06 2435.43 1076.63L2437.19 1071.28L2431.5 1069.21C2426.52 1067.35 2421.17 1066.45 2415.78 1066.55C2410.39 1066.66 2405.09 1067.77 2400.21 1069.82C2401.97 1063.5 2403.19 1057.05 2404.27 1050.48L2405.08 1050.97ZM2405.08 1036.98C2405.9 1031.69 2408.5 1026.75 2412.55 1022.83C2416.6 1018.91 2421.89 1016.21 2427.71 1015.09C2427.09 1020.42 2424.67 1025.46 2420.77 1029.53C2416.88 1033.6 2411.68 1036.49 2405.9 1037.83L2405.08 1036.98ZM2294.69 878.49C2298.44 878.025 2302.26 878.272 2305.9 879.215C2309.54 880.158 2312.92 881.775 2315.82 883.964C2316.57 886.18 2317.52 888.336 2318.66 890.41C2317.08 890.367 2315.49 890.448 2313.92 890.654C2309.86 890.174 2305.99 888.817 2302.64 886.699C2299.29 884.58 2296.56 881.763 2294.69 878.49ZM2313.11 912.791C2308.3 914.13 2303.15 914.13 2298.35 912.791C2301.88 907.97 2307.21 904.434 2313.38 902.817C2318.13 901.415 2323.26 901.415 2328.01 902.817C2324.42 907.433 2319.15 910.786 2313.11 912.304V912.791ZM2334.78 890.654C2331.16 886.613 2328.62 881.881 2327.35 876.82C2326.08 871.76 2326.12 866.506 2327.47 861.461C2331.12 865.488 2333.68 870.22 2334.95 875.285C2336.22 880.351 2336.16 885.611 2334.78 890.654ZM2349.01 943.078C2343.29 942.629 2337.91 940.49 2333.7 936.996C2338.27 934.446 2343.65 933.334 2349.01 933.834C2354.76 934.274 2360.19 936.412 2364.45 939.915C2359.76 942.301 2354.37 943.321 2349.01 942.834V943.078ZM2375.28 929.576C2373.15 924.727 2372.26 919.506 2372.68 914.304C2373.1 909.103 2374.83 904.053 2377.72 899.533C2379.85 904.385 2380.73 909.604 2380.31 914.804C2379.89 920.004 2378.17 925.053 2375.28 929.576ZM2372.44 984.433C2366.66 981.705 2361.93 977.463 2358.89 972.27C2363.52 971.794 2368.21 972.467 2372.44 974.216C2378.27 976.892 2383 981.148 2385.99 986.379C2381.36 986.868 2376.67 986.195 2372.44 984.433ZM2102.43 883.477C2105.22 881.17 2108.52 879.415 2112.11 878.326C2115.71 877.236 2119.51 876.837 2123.29 877.152C2121.67 880.573 2119.14 883.588 2115.93 885.94C2112.72 888.292 2108.93 889.909 2104.87 890.654C2103.13 890.331 2101.36 890.128 2099.59 890.045C2100.8 887.956 2101.75 885.753 2102.43 883.477ZM2098.91 902.087V904.033L2105.28 902.817C2111.06 904.339 2116.18 907.442 2119.9 911.696C2115.1 913.035 2109.95 913.035 2105.14 911.696C2099.21 910.236 2093.95 907.128 2090.1 902.817C2092.97 902.112 2095.95 901.865 2098.91 902.087ZM2090.65 861.218C2092.09 866.288 2092.19 871.589 2090.94 876.7C2089.69 881.81 2087.14 886.589 2083.47 890.654C2082.06 885.582 2081.97 880.287 2083.22 875.181C2084.46 870.075 2087.01 865.297 2090.65 861.218ZM2069.24 934.198C2074.59 933.726 2079.97 934.837 2084.55 937.361C2080.33 940.84 2074.95 942.977 2069.24 943.443C2063.74 943.593 2058.32 942.142 2053.8 939.307C2058.12 935.937 2063.54 933.928 2069.24 933.59V934.198ZM2040.39 899.654C2043.27 904.156 2045 909.178 2045.44 914.354C2045.89 919.531 2045.04 924.731 2042.97 929.576C2040.09 925.075 2038.36 920.053 2037.92 914.876C2037.47 909.7 2038.32 904.5 2040.39 899.654ZM2045.81 974.581C2050.02 972.761 2054.73 972.085 2059.36 972.635C2056.38 977.866 2051.64 982.122 2045.81 984.798C2041.58 986.559 2036.89 987.233 2032.27 986.744C2035.25 981.513 2039.99 977.257 2045.81 974.581ZM1990.55 1015.09C1996.18 1016.29 2001.28 1018.99 2005.19 1022.83C2009.1 1026.67 2011.65 1031.47 2012.49 1036.61V1037.59C2006.72 1036.29 2001.52 1033.43 1997.6 1029.41C1993.68 1025.39 1991.22 1020.39 1990.55 1015.09ZM2005.99 953.173C2010.26 956.597 2013.54 960.894 2015.57 965.7C2017.6 970.506 2018.31 975.68 2017.64 980.784C2013.41 977.33 2010.16 973.029 2008.13 968.231C2006.11 963.433 2005.37 958.274 2005.99 953.173ZM2011.95 1090.86C2006.09 1088.22 2001.34 1083.96 1998.4 1078.7C2003.03 1078.24 2007.71 1078.91 2011.95 1080.65C2017.79 1083.3 2022.54 1087.56 2025.49 1092.81C2020.87 1093.26 2016.19 1092.59 2011.95 1090.86ZM2048.79 1015.09C2048.18 1020.49 2045.71 1025.59 2041.73 1029.69C2037.75 1033.79 2032.46 1036.67 2026.58 1037.95C2027.17 1032.54 2029.63 1027.43 2033.61 1023.33C2037.59 1019.23 2042.9 1016.35 2048.79 1015.09ZM2039.85 1087.34C2039.25 1082.2 2040.03 1077.02 2042.13 1072.21C2044.23 1067.41 2047.58 1063.12 2051.91 1059.72C2052.45 1064.85 2051.64 1070.03 2049.55 1074.82C2047.45 1079.62 2044.13 1083.9 2039.85 1087.34ZM2041.75 1142.92C2035.99 1142.48 2030.56 1140.34 2026.31 1136.84C2031.1 1134.29 2036.68 1133.2 2042.22 1133.72C2047.76 1134.25 2052.96 1136.37 2057.05 1139.76C2052.47 1142.28 2047.1 1143.39 2041.75 1142.92ZM2068.03 1129.66C2065.89 1124.86 2065 1119.67 2065.43 1114.51C2065.85 1109.35 2067.57 1104.34 2070.46 1099.86C2072.56 1104.68 2073.43 1109.86 2073 1115.01C2072.58 1120.17 2070.88 1125.17 2068.03 1129.66ZM2086.99 1182.57C2082.17 1183.85 2077.04 1183.85 2072.22 1182.57C2076.01 1178.16 2081.29 1174.96 2087.26 1173.45C2092.02 1172.12 2097.13 1172.12 2101.89 1173.45C2098.14 1177.85 2092.92 1181.05 2086.99 1182.57ZM2108.66 1160.68C2105.11 1156.61 2102.62 1151.87 2101.37 1146.82C2100.13 1141.77 2100.17 1136.53 2101.48 1131.49C2104.97 1135.47 2107.43 1140.11 2108.67 1145.05C2109.91 1150 2109.91 1155.13 2108.66 1160.07V1160.68ZM2316.77 1131.49C2318.12 1136.52 2318.18 1141.77 2316.94 1146.83C2315.69 1151.89 2313.18 1156.63 2309.59 1160.68C2308.1 1155.56 2307.98 1150.19 2309.23 1145.01C2310.47 1139.84 2313.06 1135 2316.77 1130.88V1131.49ZM2346.43 1181.48C2341.66 1182.76 2336.58 1182.76 2331.8 1181.48C2325.87 1179.95 2320.65 1176.76 2316.9 1172.36C2321.67 1171.02 2326.77 1171.02 2331.53 1172.36C2337.51 1173.78 2342.77 1177 2346.43 1181.48ZM2350.77 1129.66C2350.66 1129.5 2350.55 1129.33 2350.45 1129.16C2347.75 1124.79 2346.13 1119.94 2345.73 1114.95C2345.3 1109.77 2346.19 1104.57 2348.33 1099.74C2351.13 1104.28 2352.75 1109.33 2353.08 1114.51C2353.4 1119.51 2352.5 1124.51 2350.45 1129.16C2350.38 1129.33 2350.3 1129.5 2350.23 1129.66H2350.77ZM2377.18 1133.68C2382.53 1133.27 2387.88 1134.37 2392.49 1136.84C2388.23 1140.34 2382.8 1142.48 2377.05 1142.92C2371.7 1143.35 2366.34 1142.24 2361.74 1139.76C2365.89 1136.44 2371.11 1134.4 2376.64 1133.92L2377.18 1133.68ZM2366.89 1059.6C2371.22 1063.02 2374.58 1067.32 2376.68 1072.15C2378.78 1076.98 2379.55 1082.18 2378.94 1087.34C2374.55 1083.93 2371.12 1079.65 2368.93 1074.83C2366.74 1070.01 2365.86 1064.79 2366.34 1059.6H2366.89ZM2370 1015.09C2375.89 1016.35 2381.2 1019.23 2385.18 1023.33C2389.16 1027.43 2391.62 1032.54 2392.22 1037.95C2386.23 1036.76 2380.82 1033.91 2376.74 1029.81C2372.65 1025.71 2370.11 1020.56 2369.46 1015.09H2370ZM2406.71 1081.01C2410.95 1079.3 2415.64 1078.67 2420.26 1079.19C2417.29 1084.43 2412.55 1088.69 2406.71 1091.35C2402.48 1093.12 2397.8 1093.83 2393.16 1093.42C2395.93 1088.15 2400.49 1083.81 2406.17 1081.01H2406.71ZM2400.61 980.906C2400.02 975.755 2400.8 970.55 2402.9 965.726C2404.99 960.902 2408.34 956.598 2412.67 953.173C2413.22 958.321 2412.42 963.514 2410.33 968.331C2408.23 973.149 2404.91 977.457 2400.61 980.906Z" fill="url(#paint12_linear_597_30)"/>
<path d="M2090.65 861.218C2092.09 866.288 2092.19 871.589 2090.94 876.7C2089.69 881.81 2087.14 886.589 2083.47 890.654C2082.06 885.582 2081.97 880.287 2083.22 875.181C2084.46 870.075 2087.01 865.297 2090.65 861.218Z" fill="url(#paint13_linear_597_30)"/>
<path d="M2102.43 883.477C2105.22 881.17 2108.52 879.415 2112.11 878.326C2115.71 877.236 2119.51 876.837 2123.29 877.152C2121.67 880.573 2119.14 883.588 2115.93 885.94C2112.72 888.292 2108.93 889.909 2104.87 890.654C2103.13 890.331 2101.36 890.128 2099.59 890.045C2100.8 887.956 2101.75 885.753 2102.43 883.477Z" fill="url(#paint14_linear_597_30)"/>
<path d="M2098.91 902.087V904.033L2105.28 902.817C2111.06 904.339 2116.18 907.442 2119.9 911.696C2115.1 913.035 2109.95 913.035 2105.14 911.696C2099.21 910.236 2093.95 907.128 2090.1 902.817C2092.97 902.112 2095.95 901.865 2098.91 902.087Z" fill="url(#paint15_linear_597_30)"/>
<path d="M2040.39 899.654C2043.27 904.156 2045 909.178 2045.44 914.354C2045.89 919.531 2045.04 924.731 2042.97 929.576C2040.09 925.075 2038.36 920.053 2037.92 914.876C2037.47 909.7 2038.32 904.5 2040.39 899.654Z" fill="url(#paint16_linear_597_30)"/>
<path d="M2069.24 934.198C2074.59 933.726 2079.97 934.837 2084.55 937.361C2080.33 940.84 2074.95 942.977 2069.24 943.443C2063.74 943.593 2058.32 942.142 2053.8 939.307C2058.12 935.937 2063.54 933.928 2069.24 933.59V934.198Z" fill="url(#paint17_linear_597_30)"/>
<path d="M2005.99 953.173C2010.26 956.597 2013.54 960.894 2015.57 965.7C2017.6 970.506 2018.31 975.68 2017.64 980.784C2013.41 977.33 2010.16 973.029 2008.13 968.231C2006.11 963.433 2005.37 958.274 2005.99 953.173Z" fill="url(#paint18_linear_597_30)"/>
<path d="M2045.81 974.581C2050.02 972.761 2054.73 972.085 2059.36 972.635C2056.38 977.866 2051.64 982.122 2045.81 984.798C2041.58 986.559 2036.89 987.233 2032.27 986.744C2035.25 981.513 2039.99 977.257 2045.81 974.581Z" fill="url(#paint19_linear_597_30)"/>
<path d="M2048.79 1015.09C2048.18 1020.49 2045.71 1025.59 2041.73 1029.69C2037.75 1033.79 2032.46 1036.67 2026.58 1037.95C2027.17 1032.54 2029.63 1027.43 2033.61 1023.33C2037.59 1019.23 2042.9 1016.35 2048.79 1015.09Z" fill="url(#paint20_linear_597_30)"/>
<path d="M1990.55 1015.09C1996.18 1016.29 2001.28 1018.99 2005.19 1022.83C2009.1 1026.67 2011.65 1031.47 2012.49 1036.61V1037.59C2006.72 1036.29 2001.52 1033.43 1997.6 1029.41C1993.68 1025.39 1991.22 1020.39 1990.55 1015.09Z" fill="url(#paint21_linear_597_30)"/>
<path d="M2011.95 1090.86C2006.09 1088.22 2001.34 1083.96 1998.4 1078.7C2003.03 1078.24 2007.71 1078.91 2011.95 1080.65C2017.79 1083.3 2022.54 1087.56 2025.49 1092.81C2020.87 1093.26 2016.19 1092.59 2011.95 1090.86Z" fill="url(#paint22_linear_597_30)"/>
<path d="M2039.85 1087.34C2039.25 1082.2 2040.03 1077.02 2042.13 1072.21C2044.23 1067.41 2047.58 1063.12 2051.91 1059.72C2052.45 1064.85 2051.64 1070.03 2049.55 1074.82C2047.45 1079.62 2044.13 1083.9 2039.85 1087.34Z" fill="url(#paint23_linear_597_30)"/>
<path d="M2041.75 1142.92C2035.99 1142.48 2030.56 1140.34 2026.31 1136.84C2031.1 1134.29 2036.68 1133.2 2042.22 1133.72C2047.76 1134.25 2052.96 1136.37 2057.05 1139.76C2052.47 1142.28 2047.1 1143.39 2041.75 1142.92Z" fill="url(#paint24_linear_597_30)"/>
<path d="M2068.03 1129.66C2065.89 1124.86 2065 1119.67 2065.43 1114.51C2065.85 1109.35 2067.57 1104.34 2070.46 1099.86C2072.56 1104.68 2073.43 1109.86 2073 1115.01C2072.58 1120.17 2070.88 1125.17 2068.03 1129.66Z" fill="url(#paint25_linear_597_30)"/>
<path d="M2108.66 1160.68C2105.11 1156.61 2102.62 1151.87 2101.37 1146.82C2100.13 1141.77 2100.17 1136.53 2101.48 1131.49C2104.97 1135.47 2107.43 1140.11 2108.67 1145.05C2109.91 1150 2109.91 1155.13 2108.66 1160.07V1160.68Z" fill="url(#paint26_linear_597_30)"/>
<path d="M2086.99 1182.57C2082.17 1183.85 2077.04 1183.85 2072.22 1182.57C2076.01 1178.16 2081.29 1174.96 2087.26 1173.45C2092.02 1172.12 2097.13 1172.12 2101.89 1173.45C2098.14 1177.85 2092.92 1181.05 2086.99 1182.57Z" fill="url(#paint27_linear_597_30)"/>
<path d="M2346.43 1181.48C2341.66 1182.76 2336.58 1182.76 2331.8 1181.48C2325.87 1179.95 2320.65 1176.76 2316.9 1172.36C2321.67 1171.02 2326.77 1171.02 2331.53 1172.36C2337.51 1173.78 2342.77 1177 2346.43 1181.48Z" fill="url(#paint28_linear_597_30)"/>
<path d="M2316.77 1131.49C2318.12 1136.52 2318.18 1141.77 2316.94 1146.83C2315.69 1151.89 2313.18 1156.63 2309.59 1160.68C2308.1 1155.56 2307.98 1150.19 2309.23 1145.01C2310.47 1139.84 2313.06 1135 2316.77 1130.88V1131.49Z" fill="url(#paint29_linear_597_30)"/>
<path d="M2377.18 1133.68C2382.53 1133.27 2387.88 1134.37 2392.49 1136.84C2388.23 1140.34 2382.8 1142.48 2377.05 1142.92C2371.7 1143.35 2366.34 1142.24 2361.74 1139.76C2365.89 1136.44 2371.11 1134.4 2376.64 1133.92L2377.18 1133.68Z" fill="url(#paint30_linear_597_30)"/>
<path d="M2345.73 1114.95C2346.13 1119.94 2347.75 1124.79 2350.45 1129.16C2352.5 1124.51 2353.4 1119.51 2353.08 1114.51C2352.75 1109.33 2351.13 1104.28 2348.33 1099.74C2346.19 1104.57 2345.3 1109.77 2345.73 1114.95Z" fill="url(#paint31_linear_597_30)"/>
<path d="M2406.71 1081.01C2410.95 1079.3 2415.64 1078.67 2420.26 1079.19C2417.29 1084.43 2412.55 1088.69 2406.71 1091.35C2402.48 1093.12 2397.8 1093.83 2393.16 1093.42C2395.93 1088.15 2400.49 1083.81 2406.17 1081.01H2406.71Z" fill="url(#paint32_linear_597_30)"/>
<path d="M2366.89 1059.6C2371.22 1063.02 2374.58 1067.32 2376.68 1072.15C2378.78 1076.98 2379.55 1082.18 2378.94 1087.34C2374.55 1083.93 2371.12 1079.65 2368.93 1074.83C2366.74 1070.01 2365.86 1064.79 2366.34 1059.6H2366.89Z" fill="url(#paint33_linear_597_30)"/>
<path d="M2405.08 1036.98C2405.9 1031.69 2408.5 1026.75 2412.55 1022.83C2416.6 1018.91 2421.89 1016.21 2427.71 1015.09C2427.09 1020.42 2424.67 1025.46 2420.77 1029.53C2416.88 1033.6 2411.68 1036.49 2405.9 1037.83L2405.08 1036.98Z" fill="url(#paint34_linear_597_30)"/>
<path d="M2370 1015.09C2375.89 1016.35 2381.2 1019.23 2385.18 1023.33C2389.16 1027.43 2391.62 1032.54 2392.22 1037.95C2386.23 1036.76 2380.82 1033.91 2376.74 1029.81C2372.65 1025.71 2370.11 1020.56 2369.46 1015.09H2370Z" fill="url(#paint35_linear_597_30)"/>
<path d="M2400.61 980.906C2400.02 975.755 2400.8 970.55 2402.9 965.726C2404.99 960.902 2408.34 956.598 2412.67 953.173C2413.22 958.321 2412.42 963.514 2410.33 968.331C2408.23 973.149 2404.91 977.457 2400.61 980.906Z" fill="url(#paint36_linear_597_30)"/>
<path d="M2372.44 984.433C2366.66 981.705 2361.93 977.463 2358.89 972.27C2363.52 971.794 2368.21 972.467 2372.44 974.216C2378.27 976.892 2383 981.148 2385.99 986.379C2381.36 986.868 2376.67 986.195 2372.44 984.433Z" fill="url(#paint37_linear_597_30)"/>
<path d="M2375.28 929.576C2373.15 924.727 2372.26 919.506 2372.68 914.304C2373.1 909.103 2374.83 904.053 2377.72 899.533C2379.85 904.385 2380.73 909.604 2380.31 914.804C2379.89 920.004 2378.17 925.053 2375.28 929.576Z" fill="url(#paint38_linear_597_30)"/>
<path d="M2349.01 943.078C2343.29 942.629 2337.91 940.49 2333.7 936.996C2338.27 934.446 2343.65 933.334 2349.01 933.834C2354.76 934.274 2360.19 936.412 2364.45 939.915C2359.76 942.301 2354.37 943.321 2349.01 942.834V943.078Z" fill="url(#paint39_linear_597_30)"/>
<path d="M2313.11 912.791C2308.3 914.13 2303.15 914.13 2298.35 912.791C2301.88 907.97 2307.21 904.434 2313.38 902.817C2318.13 901.415 2323.26 901.415 2328.01 902.817C2324.42 907.433 2319.15 910.786 2313.11 912.304V912.791Z" fill="url(#paint40_linear_597_30)"/>
<path d="M2294.69 878.49C2298.44 878.025 2302.26 878.272 2305.9 879.215C2309.54 880.158 2312.92 881.775 2315.82 883.964C2316.57 886.18 2317.52 888.336 2318.66 890.41C2317.08 890.367 2315.49 890.448 2313.92 890.654C2309.86 890.174 2305.99 888.817 2302.64 886.699C2299.29 884.58 2296.56 881.763 2294.69 878.49Z" fill="url(#paint41_linear_597_30)"/>
<path d="M2334.78 890.654C2331.16 886.613 2328.62 881.881 2327.35 876.82C2326.08 871.76 2326.12 866.506 2327.47 861.461C2331.12 865.488 2333.68 870.22 2334.95 875.285C2336.22 880.351 2336.16 885.611 2334.78 890.654Z" fill="url(#paint42_linear_597_30)"/>
<path d="M2239.86 875.196L2240.73 890.012C2240.86 892.168 2239.53 894.169 2236.73 896.013C2233.94 897.857 2230.12 899.319 2225.27 900.397C2220.42 901.475 2215.17 902.015 2209.51 902.015C2203.85 902.015 2198.6 901.475 2193.75 900.397C2188.91 899.319 2185.08 897.857 2182.29 896.013C2179.49 894.169 2178.16 892.168 2178.29 890.012L2179.16 875.196L2207.17 883.682C2207.88 883.901 2208.66 884.01 2209.51 884.01C2210.36 884.01 2211.14 883.901 2211.85 883.682L2239.86 875.196ZM2265.71 860.004C2265.71 860.723 2265.36 861.208 2264.64 861.458L2210 877.962C2209.87 877.993 2209.71 878.009 2209.51 878.009C2209.32 878.009 2209.15 877.993 2209.02 877.962L2177.21 868.303C2175.81 869.366 2174.66 871.109 2173.75 873.531C2172.84 875.954 2172.29 878.743 2172.09 881.9C2174.14 883.026 2175.16 884.729 2175.16 887.011C2175.16 889.168 2174.22 890.84 2172.33 892.028L2175.16 912.329C2175.23 912.767 2175.1 913.158 2174.77 913.502C2174.48 913.845 2174.09 914.017 2173.6 914.017H2164.24C2163.75 914.017 2163.36 913.845 2163.07 913.502C2162.74 913.158 2162.61 912.767 2162.67 912.329L2165.5 892.028C2163.62 890.84 2162.67 889.168 2162.67 887.011C2162.67 884.729 2163.73 882.994 2165.85 881.807C2166.2 875.336 2167.8 870.179 2170.63 866.334L2154.38 861.458C2153.67 861.208 2153.31 860.723 2153.31 860.004C2153.31 859.285 2153.67 858.801 2154.38 858.551L2209.02 842.047C2209.15 842.016 2209.32 842 2209.51 842C2209.71 842 2209.87 842.016 2210 842.047L2264.64 858.551C2265.36 858.801 2265.71 859.285 2265.71 860.004Z" fill="url(#paint43_linear_597_30)"/>
<path d="M2181.21 986.435V1093.33H2154.19V1010.55H2153.54L2128.49 1025.16V1002.82L2156.11 986.435H2181.21Z" fill="url(#paint44_linear_597_30)"/>
<path d="M2252.11 1002.25L2235.65 1003.45C2235.44 1002.3 2234.63 1001.15 2233.25 1000.01C2231.86 998.857 2229.89 998.283 2227.34 998.283C2225.52 998.283 2223.86 998.613 2222.37 999.275C2220.87 999.936 2220.13 1000.86 2220.13 1002.04C2220.13 1003.05 2220.58 1003.83 2221.49 1004.39C2222.44 1004.95 2224.08 1005.47 2226.41 1005.96L2236.75 1007.83C2241.92 1008.81 2246.04 1010.44 2249.11 1012.74C2252.2 1015 2253.75 1018.32 2253.75 1022.71C2253.75 1026.33 2252.61 1029.51 2250.31 1032.26C2248.01 1034.97 2244.88 1037.1 2240.9 1038.63C2236.93 1040.16 2232.43 1040.92 2227.4 1040.92C2219.63 1040.92 2213.42 1039.41 2208.75 1036.38C2204.09 1033.32 2201.41 1029.18 2200.71 1023.96L2218.59 1022.81C2218.96 1024.66 2219.94 1026.03 2221.55 1026.94C2223.15 1027.81 2225.1 1028.24 2227.4 1028.24C2229.62 1028.24 2231.46 1027.89 2232.92 1027.2C2234.38 1026.47 2235.11 1025.54 2235.11 1024.43C2235.11 1023.46 2234.58 1022.66 2233.52 1022.03C2232.46 1021.4 2230.92 1020.92 2228.87 1020.57L2218.98 1018.69C2213.22 1017.65 2208.97 1015.82 2206.24 1013.21C2203.5 1010.6 2202.14 1007.21 2202.14 1003.03C2202.14 997.709 2204.41 993.516 2208.97 990.454C2213.56 987.357 2219.61 985.809 2227.12 985.809C2234.93 985.809 2240.9 987.357 2245.06 990.454C2249.25 993.551 2251.6 997.483 2252.11 1002.25Z" fill="url(#paint45_linear_597_30)"/>
<path d="M2294.64 986.435V999.483H2258.28V986.435H2294.64ZM2265.99 973.7H2284.25V1022.03C2284.25 1023.84 2284.58 1025.01 2285.24 1025.53C2285.89 1026.05 2286.88 1026.31 2288.19 1026.31C2288.95 1026.31 2289.72 1026.26 2290.49 1026.15C2291.29 1026.01 2291.83 1025.93 2292.13 1025.89L2294.97 1038.94C2293.99 1039.25 2292.75 1039.55 2291.25 1039.83C2289.79 1040.07 2287.97 1040.25 2285.78 1040.35C2279.91 1040.52 2275.14 1039.39 2271.46 1036.96C2267.81 1034.49 2265.99 1030.38 2265.99 1024.64V973.7Z" fill="url(#paint46_linear_597_30)"/>
<path d="M232.162 1724.58H196V2071.64H485.299V2045.89" stroke="url(#paint47_linear_597_30)" stroke-width="20"/>
<path d="M268.928 1695.47H232.163V2042.53H521.462V2004.46" stroke="url(#paint48_linear_597_30)" stroke-width="20"/>
<path d="M499.502 1673L540.995 1724.47V2000.06H271.695V1673H499.502Z" stroke="url(#paint49_linear_597_30)" stroke-width="20"/>
<line x1="327.39" y1="1735.85" x2="485.299" y2="1735.85" stroke="url(#paint50_linear_597_30)" stroke-width="20"/>
<line x1="327.39" y1="1780.63" x2="485.299" y2="1780.63" stroke="url(#paint51_linear_597_30)" stroke-width="20"/>
<line x1="327.39" y1="1825.41" x2="485.299" y2="1825.41" stroke="url(#paint52_linear_597_30)" stroke-width="20"/>
<line x1="327.39" y1="1871.31" x2="485.299" y2="1871.31" stroke="url(#paint53_linear_597_30)" stroke-width="20"/>
<line x1="327.39" y1="1917.21" x2="485.299" y2="1917.21" stroke="url(#paint54_linear_597_30)" stroke-width="20"/>
<path fill-rule="evenodd" clip-rule="evenodd" d="M585.528 1677.51C584.996 1677.97 584.572 1678.53 584.28 1679.16C583.988 1679.78 583.836 1680.45 583.831 1681.13C583.835 1681.44 583.964 1681.7 584.023 1681.99L584.023 1701.53L578.627 1701.53C578.311 1701.48 578.021 1701.35 577.693 1701.35C576.964 1701.36 576.243 1701.5 575.574 1701.77C574.906 1702.04 574.303 1702.43 573.803 1702.92C573.271 1703.39 572.846 1703.95 572.555 1704.57C572.263 1705.19 572.11 1705.86 572.106 1706.54C572.106 1706.85 572.239 1707.11 572.298 1707.41L572.288 1937.73C571.855 1938.93 571.914 1940.22 572.452 1941.38L595.738 1990.92C595.849 1991.24 595.993 1991.55 596.168 1991.84L596.195 1991.9C596.215 1991.94 596.258 1991.96 596.273 1992C596.76 1992.89 597.532 1993.62 598.482 1994.08C598.584 1994.13 598.643 1994.22 598.752 1994.27C598.795 1994.28 598.842 1994.28 598.885 1994.3C599.36 1994.48 599.862 1994.6 600.375 1994.66C600.637 1994.69 600.895 1994.75 601.153 1994.75C601.411 1994.75 601.669 1994.69 601.931 1994.65C602.443 1994.6 602.945 1994.48 603.42 1994.3C603.467 1994.28 603.51 1994.28 603.553 1994.27C603.659 1994.22 603.721 1994.13 603.827 1994.08C604.29 1993.85 604.714 1993.55 605.086 1993.21C605.477 1992.84 605.762 1992.43 606.032 1992C606.048 1991.96 606.091 1991.94 606.106 1991.9L606.134 1991.83C606.302 1991.53 606.462 1991.25 606.568 1990.92L629.854 1941.38C630.39 1940.22 630.447 1938.92 630.014 1937.73L630.008 1736.11C632.149 1735.07 634.593 1734.69 636.983 1735.02C639.374 1735.36 641.587 1736.39 643.301 1737.98C645.682 1740.19 646.749 1743.14 646.581 1746.03L646.6 1746.03L646.6 1769.64L646.577 1769.64L646.576 1819.29C646.621 1820.59 647.209 1821.83 648.216 1822.73C649.224 1823.64 650.572 1824.15 651.975 1824.15C653.379 1824.15 654.727 1823.64 655.735 1822.73C656.742 1821.83 657.331 1820.59 657.375 1819.29L657.371 1746.31C657.371 1746.19 657.309 1746.09 657.297 1745.97C657.385 1743.19 656.86 1740.43 655.756 1737.84C654.651 1735.26 652.99 1732.91 650.874 1730.94C645.205 1725.67 637.256 1723.98 630.004 1725.66L630 1707.4C630.055 1707.11 630.188 1706.85 630.188 1706.54C630.186 1705.86 630.035 1705.19 629.743 1704.57C629.451 1703.95 629.025 1703.39 628.491 1702.92C627.992 1702.43 627.39 1702.03 626.72 1701.76C626.05 1701.49 625.328 1701.35 624.597 1701.35C624.269 1701.35 623.979 1701.47 623.667 1701.52L618.271 1701.52L618.271 1681.99C618.326 1681.7 618.459 1681.43 618.459 1681.12C618.457 1680.44 618.306 1679.77 618.014 1679.15C617.722 1678.53 617.296 1677.97 616.762 1677.51C616.264 1677.01 615.661 1676.61 614.991 1676.34C614.321 1676.07 613.599 1675.93 612.868 1675.93C612.54 1675.93 612.251 1676.05 611.938 1676.1L590.341 1676.1C590.024 1676.05 589.739 1675.93 589.406 1675.93C588.679 1675.94 587.961 1676.08 587.294 1676.35C586.628 1676.62 586.028 1677.02 585.528 1677.51V1677.51ZM601.145 1976.19L585.999 1943.95L616.299 1943.95L601.145 1976.19V1976.19ZM619.21 1711.56L619.208 1933.92L583.091 1933.92L583.092 1711.56L619.21 1711.56V1711.56ZM607.481 1686.14L607.481 1701.53L594.821 1701.53L594.821 1686.14L607.481 1686.14V1686.14Z" fill="url(#paint55_linear_597_30)"/>
<path d="M1177.34 2195.89L1211.72 2258.21L1189.47 2270.49L1084.49 2080.24L1079.06 2070.4L1079.05 2070.38L1101.31 2058.1L1135.71 2120.44L1177.34 2195.89Z" fill="url(#paint56_linear_597_30)"/>
<path d="M1177.35 2195.89H1177.34L1155.43 2156.19L1135.71 2120.44H1135.72C1155.82 2109.34 1180.92 2116.01 1192.98 2135.2C1193.43 2135.9 1193.86 2136.62 1194.26 2137.35C1205.75 2158.18 1198.18 2184.39 1177.35 2195.89Z" fill="url(#paint57_linear_597_30)"/>
<path d="M977.447 2362.39L1040.82 2440.58L991.123 2468L927.764 2389.82L977.447 2362.39Z" fill="url(#paint58_linear_597_30)"/>
<path d="M984.891 2344.71C988.062 2350.46 985.975 2357.69 980.226 2360.86L977.447 2362.39L927.764 2389.82L922.561 2392.69C916.803 2395.86 909.578 2393.76 906.407 2388.02L900.385 2377.11L916.001 2368.5L963.261 2342.41L978.878 2333.8L984.891 2344.71V2344.71Z" fill="url(#paint59_linear_597_30)"/>
<path d="M864.696 2360.3L835.777 2376.26L818.375 2344.72L801 2313.23L829.919 2297.28L847.203 2328.59L864.696 2360.3Z" fill="url(#paint60_linear_597_30)"/>
<path d="M986.8 2315.83L993.373 2312.22L986.808 2315.84C987.977 2317.96 987.213 2320.63 985.083 2321.81L985.082 2321.81L975.256 2327.23L975.251 2327.24L959.64 2335.84L959.636 2335.85L912.38 2361.93L912.377 2361.93L896.763 2370.54L896.761 2370.54L886.922 2375.97C886.922 2375.97 886.921 2375.97 886.921 2375.97C884.798 2377.14 882.13 2376.36 880.969 2374.25L880.965 2374.25L871.263 2356.67L871.262 2356.67L853.769 2324.97L853.769 2324.97L836.485 2293.65L836.485 2293.65L826.796 2276.09C826.795 2276.09 826.795 2276.09 826.794 2276.09C825.621 2273.95 826.404 2271.28 828.511 2270.12L828.513 2270.12L926.676 2215.96L926.679 2215.95C928.805 2214.78 931.468 2215.55 932.64 2217.68L932.646 2217.69L933.816 2219.8L933.821 2219.81L959.245 2265.87L959.246 2265.88L985.633 2313.71L985.64 2313.72L986.8 2315.83ZM893.615 2344.33L897.237 2350.89L958.383 2317.16L964.95 2313.54L961.327 2306.97L943.551 2274.76L926.549 2243.94L922.927 2237.38L916.36 2241L855.215 2274.73L848.646 2278.35L852.271 2284.92L869.472 2316.09L869.473 2316.09L887.048 2347.95L893.615 2344.33Z" fill="url(#paint61_linear_597_30)" stroke="url(#paint62_linear_597_30)" stroke-width="15"/>
<path d="M974.568 2257.42L974.567 2257.42L952.679 2217.76L1076.89 2087.18L1124.48 2173.44L1124.48 2173.44L1174.11 2263.38L997.423 2298.85L974.568 2257.42Z" stroke="url(#paint63_linear_597_30)" stroke-width="20"/>
<path d="M1232.28 2034.9L1234.41 2033.82H1236.81H1237.09H1237.37H1237.64H1237.92H1238.2H1238.48H1238.75H1239.03H1239.31H1239.59H1239.87H1240.15H1240.43H1240.71H1240.99H1241.27H1241.55H1241.83H1242.11H1242.39H1242.67H1242.95H1243.23H1243.51H1243.79H1244.07H1244.35H1244.63H1244.91H1245.19H1245.47H1245.76H1246.04H1246.32H1246.6H1246.88H1247.17H1247.45H1247.73H1248.01H1248.3H1248.58H1248.86H1249.14H1249.43H1249.71H1249.99H1250.28H1250.56H1250.84H1251.13H1251.41H1251.69H1251.98H1252.26H1252.55H1252.83H1253.12H1253.4H1253.68H1253.97H1254.25H1254.54H1254.82H1255.11H1255.39H1255.68H1255.96H1256.25H1256.53H1256.82H1257.1H1257.39H1257.68H1257.96H1258.25H1258.53H1258.82H1259.1H1259.39H1259.68H1259.96H1260.25H1260.54H1260.82H1261.11H1261.39H1261.68H1261.97H1262.25H1262.54H1262.83H1263.11H1263.4H1263.69H1263.97H1264.26H1264.55H1264.84H1265.12H1265.41H1265.7H1265.98H1266.27H1266.56H1266.85H1267.13H1267.42H1267.71H1268H1268.28H1268.57H1268.86H1269.15H1269.43H1269.72H1270.01H1270.3H1270.58H1270.87H1271.16H1271.45H1271.74H1272.02H1272.31H1272.6H1272.89H1273.17H1273.46H1273.75H1274.04H1274.33H1274.61H1274.9H1275.19H1275.48H1275.77H1276.05H1276.34H1276.63H1276.92H1277.21H1277.49H1277.78H1278.07H1278.36H1278.64H1278.93H1279.22H1279.51H1279.8H1280.08H1280.37H1280.66H1280.95H1281.24H1281.52H1281.81H1282.1H1282.39H1282.67H1282.96H1283.25H1283.54H1283.82H1284.11H1284.4H1284.69H1284.97H1285.26H1285.55H1285.84H1286.12H1286.41H1286.7H1286.98H1287.27H1287.56H1287.85H1288.13H1288.42H1288.71H1288.99H1289.28H1289.57H1289.85H1290.14H1290.43H1290.71H1291H1291.29H1291.57H1291.86H1292.14H1292.43H1292.72H1293H1293.29H1293.57H1293.86H1294.15H1294.43H1294.72H1295H1295.29H1295.57H1295.86H1296.14H1296.43H1296.71H1297H1297.28H1297.57H1297.85H1298.14H1298.42H1298.71H1298.99H1299.28H1299.56H1299.84H1300.13H1300.41H1300.7H1300.98H1301.26H1301.55H1301.83H1302.11H1302.4H1302.68H1302.96H1303.25H1303.53H1303.81H1304.09H1304.38H1304.66H1304.94H1305.22H1305.51H1305.79H1306.07H1306.35H1306.63H1306.91H1307.19H1307.48H1307.76H1308.04H1308.32H1308.6H1308.88H1309.16H1309.44H1309.72H1310H1310.28H1310.56H1310.84H1311.12H1311.4H1311.68H1311.96H1312.24H1312.52H1312.79H1313.07H1313.35H1313.63H1313.91H1314.19H1314.46H1314.74H1315.02H1315.3H1315.57H1315.85H1316.13H1316.4H1316.68H1316.96H1317.23H1317.51H1317.78H1318.06H1318.34H1318.61H1318.89H1319.16H1319.44H1319.71H1319.99H1320.26H1320.53H1320.81H1321.08H1321.36H1321.63H1321.9H1322.18H1322.45H1322.72H1322.99H1323.27H1323.54H1323.81H1324.08H1324.35H1324.63H1324.9H1325.17H1325.44H1325.71H1325.98H1326.25H1326.52H1326.79H1327.06H1327.33H1327.6H1327.87H1328.14H1328.4H1328.67H1328.94H1329.21H1329.48H1329.74H1330.01H1330.28H1330.55H1330.81H1331.08H1331.35H1331.61H1331.88H1332.14H1332.41H1332.67H1332.94H1333.2H1333.47H1333.73H1334H1334.26H1334.52H1334.79H1335.05H1335.31H1335.58H1335.84H1336.1H1336.36H1336.62H1336.88H1337.15H1337.41H1337.67H1337.93H1338.19H1338.45H1338.71H1338.97H1339.23H1339.49H1339.74H1340H1340.26H1340.52H1340.78H1341.03H1341.29H1341.55H1341.8H1342.06H1342.32H1342.57H1342.83H1343.08H1343.34H1343.59H1343.85H1344.1H1344.36H1344.61H1344.86H1345.12H1345.37H1345.62H1345.87H1346.12H1346.38H1346.63H1346.88H1347.13H1347.38H1347.63H1347.88H1348.13H1348.38H1348.63H1348.88H1349.13H1349.37H1349.62H1349.87H1350.12H1350.36H1350.61H1350.86H1351.1H1351.35H1351.59H1351.84H1352.08H1352.33H1352.57H1352.82H1353.06H1353.3H1353.54H1353.79H1354.03H1354.27H1354.51H1354.75H1355H1355.24H1355.48H1355.72H1355.96H1356.2H1356.43H1356.67H1356.91H1357.15H1357.39H1357.62H1357.86H1358.1H1358.33H1358.57H1358.81H1359.04H1359.28H1359.51H1359.75H1359.98H1360.21H1360.45H1360.68H1360.91H1361.14H1361.38H1361.61H1361.84H1362.07H1362.3H1362.53H1362.76H1362.99H1363.22H1363.45H1363.67H1363.9H1364.13H1364.36H1364.58H1364.81H1365.04H1365.26H1365.49H1365.71H1365.94H1366.16H1366.38H1366.61H1366.83H1367.05H1367.27H1367.5H1367.72H1367.94H1368.16H1368.38H1368.6H1368.82H1369.04H1369.26H1369.48H1369.69H1369.91H1370.13H1370.34H1370.56H1370.78H1370.99H1371.21H1371.42H1371.64H1371.85H1372.06H1372.28H1372.49H1372.7H1372.91H1373.13H1373.34H1373.55H1373.76H1373.96L1373.96 1915L1155.39 1915L1155.39 2033.82H1177.64H1187.64V2043.82V2064.12C1191.53 2061.52 1195.84 2058.65 1200.21 2055.75C1207.36 2050.99 1214.66 2046.16 1220.42 2042.39C1225.79 2038.88 1230.66 2035.73 1232.28 2034.9Z" stroke="url(#paint64_linear_597_30)" stroke-width="20"/>
<path d="M1221.88 1942.96L1220.31 1991.4H1206.3L1204.73 1942.96H1221.88ZM1213.29 2013.77C1210.85 2013.77 1208.76 2012.9 1207.01 2011.18C1205.29 2009.45 1204.42 2007.36 1204.42 2004.9C1204.42 2002.49 1205.29 2000.44 1207.01 1998.73C1208.76 1997.01 1210.85 1996.14 1213.29 1996.14C1215.63 1996.14 1217.68 1997.01 1219.46 1998.73C1221.25 2000.44 1222.15 2002.49 1222.15 2004.9C1222.15 2006.54 1221.73 2008.03 1220.89 2009.37C1220.07 2010.71 1218.99 2011.78 1217.65 2012.57C1216.33 2013.37 1214.88 2013.77 1213.29 2013.77ZM1275.13 1942.96L1273.56 1991.4H1259.55L1257.98 1942.96H1275.13ZM1266.54 2013.77C1264.1 2013.77 1262.01 2012.9 1260.26 2011.18C1258.54 2009.45 1257.67 2007.36 1257.67 2004.9C1257.67 2002.49 1258.54 2000.44 1260.26 1998.73C1262.01 1997.01 1264.1 1996.14 1266.54 1996.14C1268.88 1996.14 1270.93 1997.01 1272.71 1998.73C1274.5 2000.44 1275.4 2002.49 1275.4 2004.9C1275.4 2006.54 1274.98 2008.03 1274.14 2009.37C1273.32 2010.71 1272.24 2011.78 1270.9 2012.57C1269.58 2013.37 1268.13 2013.77 1266.54 2013.77ZM1328.38 1942.96L1326.81 1991.4H1312.8L1311.23 1942.96H1328.38ZM1319.79 2013.77C1317.35 2013.77 1315.26 2012.9 1313.51 2011.18C1311.79 2009.45 1310.92 2007.36 1310.92 2004.9C1310.92 2002.49 1311.79 2000.44 1313.51 1998.73C1315.26 1997.01 1317.35 1996.14 1319.79 1996.14C1322.13 1996.14 1324.18 1997.01 1325.96 1998.73C1327.75 2000.44 1328.65 2002.49 1328.65 2004.9C1328.65 2006.54 1328.23 2008.03 1327.39 2009.37C1326.57 2010.71 1325.49 2011.78 1324.15 2012.57C1322.83 2013.37 1321.38 2013.77 1319.79 2013.77Z" fill="url(#paint65_linear_597_30)"/>
<circle cx="797.5" cy="1033.96" r="220.5" stroke="url(#paint66_linear_597_30)" stroke-width="20"/>
<circle cx="797.5" cy="1033.96" r="159.51" stroke="url(#paint67_linear_597_30)" stroke-width="20"/>
<path d="M800.134 1031.49V1026.73H816.651V993.356C829.788 986.287 837.886 972.753 837.886 957.681C837.886 935.362 819.892 917.204 797.775 917.204C775.657 917.204 757.664 935.362 757.664 957.681C757.664 972.753 765.762 986.287 778.899 993.356V1026.73H795.415V1031.49H800.134ZM782.292 989.758C770.011 983.71 762.383 971.42 762.383 957.681C762.383 937.988 778.26 921.966 797.775 921.966C817.29 921.966 833.167 937.988 833.167 957.681C833.167 971.42 825.539 983.71 813.258 989.758L811.932 990.411V1010.06H800.134V961.048L811.24 949.841L807.904 946.474L797.775 956.696L787.646 946.474L784.309 949.841L795.415 961.048V1010.06H783.618V990.411L782.292 989.758ZM783.618 1014.83H811.932V1021.97H783.618V1014.83Z" fill="url(#paint68_linear_597_30)"/>
<path d="M752.59 1133.13V1067.67H779.628C784.529 1067.67 788.758 1068.56 792.317 1070.32C795.896 1072.07 798.655 1074.59 800.594 1077.87C802.533 1081.13 803.503 1084.99 803.503 1089.47C803.503 1094.01 802.512 1097.86 800.53 1101.04C798.549 1104.19 795.736 1106.6 792.093 1108.26C788.449 1109.9 784.135 1110.72 779.149 1110.72H762.05V1098.26H776.209C778.595 1098.26 780.587 1097.95 782.185 1097.33C783.805 1096.69 785.03 1095.73 785.861 1094.45C786.692 1093.15 787.107 1091.49 787.107 1089.47C787.107 1087.44 786.692 1085.77 785.861 1084.45C785.03 1083.11 783.805 1082.11 782.185 1081.45C780.566 1080.76 778.574 1080.42 776.209 1080.42H768.41V1133.13H752.59ZM789.44 1103.21L805.74 1133.13H788.481L772.501 1103.21H789.44ZM812.18 1151.54V1084.04H827.649V1092.44H828.128C828.767 1090.95 829.673 1089.51 830.845 1088.13C832.038 1086.74 833.551 1085.61 835.383 1084.74C837.237 1083.84 839.453 1083.4 842.031 1083.4C845.44 1083.4 848.625 1084.29 851.587 1086.08C854.57 1087.87 856.977 1090.63 858.81 1094.36C860.642 1098.09 861.558 1102.84 861.558 1108.61C861.558 1114.17 860.674 1118.83 858.906 1122.58C857.159 1126.33 854.794 1129.14 851.811 1131.02C848.849 1132.89 845.557 1133.83 841.935 1133.83C839.463 1133.83 837.322 1133.42 835.511 1132.61C833.7 1131.8 832.176 1130.74 830.941 1129.42C829.726 1128.1 828.789 1126.68 828.128 1125.17H827.808V1151.54H812.18ZM827.489 1108.58C827.489 1111.22 827.84 1113.52 828.544 1115.48C829.268 1117.44 830.301 1118.97 831.644 1120.05C833.007 1121.12 834.637 1121.65 836.534 1121.65C838.451 1121.65 840.081 1121.12 841.424 1120.05C842.766 1118.97 843.778 1117.44 844.46 1115.48C845.163 1113.52 845.514 1111.22 845.514 1108.58C845.514 1105.94 845.163 1103.65 844.46 1101.71C843.778 1099.77 842.766 1098.27 841.424 1097.2C840.102 1096.14 838.473 1095.6 836.534 1095.6C834.616 1095.6 832.986 1096.13 831.644 1097.17C830.301 1098.21 829.268 1099.71 828.544 1101.65C827.84 1103.58 827.489 1105.9 827.489 1108.58Z" fill="url(#paint69_linear_597_30)"/>
<path d="M971.438 869.567V792.436H992.904V869.567H971.438ZM943.579 841.761V820.295H1020.71V841.761H943.579Z" fill="url(#paint70_linear_597_30)"/>
<mask id="path-38-inside-1_597_30" fill="white">
<rect x="1261" y="1191" width="568" height="326.62" rx="15"/>
</mask>
<rect x="1261" y="1191" width="568" height="326.62" rx="15" stroke="url(#paint71_linear_597_30)" stroke-width="60" mask="url(#path-38-inside-1_597_30)"/>
<path d="M1411.4 1572.6C1411.4 1550.51 1429.31 1532.6 1451.4 1532.6H1638.6C1660.69 1532.6 1678.6 1550.51 1678.6 1572.6V1604.6H1411.4V1572.6Z" fill="url(#paint72_linear_597_30)"/>
<path d="M1546.6 1363.8C1566.48 1363.8 1582.6 1347.68 1582.6 1327.8C1582.6 1307.92 1566.48 1291.8 1546.6 1291.8C1526.72 1291.8 1510.6 1307.92 1510.6 1327.8C1510.6 1347.68 1526.72 1363.8 1546.6 1363.8Z" stroke="url(#paint73_linear_597_30)" stroke-width="10" stroke-linecap="round" stroke-linejoin="round"/>
<path d="M1532.2 1295.4H1535.8C1528.78 1316.43 1528.78 1339.17 1535.8 1360.2H1532.2M1557.4 1295.4C1564.42 1316.43 1564.42 1339.17 1557.4 1360.2" stroke="url(#paint74_linear_597_30)" stroke-width="5" stroke-linecap="round" stroke-linejoin="round"/>
<path d="M1514.2 1342.2V1338.6C1535.23 1345.62 1557.97 1345.62 1579 1338.6V1342.2M1514.2 1317C1535.23 1309.98 1557.97 1309.98 1579 1317" stroke="url(#paint75_linear_597_30)" stroke-width="5" stroke-linecap="round" stroke-linejoin="round"/>
<path d="M1375 1363.8H1396.6C1414.6 1363.8 1421.8 1356.6 1421.8 1338.6V1317C1421.8 1299 1414.6 1291.8 1396.6 1291.8H1375C1357 1291.8 1349.8 1299 1349.8 1317V1338.6C1349.8 1356.6 1357 1363.8 1375 1363.8Z" stroke="url(#paint76_linear_597_30)" stroke-width="15" stroke-linecap="round" stroke-linejoin="round"/>
<path d="M1385.8 1340.4C1387.45 1340.4 1389.09 1340.07 1390.62 1339.44C1392.15 1338.81 1393.54 1337.88 1394.71 1336.71C1395.88 1335.54 1396.81 1334.15 1397.44 1332.62C1398.07 1331.09 1398.4 1329.45 1398.4 1327.8C1398.4 1326.15 1398.07 1324.51 1397.44 1322.98C1396.81 1321.45 1395.88 1320.06 1394.71 1318.89C1393.54 1317.72 1392.15 1316.79 1390.62 1316.16C1389.09 1315.53 1387.45 1315.2 1385.8 1315.2C1382.46 1315.2 1379.25 1316.53 1376.89 1318.89C1374.53 1321.25 1373.2 1324.46 1373.2 1327.8C1373.2 1331.14 1374.53 1334.35 1376.89 1336.71C1379.25 1339.07 1382.46 1340.4 1385.8 1340.4V1340.4Z" stroke="url(#paint77_linear_597_30)" stroke-width="5" stroke-linecap="round" stroke-linejoin="round"/>
<path d="M1406.09 1309.8H1406.13" stroke="url(#paint78_linear_597_30)" stroke-width="10" stroke-linecap="round" stroke-linejoin="round"/>
<path d="M1702.61 1347.83L1702.4 1347.79L1702.19 1347.76C1686.74 1345.61 1676.4 1334.54 1676.4 1322.46C1676.4 1309.04 1689.53 1296.8 1707.4 1296.8C1725.27 1296.8 1738.4 1309.04 1738.4 1322.46C1738.4 1327.81 1736.49 1332.78 1731.91 1338.04L1730.69 1339.45C1727.26 1343.2 1722.18 1347.4 1717.2 1351.04C1714.48 1353.03 1711.96 1354.74 1709.92 1356.04C1709.9 1355.21 1709.81 1354.01 1709.35 1352.8L1709.35 1352.79L1709.34 1352.77C1708.47 1350.51 1706.61 1349.38 1705.64 1348.88C1704.52 1348.32 1703.38 1348.01 1702.61 1347.83ZM1704.97 1358.84C1704.97 1358.84 1704.98 1358.84 1704.99 1358.84C1704.98 1358.84 1704.97 1358.84 1704.97 1358.84Z" stroke="url(#paint79_linear_597_30)" stroke-width="10"/>
<path d="M1700.08 1313.23H1697.56C1697.17 1313.23 1696.86 1313.55 1696.86 1313.93V1329.62C1696.86 1329.71 1696.88 1329.8 1696.91 1329.89C1696.95 1329.97 1697 1330.05 1697.06 1330.11C1697.13 1330.18 1697.21 1330.23 1697.29 1330.26C1697.38 1330.3 1697.47 1330.32 1697.56 1330.32H1700.08C1700.18 1330.32 1700.27 1330.3 1700.35 1330.26C1700.44 1330.23 1700.52 1330.18 1700.58 1330.11C1700.65 1330.05 1700.7 1329.97 1700.73 1329.89C1700.77 1329.8 1700.79 1329.71 1700.79 1329.62V1313.94C1700.79 1313.56 1700.47 1313.24 1700.08 1313.24M1717.47 1313.23H1714.94C1714.55 1313.23 1714.24 1313.55 1714.24 1313.93V1323.25L1707.04 1313.54C1707.02 1313.52 1707.01 1313.49 1706.99 1313.47L1706.98 1313.47C1706.97 1313.45 1706.95 1313.44 1706.94 1313.42L1706.89 1313.38C1706.88 1313.37 1706.88 1313.37 1706.87 1313.37L1706.83 1313.34L1706.81 1313.33L1706.78 1313.31C1706.77 1313.3 1706.76 1313.3 1706.75 1313.29C1706.74 1313.29 1706.73 1313.28 1706.71 1313.28C1706.7 1313.27 1706.7 1313.27 1706.69 1313.27C1706.68 1313.26 1706.66 1313.26 1706.65 1313.26L1706.62 1313.25C1706.61 1313.25 1706.6 1313.24 1706.58 1313.24L1706.55 1313.24C1706.55 1313.23 1706.53 1313.23 1706.52 1313.23L1706.48 1313.23C1706.47 1313.23 1706.47 1313.23 1706.46 1313.23H1703.93C1703.55 1313.23 1703.23 1313.54 1703.23 1313.93V1329.61C1703.23 1329.71 1703.25 1329.8 1703.28 1329.88C1703.32 1329.97 1703.37 1330.04 1703.44 1330.11C1703.5 1330.17 1703.58 1330.22 1703.66 1330.26C1703.75 1330.29 1703.84 1330.31 1703.93 1330.31H1706.46C1706.84 1330.31 1707.16 1330 1707.16 1329.61V1320.3L1714.36 1330.02C1714.4 1330.09 1714.46 1330.15 1714.53 1330.19C1714.55 1330.21 1714.57 1330.22 1714.58 1330.23C1714.59 1330.23 1714.6 1330.24 1714.6 1330.24C1714.61 1330.24 1714.63 1330.25 1714.64 1330.25C1714.65 1330.26 1714.66 1330.26 1714.67 1330.27L1714.74 1330.29C1714.8 1330.31 1714.86 1330.32 1714.93 1330.32H1717.45C1717.54 1330.32 1717.64 1330.3 1717.72 1330.27C1717.81 1330.23 1717.88 1330.18 1717.95 1330.12C1718.01 1330.05 1718.06 1329.97 1718.1 1329.89C1718.14 1329.8 1718.15 1329.71 1718.15 1329.62V1313.94C1718.15 1313.56 1717.84 1313.24 1717.45 1313.24" fill="url(#paint80_linear_597_30)"/>
<path d="M1694 1326.39H1687.14V1313.94C1687.14 1313.56 1686.82 1313.24 1686.43 1313.24H1683.91C1683.52 1313.24 1683.21 1313.56 1683.21 1313.94V1329.63C1683.21 1329.81 1683.28 1329.98 1683.4 1330.11C1683.42 1330.13 1683.42 1330.13 1683.42 1330.13C1683.55 1330.25 1683.72 1330.33 1683.91 1330.33H1694C1694.38 1330.33 1694.7 1330.01 1694.7 1329.63V1327.1C1694.7 1326.72 1694.38 1326.4 1694 1326.4M1731.41 1317.16C1731.8 1317.16 1732.11 1316.85 1732.11 1316.46V1313.94C1732.11 1313.56 1731.8 1313.24 1731.41 1313.24H1721.32C1721.13 1313.24 1720.96 1313.32 1720.84 1313.44C1720.82 1313.45 1720.82 1313.46 1720.82 1313.46C1720.7 1313.57 1720.62 1313.76 1720.62 1313.94V1329.63C1720.62 1329.81 1720.69 1329.98 1720.82 1330.11L1720.83 1330.13C1720.96 1330.26 1721.14 1330.33 1721.32 1330.33H1731.41C1731.8 1330.33 1732.11 1330.01 1732.11 1329.63V1327.1C1732.11 1326.71 1731.8 1326.4 1731.41 1326.4H1724.55V1323.75H1731.41C1731.5 1323.75 1731.59 1323.73 1731.68 1323.7C1731.76 1323.66 1731.84 1323.61 1731.91 1323.54C1731.97 1323.48 1732.02 1323.4 1732.06 1323.32C1732.09 1323.23 1732.11 1323.14 1732.11 1323.05V1320.51C1732.11 1320.13 1731.8 1319.81 1731.41 1319.81H1724.55V1317.16H1731.41H1731.41Z" fill="url(#paint81_linear_597_30)"/>
<path d="M1385.4 1382.6V1442.6H1546.4M1707.4 1382.6V1442.6H1546.4M1546.4 1442.6V1382.6" stroke="url(#paint82_linear_597_30)" stroke-width="8" stroke-dasharray="10 10"/>
<circle cx="2063.27" cy="1884.97" r="50.7704" stroke="url(#paint83_linear_597_30)" stroke-width="15"/>
<circle cx="2223" cy="2009.74" r="68.1918" stroke="url(#paint84_linear_597_30)" stroke-width="35"/>
<mask id="path-52-inside-2_597_30" fill="white">
<path d="M2394.38 2292.86C2394.38 2247.41 2376.33 2203.82 2344.19 2171.68C2312.05 2139.53 2268.45 2121.48 2223 2121.48C2177.55 2121.48 2133.95 2139.53 2101.81 2171.67C2069.67 2203.82 2051.62 2247.41 2051.62 2292.86L2223 2292.86H2394.38Z"/>
</mask>
<path d="M2394.38 2292.86C2394.38 2247.41 2376.33 2203.82 2344.19 2171.68C2312.05 2139.53 2268.45 2121.48 2223 2121.48C2177.55 2121.48 2133.95 2139.53 2101.81 2171.67C2069.67 2203.82 2051.62 2247.41 2051.62 2292.86L2223 2292.86H2394.38Z" stroke="url(#paint85_linear_597_30)" stroke-width="70" mask="url(#path-52-inside-2_597_30)"/>
<path d="M2164.73 1840.05V1829.8C2164.73 1823.74 2169.68 1818.73 2175.8 1818.73C2186.35 1818.73 2190.66 1811.27 2185.36 1802.12C2182.33 1796.87 2184.13 1790.06 2189.44 1787.03L2199.52 1781.26C2204.12 1778.52 2210.06 1780.15 2212.8 1784.75L2213.44 1785.86C2218.69 1795.01 2227.31 1795.01 2232.61 1785.86L2233.26 1784.75C2235.99 1780.15 2241.94 1778.52 2246.54 1781.26L2256.62 1787.03C2261.92 1790.06 2263.73 1796.87 2260.7 1802.12C2255.4 1811.27 2259.71 1818.73 2270.26 1818.73C2276.32 1818.73 2281.33 1823.68 2281.33 1829.8V1840.05C2281.33 1846.11 2276.38 1851.12 2270.26 1851.12C2259.71 1851.12 2255.4 1858.58 2260.7 1867.73C2263.73 1873.03 2261.92 1879.79 2256.62 1882.82L2246.54 1888.59C2241.94 1891.33 2235.99 1889.7 2233.26 1885.1L2232.61 1883.99C2227.37 1874.84 2218.75 1874.84 2213.44 1883.99L2212.8 1885.1C2210.06 1889.7 2204.12 1891.33 2199.52 1888.59L2189.44 1882.82C2186.9 1881.36 2185.04 1878.95 2184.28 1876.12C2183.51 1873.29 2183.9 1870.27 2185.36 1867.73C2190.66 1858.58 2186.35 1851.12 2175.8 1851.12C2169.68 1851.12 2164.73 1846.11 2164.73 1840.05V1840.05Z" stroke="url(#paint86_linear_597_30)" stroke-width="15" stroke-miterlimit="10" stroke-linecap="round" stroke-linejoin="round"/>
<path d="M2223 1865.52C2231.11 1865.52 2238.89 1862.29 2244.63 1856.56C2250.37 1850.82 2253.59 1843.04 2253.59 1834.92C2253.59 1826.81 2250.37 1819.03 2244.63 1813.29C2238.89 1807.56 2231.11 1804.33 2223 1804.33C2214.89 1804.33 2207.11 1807.56 2201.37 1813.29C2195.63 1819.03 2192.41 1826.81 2192.41 1834.92C2192.41 1843.04 2195.63 1850.82 2201.37 1856.56C2207.11 1862.29 2214.89 1865.52 2223 1865.52V1865.52Z" stroke="url(#paint87_linear_597_30)" stroke-width="5" stroke-miterlimit="10" stroke-linecap="round" stroke-linejoin="round"/>
<path d="M2223.56 1856.86V1855.03H2229.92V1842.22C2234.97 1839.51 2238.08 1834.31 2238.08 1828.53C2238.08 1819.96 2231.16 1812.99 2222.66 1812.99C2214.15 1812.99 2207.23 1819.96 2207.23 1828.53C2207.23 1834.31 2210.35 1839.51 2215.4 1842.22V1855.03H2221.75V1856.86H2223.56ZM2216.7 1840.84C2211.98 1838.52 2209.05 1833.8 2209.05 1828.53C2209.05 1820.97 2215.15 1814.82 2222.66 1814.82C2230.16 1814.82 2236.27 1820.97 2236.27 1828.53C2236.27 1833.8 2233.33 1838.52 2228.61 1840.84L2228.1 1841.09V1848.64H2223.56V1829.82L2227.84 1825.52L2226.55 1824.22L2222.66 1828.15L2218.76 1824.22L2217.48 1825.52L2221.75 1829.82V1848.64H2217.21V1841.09L2216.7 1840.84ZM2217.21 1850.46H2228.1V1853.21H2217.21V1850.46Z" fill="url(#paint88_linear_597_30)"/>
<path d="M2364.06 1879.77L2382.73 1866.24L2401.39 1879.77L2394.31 1901.62H2371.22L2364.06 1879.77ZM2382.73 1826.7C2390.62 1826.7 2398.16 1828.24 2405.36 1831.32C2412.56 1834.39 2418.76 1838.53 2423.96 1843.74C2429.16 1848.94 2433.3 1855.14 2436.38 1862.34C2439.46 1869.53 2441 1877.08 2441 1884.97C2441 1892.86 2439.46 1900.4 2436.38 1907.6C2433.3 1914.8 2429.16 1921 2423.96 1926.2C2418.76 1931.4 2412.56 1935.54 2405.36 1938.62C2398.16 1941.7 2390.62 1943.24 2382.73 1943.24C2374.84 1943.24 2367.29 1941.7 2360.1 1938.62C2352.9 1935.54 2346.7 1931.4 2341.5 1926.2C2336.3 1921 2332.15 1914.8 2329.08 1907.6C2326 1900.4 2324.46 1892.86 2324.46 1884.97C2324.46 1877.08 2326 1869.53 2329.08 1862.34C2332.15 1855.14 2336.3 1848.94 2341.5 1843.74C2346.7 1838.53 2352.9 1834.39 2360.1 1831.32C2367.29 1828.24 2374.84 1826.7 2382.73 1826.7ZM2422.99 1914.49C2429.45 1905.69 2432.68 1895.85 2432.68 1884.97V1884.77L2426.04 1890.56L2410.43 1875.99L2414.53 1854.99L2423.25 1855.77C2416.74 1846.84 2408.31 1840.72 2397.95 1837.43L2401.39 1845.49L2382.73 1855.83L2364.06 1845.49L2367.51 1837.43C2357.15 1840.72 2348.72 1846.84 2342.21 1855.77L2350.99 1854.99L2355.02 1875.99L2339.42 1890.56L2332.78 1884.77V1884.97C2332.78 1895.85 2336.01 1905.69 2342.47 1914.49L2344.42 1905.91L2365.63 1908.51L2374.67 1927.89L2367.12 1932.38C2372.19 1934.07 2377.4 1934.91 2382.73 1934.91C2388.06 1934.91 2393.26 1934.07 2398.34 1932.38L2390.79 1927.89L2399.83 1908.51L2421.03 1905.91L2422.99 1914.49Z" fill="url(#paint89_linear_597_30)"/>
<path d="M2069.18 1851.79C2068.46 1851.83 2067.78 1852.15 2067.28 1852.67C2066.78 1853.2 2066.51 1853.9 2066.51 1854.63V1877.55H2061.5C2059.14 1877.55 2056.9 1879.46 2056.48 1881.82C2056.07 1884.18 2057.64 1886.09 2060 1886.09H2064.26C2066.62 1886.09 2068.87 1884.18 2069.29 1881.82C2069.33 1881.58 2069.34 1881.34 2069.34 1881.11L2069.35 1881.11V1861.8C2069.35 1861.44 2069.49 1861.09 2069.73 1860.83C2069.97 1860.57 2070.31 1860.41 2070.67 1860.38L2086.31 1859.17C2086.51 1859.16 2086.71 1859.19 2086.89 1859.25C2087.08 1859.31 2087.25 1859.42 2087.39 1859.55C2087.53 1859.68 2087.65 1859.84 2087.73 1860.02C2087.81 1860.2 2087.85 1860.4 2087.85 1860.59V1873.28H2082.84C2080.48 1873.28 2078.24 1875.19 2077.82 1877.55C2077.41 1879.91 2078.98 1881.82 2081.34 1881.82H2085.6C2087.96 1881.82 2090.21 1879.91 2090.62 1877.55C2090.67 1877.31 2090.68 1877.07 2090.68 1876.84L2090.69 1876.84V1853.54C2090.69 1853.15 2090.61 1852.77 2090.46 1852.41C2090.31 1852.05 2090.08 1851.73 2089.8 1851.47C2089.52 1851.2 2089.18 1851 2088.82 1850.86C2088.45 1850.73 2088.07 1850.67 2087.68 1850.7L2069.18 1851.79V1851.79Z" fill="url(#paint90_linear_597_30)"/>
<path d="M2033.52 1912.28C2034.04 1912.28 2034.56 1912.23 2035.08 1912.12L2038.93 1911.34C2039.25 1911.27 2039.58 1911.27 2039.9 1911.34C2040.22 1911.4 2040.52 1911.53 2040.79 1911.71C2041.06 1911.89 2041.3 1912.13 2041.48 1912.4C2041.66 1912.67 2041.78 1912.98 2041.85 1913.31C2042.1 1914.62 2042.71 1915.83 2043.59 1916.82C2044.47 1917.81 2045.61 1918.54 2046.87 1918.93C2048.13 1919.32 2049.47 1919.35 2050.75 1919.02C2052.02 1918.7 2053.19 1918.03 2054.12 1917.08L2054.31 1916.89C2056.07 1915.11 2057.46 1912.99 2058.41 1910.67C2059.36 1908.34 2059.85 1905.84 2059.84 1903.32V1902.36C2059.84 1897.75 2058.04 1893.33 2054.82 1890.06C2051.61 1886.8 2047.25 1884.97 2042.7 1884.97C2038.16 1884.97 2033.8 1886.8 2030.59 1890.06C2027.37 1893.33 2025.57 1897.75 2025.57 1902.36V1904.21C2025.57 1906.35 2026.4 1908.4 2027.9 1909.92C2029.39 1911.43 2031.41 1912.28 2033.52 1912.28V1912.28ZM2051.27 1910.54H2047.85V1907.06H2051.27V1910.54ZM2052.99 1900.1V1903.58H2049.56V1900.1H2052.99ZM2046.13 1893.14H2049.56V1896.62H2046.13V1893.14ZM2037.56 1891.4H2040.99V1894.88H2037.56V1891.4ZM2032.42 1898.36H2035.85V1901.84H2032.42V1898.36Z" fill="url(#paint91_linear_597_30)"/>
<defs>
<radialGradient id="paint0_radial_597_30" cx="0" cy="0" r="1" gradientUnits="userSpaceOnUse" gradientTransform="translate(1387.5 1387) rotate(43.4972) scale(1590.83 1591.4)">
<stop stop-color="#626262"/>
<stop offset="1" stop-color="white" stop-opacity="0"/>
</radialGradient>
<linearGradient id="paint1_linear_597_30" x1="1734.01" y1="402.567" x2="1734.01" y2="714.586" gradientUnits="userSpaceOnUse">
<stop stop-color="#9E6FFB"/>
<stop offset="1" stop-color="#7446AC" stop-opacity="0.38"/>
</linearGradient>
<linearGradient id="paint2_linear_597_30" x1="1750.6" y1="474.145" x2="1750.6" y2="638.525" gradientUnits="userSpaceOnUse">
<stop stop-color="#9E6FFB"/>
<stop offset="1" stop-color="#7446AC" stop-opacity="0.38"/>
</linearGradient>
<linearGradient id="paint3_linear_597_30" x1="1666.58" y1="627.83" x2="1666.58" y2="702.41" gradientUnits="userSpaceOnUse">
<stop stop-color="#9E6FFB"/>
<stop offset="1" stop-color="#4D455D" stop-opacity="0.27"/>
</linearGradient>
<linearGradient id="paint4_linear_597_30" x1="1725.94" y1="569.079" x2="1725.94" y2="702.41" gradientUnits="userSpaceOnUse">
<stop stop-color="#9E6FFB"/>
<stop offset="1" stop-color="#4D455D" stop-opacity="0.27"/>
</linearGradient>
<linearGradient id="paint5_linear_597_30" x1="1844.05" y1="570.905" x2="1844.05" y2="703.019" gradientUnits="userSpaceOnUse">
<stop stop-color="#9E6FFB"/>
<stop offset="1" stop-color="#4D455D" stop-opacity="0.27"/>
</linearGradient>
<linearGradient id="paint6_linear_597_30" x1="1785.15" y1="595.562" x2="1785.15" y2="702.41" gradientUnits="userSpaceOnUse">
<stop stop-color="#9E6FFB"/>
<stop offset="1" stop-color="#4D455D" stop-opacity="0.27"/>
</linearGradient>
<linearGradient id="paint7_linear_597_30" x1="1666.43" y1="420.527" x2="1666.43" y2="492.063" gradientUnits="userSpaceOnUse">
<stop stop-color="#9E6FFB"/>
<stop offset="1" stop-color="#4D455D" stop-opacity="0.27"/>
</linearGradient>
<linearGradient id="paint8_linear_597_30" x1="1666.43" y1="420.527" x2="1666.43" y2="492.063" gradientUnits="userSpaceOnUse">
<stop stop-color="#9E6FFB"/>
<stop offset="1" stop-color="#4D455D" stop-opacity="0.27"/>
</linearGradient>
<linearGradient id="paint9_linear_597_30" x1="1666.58" y1="391" x2="1666.58" y2="510.328" gradientUnits="userSpaceOnUse">
<stop stop-color="#9E6FFB"/>
<stop offset="1" stop-color="#7446AC" stop-opacity="0.38"/>
</linearGradient>
<linearGradient id="paint10_linear_597_30" x1="1641.19" y1="514.214" x2="1621.44" y2="558.565" gradientUnits="userSpaceOnUse">
<stop stop-color="#9E6FFB"/>
<stop offset="1" stop-color="#7446AC" stop-opacity="0.38"/>
</linearGradient>
<linearGradient id="paint11_linear_597_30" x1="1856.84" y1="395.87" x2="1856.84" y2="452.795" gradientUnits="userSpaceOnUse">
<stop stop-color="#9E6FFB"/>
<stop offset="1" stop-color="#7446AC" stop-opacity="0.38"/>
</linearGradient>
<linearGradient id="paint12_linear_597_30" x1="2209.13" y1="842" x2="2209.13" y2="1238.83" gradientUnits="userSpaceOnUse">
<stop stop-color="#9E6FFB"/>
<stop offset="1" stop-color="#4D455D" stop-opacity="0.27"/>
</linearGradient>
<linearGradient id="paint13_linear_597_30" x1="2209.13" y1="842" x2="2209.13" y2="1238.83" gradientUnits="userSpaceOnUse">
<stop stop-color="#9E6FFB"/>
<stop offset="1" stop-color="#4D455D" stop-opacity="0.27"/>
</linearGradient>
<linearGradient id="paint14_linear_597_30" x1="2209.13" y1="842" x2="2209.13" y2="1238.83" gradientUnits="userSpaceOnUse">
<stop stop-color="#9E6FFB"/>
<stop offset="1" stop-color="#4D455D" stop-opacity="0.27"/>
</linearGradient>
<linearGradient id="paint15_linear_597_30" x1="2209.13" y1="842" x2="2209.13" y2="1238.83" gradientUnits="userSpaceOnUse">
<stop stop-color="#9E6FFB"/>
<stop offset="1" stop-color="#4D455D" stop-opacity="0.27"/>
</linearGradient>
<linearGradient id="paint16_linear_597_30" x1="2209.13" y1="842" x2="2209.13" y2="1238.83" gradientUnits="userSpaceOnUse">
<stop stop-color="#9E6FFB"/>
<stop offset="1" stop-color="#4D455D" stop-opacity="0.27"/>
</linearGradient>
<linearGradient id="paint17_linear_597_30" x1="2209.13" y1="842" x2="2209.13" y2="1238.83" gradientUnits="userSpaceOnUse">
<stop stop-color="#9E6FFB"/>
<stop offset="1" stop-color="#4D455D" stop-opacity="0.27"/>
</linearGradient>
<linearGradient id="paint18_linear_597_30" x1="2209.13" y1="842" x2="2209.13" y2="1238.83" gradientUnits="userSpaceOnUse">
<stop stop-color="#9E6FFB"/>
<stop offset="1" stop-color="#4D455D" stop-opacity="0.27"/>
</linearGradient>
<linearGradient id="paint19_linear_597_30" x1="2209.13" y1="842" x2="2209.13" y2="1238.83" gradientUnits="userSpaceOnUse">
<stop stop-color="#9E6FFB"/>
<stop offset="1" stop-color="#4D455D" stop-opacity="0.27"/>
</linearGradient>
<linearGradient id="paint20_linear_597_30" x1="2209.13" y1="842" x2="2209.13" y2="1238.83" gradientUnits="userSpaceOnUse">
<stop stop-color="#9E6FFB"/>
<stop offset="1" stop-color="#4D455D" stop-opacity="0.27"/>
</linearGradient>
<linearGradient id="paint21_linear_597_30" x1="2209.13" y1="842" x2="2209.13" y2="1238.83" gradientUnits="userSpaceOnUse">
<stop stop-color="#9E6FFB"/>
<stop offset="1" stop-color="#4D455D" stop-opacity="0.27"/>
</linearGradient>
<linearGradient id="paint22_linear_597_30" x1="2209.13" y1="842" x2="2209.13" y2="1238.83" gradientUnits="userSpaceOnUse">
<stop stop-color="#9E6FFB"/>
<stop offset="1" stop-color="#4D455D" stop-opacity="0.27"/>
</linearGradient>
<linearGradient id="paint23_linear_597_30" x1="2209.13" y1="842" x2="2209.13" y2="1238.83" gradientUnits="userSpaceOnUse">
<stop stop-color="#9E6FFB"/>
<stop offset="1" stop-color="#4D455D" stop-opacity="0.27"/>
</linearGradient>
<linearGradient id="paint24_linear_597_30" x1="2209.13" y1="842" x2="2209.13" y2="1238.83" gradientUnits="userSpaceOnUse">
<stop stop-color="#9E6FFB"/>
<stop offset="1" stop-color="#4D455D" stop-opacity="0.27"/>
</linearGradient>
<linearGradient id="paint25_linear_597_30" x1="2209.13" y1="842" x2="2209.13" y2="1238.83" gradientUnits="userSpaceOnUse">
<stop stop-color="#9E6FFB"/>
<stop offset="1" stop-color="#4D455D" stop-opacity="0.27"/>
</linearGradient>
<linearGradient id="paint26_linear_597_30" x1="2209.13" y1="842" x2="2209.13" y2="1238.83" gradientUnits="userSpaceOnUse">
<stop stop-color="#9E6FFB"/>
<stop offset="1" stop-color="#4D455D" stop-opacity="0.27"/>
</linearGradient>
<linearGradient id="paint27_linear_597_30" x1="2209.13" y1="842" x2="2209.13" y2="1238.83" gradientUnits="userSpaceOnUse">
<stop stop-color="#9E6FFB"/>
<stop offset="1" stop-color="#4D455D" stop-opacity="0.27"/>
</linearGradient>
<linearGradient id="paint28_linear_597_30" x1="2209.13" y1="842" x2="2209.13" y2="1238.83" gradientUnits="userSpaceOnUse">
<stop stop-color="#9E6FFB"/>
<stop offset="1" stop-color="#4D455D" stop-opacity="0.27"/>
</linearGradient>
<linearGradient id="paint29_linear_597_30" x1="2209.13" y1="842" x2="2209.13" y2="1238.83" gradientUnits="userSpaceOnUse">
<stop stop-color="#9E6FFB"/>
<stop offset="1" stop-color="#4D455D" stop-opacity="0.27"/>
</linearGradient>
<linearGradient id="paint30_linear_597_30" x1="2209.13" y1="842" x2="2209.13" y2="1238.83" gradientUnits="userSpaceOnUse">
<stop stop-color="#9E6FFB"/>
<stop offset="1" stop-color="#4D455D" stop-opacity="0.27"/>
</linearGradient>
<linearGradient id="paint31_linear_597_30" x1="2209.13" y1="842" x2="2209.13" y2="1238.83" gradientUnits="userSpaceOnUse">
<stop stop-color="#9E6FFB"/>
<stop offset="1" stop-color="#4D455D" stop-opacity="0.27"/>
</linearGradient>
<linearGradient id="paint32_linear_597_30" x1="2209.13" y1="842" x2="2209.13" y2="1238.83" gradientUnits="userSpaceOnUse">
<stop stop-color="#9E6FFB"/>
<stop offset="1" stop-color="#4D455D" stop-opacity="0.27"/>
</linearGradient>
<linearGradient id="paint33_linear_597_30" x1="2209.13" y1="842" x2="2209.13" y2="1238.83" gradientUnits="userSpaceOnUse">
<stop stop-color="#9E6FFB"/>
<stop offset="1" stop-color="#4D455D" stop-opacity="0.27"/>
</linearGradient>
<linearGradient id="paint34_linear_597_30" x1="2209.13" y1="842" x2="2209.13" y2="1238.83" gradientUnits="userSpaceOnUse">
<stop stop-color="#9E6FFB"/>
<stop offset="1" stop-color="#4D455D" stop-opacity="0.27"/>
</linearGradient>
<linearGradient id="paint35_linear_597_30" x1="2209.13" y1="842" x2="2209.13" y2="1238.83" gradientUnits="userSpaceOnUse">
<stop stop-color="#9E6FFB"/>
<stop offset="1" stop-color="#4D455D" stop-opacity="0.27"/>
</linearGradient>
<linearGradient id="paint36_linear_597_30" x1="2209.13" y1="842" x2="2209.13" y2="1238.83" gradientUnits="userSpaceOnUse">
<stop stop-color="#9E6FFB"/>
<stop offset="1" stop-color="#4D455D" stop-opacity="0.27"/>
</linearGradient>
<linearGradient id="paint37_linear_597_30" x1="2209.13" y1="842" x2="2209.13" y2="1238.83" gradientUnits="userSpaceOnUse">
<stop stop-color="#9E6FFB"/>
<stop offset="1" stop-color="#4D455D" stop-opacity="0.27"/>
</linearGradient>
<linearGradient id="paint38_linear_597_30" x1="2209.13" y1="842" x2="2209.13" y2="1238.83" gradientUnits="userSpaceOnUse">
<stop stop-color="#9E6FFB"/>
<stop offset="1" stop-color="#4D455D" stop-opacity="0.27"/>
</linearGradient>
<linearGradient id="paint39_linear_597_30" x1="2209.13" y1="842" x2="2209.13" y2="1238.83" gradientUnits="userSpaceOnUse">
<stop stop-color="#9E6FFB"/>
<stop offset="1" stop-color="#4D455D" stop-opacity="0.27"/>
</linearGradient>
<linearGradient id="paint40_linear_597_30" x1="2209.13" y1="842" x2="2209.13" y2="1238.83" gradientUnits="userSpaceOnUse">
<stop stop-color="#9E6FFB"/>
<stop offset="1" stop-color="#4D455D" stop-opacity="0.27"/>
</linearGradient>
<linearGradient id="paint41_linear_597_30" x1="2209.13" y1="842" x2="2209.13" y2="1238.83" gradientUnits="userSpaceOnUse">
<stop stop-color="#9E6FFB"/>
<stop offset="1" stop-color="#4D455D" stop-opacity="0.27"/>
</linearGradient>
<linearGradient id="paint42_linear_597_30" x1="2209.13" y1="842" x2="2209.13" y2="1238.83" gradientUnits="userSpaceOnUse">
<stop stop-color="#9E6FFB"/>
<stop offset="1" stop-color="#4D455D" stop-opacity="0.27"/>
</linearGradient>
<linearGradient id="paint43_linear_597_30" x1="2209.51" y1="842" x2="2209.51" y2="914.017" gradientUnits="userSpaceOnUse">
<stop stop-color="#9E6FFB"/>
<stop offset="1" stop-color="#4D455D" stop-opacity="0.27"/>
</linearGradient>
<linearGradient id="paint44_linear_597_30" x1="2211.73" y1="973.7" x2="2211.73" y2="1093.33" gradientUnits="userSpaceOnUse">
<stop stop-color="#9E6FFB"/>
<stop offset="1" stop-color="#4D455D" stop-opacity="0.27"/>
</linearGradient>
<linearGradient id="paint45_linear_597_30" x1="2211.73" y1="973.7" x2="2211.73" y2="1093.33" gradientUnits="userSpaceOnUse">
<stop stop-color="#9E6FFB"/>
<stop offset="1" stop-color="#4D455D" stop-opacity="0.27"/>
</linearGradient>
<linearGradient id="paint46_linear_597_30" x1="2211.73" y1="973.7" x2="2211.73" y2="1093.33" gradientUnits="userSpaceOnUse">
<stop stop-color="#9E6FFB"/>
<stop offset="1" stop-color="#4D455D" stop-opacity="0.27"/>
</linearGradient>
<linearGradient id="paint47_linear_597_30" x1="340.65" y1="1724.58" x2="340.65" y2="2071.64" gradientUnits="userSpaceOnUse">
<stop stop-color="#9E6FFB"/>
<stop offset="1" stop-color="#7446AC" stop-opacity="0.38"/>
</linearGradient>
<linearGradient id="paint48_linear_597_30" x1="376.812" y1="1695.47" x2="376.812" y2="2042.53" gradientUnits="userSpaceOnUse">
<stop stop-color="#9E6FFB"/>
<stop offset="1" stop-color="#7446AC" stop-opacity="0.38"/>
</linearGradient>
<linearGradient id="paint49_linear_597_30" x1="406.345" y1="1663" x2="406.345" y2="2010.06" gradientUnits="userSpaceOnUse">
<stop stop-color="#9E6FFB"/>
<stop offset="1" stop-color="#7446AC" stop-opacity="0.38"/>
</linearGradient>
<linearGradient id="paint50_linear_597_30" x1="406.345" y1="1745.85" x2="406.345" y2="1746.85" gradientUnits="userSpaceOnUse">
<stop stop-color="#9E6FFB"/>
<stop offset="1" stop-color="#7446AC" stop-opacity="0.38"/>
</linearGradient>
<linearGradient id="paint51_linear_597_30" x1="406.345" y1="1790.63" x2="406.345" y2="1791.63" gradientUnits="userSpaceOnUse">
<stop stop-color="#9E6FFB"/>
<stop offset="1" stop-color="#7446AC" stop-opacity="0.38"/>
</linearGradient>
<linearGradient id="paint52_linear_597_30" x1="406.345" y1="1835.41" x2="406.345" y2="1836.41" gradientUnits="userSpaceOnUse">
<stop stop-color="#9E6FFB"/>
<stop offset="1" stop-color="#7446AC" stop-opacity="0.38"/>
</linearGradient>
<linearGradient id="paint53_linear_597_30" x1="406.345" y1="1881.31" x2="406.345" y2="1882.31" gradientUnits="userSpaceOnUse">
<stop stop-color="#9E6FFB"/>
<stop offset="1" stop-color="#7446AC" stop-opacity="0.38"/>
</linearGradient>
<linearGradient id="paint54_linear_597_30" x1="406.345" y1="1927.21" x2="406.345" y2="1928.21" gradientUnits="userSpaceOnUse">
<stop stop-color="#9E6FFB"/>
<stop offset="1" stop-color="#7446AC" stop-opacity="0.38"/>
</linearGradient>
<linearGradient id="paint55_linear_597_30" x1="691.015" y1="1746.47" x2="524.538" y2="1925.71" gradientUnits="userSpaceOnUse">
<stop stop-color="#9E6FFB"/>
<stop offset="1" stop-color="#4D455D" stop-opacity="0.27"/>
</linearGradient>
<linearGradient id="paint56_linear_597_30" x1="1145.38" y1="2058.1" x2="1145.38" y2="2270.49" gradientUnits="userSpaceOnUse">
<stop stop-color="#9E6FFB"/>
<stop offset="1" stop-color="#4D455D" stop-opacity="0.27"/>
</linearGradient>
<linearGradient id="paint57_linear_597_30" x1="1167.67" y1="2115.07" x2="1167.67" y2="2195.89" gradientUnits="userSpaceOnUse">
<stop stop-color="#9E6FFB"/>
<stop offset="1" stop-color="#4D455D" stop-opacity="0.27"/>
</linearGradient>
<linearGradient id="paint58_linear_597_30" x1="984.289" y1="2362.39" x2="984.289" y2="2468" gradientUnits="userSpaceOnUse">
<stop stop-color="#9E6FFB"/>
<stop offset="1" stop-color="#4D455D" stop-opacity="0.27"/>
</linearGradient>
<linearGradient id="paint59_linear_597_30" x1="943.378" y1="2333.8" x2="943.378" y2="2394.17" gradientUnits="userSpaceOnUse">
<stop stop-color="#9E6FFB"/>
<stop offset="1" stop-color="#4D455D" stop-opacity="0.27"/>
</linearGradient>
<linearGradient id="paint60_linear_597_30" x1="832.848" y1="2297.28" x2="832.848" y2="2376.26" gradientUnits="userSpaceOnUse">
<stop stop-color="#9E6FFB"/>
<stop offset="1" stop-color="#4D455D" stop-opacity="0.27"/>
</linearGradient>
<linearGradient id="paint61_linear_597_30" x1="906.802" y1="2207.9" x2="906.802" y2="2384.02" gradientUnits="userSpaceOnUse">
<stop stop-color="#9E6FFB"/>
<stop offset="1" stop-color="#4D455D" stop-opacity="0.27"/>
</linearGradient>
<linearGradient id="paint62_linear_597_30" x1="906.802" y1="2207.9" x2="906.802" y2="2384.02" gradientUnits="userSpaceOnUse">
<stop stop-color="#9E6FFB"/>
<stop offset="1" stop-color="#7446AC" stop-opacity="0.38"/>
</linearGradient>
<linearGradient id="paint63_linear_597_30" x1="1064.92" y1="2070.4" x2="1064.92" y2="2310.09" gradientUnits="userSpaceOnUse">
<stop stop-color="#9E6FFB"/>
<stop offset="1" stop-color="#7446AC" stop-opacity="0.38"/>
</linearGradient>
<linearGradient id="paint64_linear_597_30" x1="1264.67" y1="1905" x2="1264.67" y2="2082.83" gradientUnits="userSpaceOnUse">
<stop stop-color="#9E6FFB"/>
<stop offset="1" stop-color="#7446AC" stop-opacity="0.38"/>
</linearGradient>
<linearGradient id="paint65_linear_597_30" x1="1266.55" y1="1919.78" x2="1266.55" y2="2086.34" gradientUnits="userSpaceOnUse">
<stop stop-color="#9E6FFB"/>
<stop offset="1" stop-color="#4D455D" stop-opacity="0.27"/>
</linearGradient>
<linearGradient id="paint66_linear_597_30" x1="797.5" y1="803.465" x2="797.5" y2="1264.46" gradientUnits="userSpaceOnUse">
<stop stop-color="#9E6FFB"/>
<stop offset="1" stop-color="#7446AC" stop-opacity="0.38"/>
</linearGradient>
<linearGradient id="paint67_linear_597_30" x1="797.5" y1="864.455" x2="797.5" y2="1203.47" gradientUnits="userSpaceOnUse">
<stop stop-color="#9E6FFB"/>
<stop offset="1" stop-color="#7446AC" stop-opacity="0.38"/>
</linearGradient>
<linearGradient id="paint68_linear_597_30" x1="797.775" y1="917.204" x2="797.775" y2="1031.49" gradientUnits="userSpaceOnUse">
<stop stop-color="#9E6FFB"/>
<stop offset="1" stop-color="#4D455D" stop-opacity="0.27"/>
</linearGradient>
<linearGradient id="paint69_linear_597_30" x1="806.215" y1="1046.13" x2="806.215" y2="1191.18" gradientUnits="userSpaceOnUse">
<stop stop-color="#9E6FFB"/>
<stop offset="1" stop-color="#4D455D" stop-opacity="0.27"/>
</linearGradient>
<linearGradient id="paint70_linear_597_30" x1="982.178" y1="729" x2="982.178" y2="864.523" gradientUnits="userSpaceOnUse">
<stop stop-color="#9E6FFB"/>
<stop offset="1" stop-color="#4D455D" stop-opacity="0.27"/>
</linearGradient>
<linearGradient id="paint71_linear_597_30" x1="1545" y1="1191" x2="1545" y2="1517.62" gradientUnits="userSpaceOnUse">
<stop stop-color="#9E6FFB"/>
<stop offset="1" stop-color="#7446AC" stop-opacity="0.38"/>
</linearGradient>
<linearGradient id="paint72_linear_597_30" x1="1545" y1="1532.6" x2="1545" y2="1604.6" gradientUnits="userSpaceOnUse">
<stop stop-color="#9E6FFB"/>
<stop offset="1" stop-color="#4D455D" stop-opacity="0.27"/>
</linearGradient>
<linearGradient id="paint73_linear_597_30" x1="1546.6" y1="1291.8" x2="1546.6" y2="1363.8" gradientUnits="userSpaceOnUse">
<stop stop-color="#9E6FFB"/>
<stop offset="1" stop-color="#7446AC" stop-opacity="0.38"/>
</linearGradient>
<linearGradient id="paint74_linear_597_30" x1="1546.6" y1="1295.4" x2="1546.6" y2="1360.2" gradientUnits="userSpaceOnUse">
<stop stop-color="#9E6FFB"/>
<stop offset="1" stop-color="#7446AC" stop-opacity="0.38"/>
</linearGradient>
<linearGradient id="paint75_linear_597_30" x1="1546.6" y1="1311.73" x2="1546.6" y2="1343.86" gradientUnits="userSpaceOnUse">
<stop stop-color="#9E6FFB"/>
<stop offset="1" stop-color="#7446AC" stop-opacity="0.38"/>
</linearGradient>
<linearGradient id="paint76_linear_597_30" x1="1385.8" y1="1291.8" x2="1385.8" y2="1363.8" gradientUnits="userSpaceOnUse">
<stop stop-color="#9E6FFB"/>
<stop offset="1" stop-color="#7446AC" stop-opacity="0.38"/>
</linearGradient>
<linearGradient id="paint77_linear_597_30" x1="1385.8" y1="1315.2" x2="1385.8" y2="1340.4" gradientUnits="userSpaceOnUse">
<stop stop-color="#9E6FFB"/>
<stop offset="1" stop-color="#7446AC" stop-opacity="0.38"/>
</linearGradient>
<linearGradient id="paint78_linear_597_30" x1="1406.11" y1="1309.8" x2="1406.11" y2="1310.8" gradientUnits="userSpaceOnUse">
<stop stop-color="#9E6FFB"/>
<stop offset="1" stop-color="#7446AC" stop-opacity="0.38"/>
</linearGradient>
<linearGradient id="paint79_linear_597_30" x1="1707.4" y1="1291.8" x2="1707.4" y2="1363.8" gradientUnits="userSpaceOnUse">
<stop stop-color="#9E6FFB"/>
<stop offset="1" stop-color="#7446AC" stop-opacity="0.38"/>
</linearGradient>
<linearGradient id="paint80_linear_597_30" x1="1707.51" y1="1313.23" x2="1707.51" y2="1330.32" gradientUnits="userSpaceOnUse">
<stop stop-color="#9E6FFB"/>
<stop offset="1" stop-color="#4D455D" stop-opacity="0.27"/>
</linearGradient>
<linearGradient id="paint81_linear_597_30" x1="1707.66" y1="1313.24" x2="1707.66" y2="1330.33" gradientUnits="userSpaceOnUse">
<stop stop-color="#9E6FFB"/>
<stop offset="1" stop-color="#4D455D" stop-opacity="0.27"/>
</linearGradient>
<linearGradient id="paint82_linear_597_30" x1="1546.4" y1="1382.6" x2="1546.4" y2="1442.6" gradientUnits="userSpaceOnUse">
<stop stop-color="#9E6FFB"/>
<stop offset="1" stop-color="#7446AC" stop-opacity="0.38"/>
</linearGradient>
<linearGradient id="paint83_linear_597_30" x1="2063.27" y1="1826.7" x2="2063.27" y2="1943.24" gradientUnits="userSpaceOnUse">
<stop stop-color="#9E6FFB"/>
<stop offset="1" stop-color="#7446AC" stop-opacity="0.38"/>
</linearGradient>
<linearGradient id="paint84_linear_597_30" x1="2223" y1="1924.04" x2="2223" y2="2095.43" gradientUnits="userSpaceOnUse">
<stop stop-color="#9E6FFB"/>
<stop offset="1" stop-color="#7446AC" stop-opacity="0.38"/>
</linearGradient>
<linearGradient id="paint85_linear_597_30" x1="2223" y1="2464.25" x2="2223" y2="2121.48" gradientUnits="userSpaceOnUse">
<stop stop-color="#9E6FFB"/>
<stop offset="1" stop-color="#7446AC" stop-opacity="0.38"/>
</linearGradient>
<linearGradient id="paint86_linear_597_30" x1="2223.03" y1="1779.92" x2="2223.03" y2="1889.93" gradientUnits="userSpaceOnUse">
<stop stop-color="#9E6FFB"/>
<stop offset="1" stop-color="#4D455D" stop-opacity="0.27"/>
</linearGradient>
<linearGradient id="paint87_linear_597_30" x1="2223" y1="1804.33" x2="2223" y2="1865.52" gradientUnits="userSpaceOnUse">
<stop stop-color="#9E6FFB"/>
<stop offset="1" stop-color="#4D455D" stop-opacity="0.27"/>
</linearGradient>
<linearGradient id="paint88_linear_597_30" x1="2222.66" y1="1812.99" x2="2222.66" y2="1856.86" gradientUnits="userSpaceOnUse">
<stop stop-color="#9E6FFB"/>
<stop offset="1" stop-color="#4D455D" stop-opacity="0.27"/>
</linearGradient>
<linearGradient id="paint89_linear_597_30" x1="2382.73" y1="1826.7" x2="2382.73" y2="1943.24" gradientUnits="userSpaceOnUse">
<stop stop-color="#9E6FFB"/>
<stop offset="1" stop-color="#4D455D" stop-opacity="0.27"/>
</linearGradient>
<linearGradient id="paint90_linear_597_30" x1="2073.55" y1="1850.69" x2="2073.55" y2="1886.09" gradientUnits="userSpaceOnUse">
<stop stop-color="#9E6FFB"/>
<stop offset="1" stop-color="#4D455D" stop-opacity="0.27"/>
</linearGradient>
<linearGradient id="paint91_linear_597_30" x1="2042.7" y1="1884.97" x2="2042.7" y2="1919.25" gradientUnits="userSpaceOnUse">
<stop stop-color="#9E6FFB"/>
<stop offset="1" stop-color="#4D455D" stop-opacity="0.27"/>
</linearGradient>
</defs>
</svg>
